%TF.GenerationSoftware,KiCad,Pcbnew,7.0.8*%
%TF.CreationDate,2023-10-26T02:27:46+02:00*%
%TF.ProjectId,chessbot,63686573-7362-46f7-942e-6b696361645f,rev?*%
%TF.SameCoordinates,Original*%
%TF.FileFunction,Copper,L2,Bot*%
%TF.FilePolarity,Positive*%
%FSLAX46Y46*%
G04 Gerber Fmt 4.6, Leading zero omitted, Abs format (unit mm)*
G04 Created by KiCad (PCBNEW 7.0.8) date 2023-10-26 02:27:46*
%MOMM*%
%LPD*%
G01*
G04 APERTURE LIST*
%TA.AperFunction,ComponentPad*%
%ADD10C,1.600000*%
%TD*%
%TA.AperFunction,ComponentPad*%
%ADD11O,1.600000X1.600000*%
%TD*%
%TA.AperFunction,ComponentPad*%
%ADD12C,1.700000*%
%TD*%
%TA.AperFunction,ComponentPad*%
%ADD13O,1.700000X1.700000*%
%TD*%
%TA.AperFunction,ComponentPad*%
%ADD14R,1.700000X1.700000*%
%TD*%
%TA.AperFunction,ViaPad*%
%ADD15C,0.800000*%
%TD*%
%TA.AperFunction,Conductor*%
%ADD16C,1.000000*%
%TD*%
G04 APERTURE END LIST*
D10*
%TO.P,L293D1,1,EN1\u002C2*%
%TO.N,Net-(Conn_ESP2-Pin_4)*%
X40640000Y-53340000D03*
D11*
%TO.P,L293D1,2,1A*%
%TO.N,Net-(Conn_ESP2-Pin_2)*%
X38100000Y-53340000D03*
%TO.P,L293D1,3,1Y*%
%TO.N,Net-(L293D1-1Y)*%
X35560000Y-53340000D03*
%TO.P,L293D1,4,GND*%
%TO.N,GND*%
X33020000Y-53340000D03*
%TO.P,L293D1,5,GND*%
X30480000Y-53340000D03*
%TO.P,L293D1,6,2Y*%
%TO.N,Net-(L293D1-2Y)*%
X27940000Y-53340000D03*
%TO.P,L293D1,7,2A*%
%TO.N,Net-(Conn_ESP2-Pin_3)*%
X25400000Y-53340000D03*
%TO.P,L293D1,8,VCC2*%
%TO.N,Net-(BT-M1-+)*%
X22860000Y-53340000D03*
%TO.P,L293D1,9,EN3\u002C4*%
%TO.N,Net-(Conn_ESP2-Pin_4)*%
X22860000Y-45720000D03*
%TO.P,L293D1,10,3A*%
%TO.N,Net-(Conn_ESP2-Pin_5)*%
X25400000Y-45720000D03*
%TO.P,L293D1,11,3Y*%
%TO.N,Net-(L293D1-3Y)*%
X27940000Y-45720000D03*
%TO.P,L293D1,12,GND*%
%TO.N,GND*%
X30480000Y-45720000D03*
%TO.P,L293D1,13,GND*%
X33020000Y-45720000D03*
%TO.P,L293D1,14,4Y*%
%TO.N,Net-(L293D1-4Y)*%
X35560000Y-45720000D03*
%TO.P,L293D1,15,4A*%
%TO.N,Net-(Conn_ESP2-Pin_6)*%
X38100000Y-45720000D03*
%TO.P,L293D1,16,VCC1*%
%TO.N,Net-(BT-ESP1-+)*%
X40640000Y-45720000D03*
%TD*%
D12*
%TO.P,VCC_Flash1,1,Pin_1*%
%TO.N,Net-(BT-M1-+)*%
X20320000Y-20320000D03*
D13*
%TO.P,VCC_Flash1,2,Pin_2*%
%TO.N,GND*%
X22860000Y-20320000D03*
%TO.P,VCC_Flash1,3,Pin_3*%
%TO.N,Net-(BT-ESP1-+)*%
X25400000Y-20320000D03*
%TO.P,VCC_Flash1,4,Pin_4*%
%TO.N,Net-(Conn_ESP1-Pin_8)*%
X27940000Y-20320000D03*
%TO.P,VCC_Flash1,5,Pin_5*%
%TO.N,Net-(Conn_ESP1-Pin_7)*%
X30480000Y-20320000D03*
%TO.P,VCC_Flash1,6,Pin_6*%
%TO.N,Net-(Conn_ESP1-Pin_6)*%
X33020000Y-20320000D03*
%TO.P,VCC_Flash1,7,Pin_7*%
%TO.N,Net-(Conn_ESP1-Pin_4)*%
X35560000Y-20320000D03*
%TO.P,VCC_Flash1,8,Pin_8*%
%TO.N,Net-(Conn_ESP1-Pin_3)*%
X38100000Y-20320000D03*
%TD*%
D12*
%TO.P,Conn_ESP1,1,Pin_1*%
%TO.N,unconnected-(Conn_ESP1-Pin_1-Pad1)*%
X40640000Y-22890000D03*
D13*
%TO.P,Conn_ESP1,2,Pin_2*%
%TO.N,unconnected-(Conn_ESP1-Pin_2-Pad2)*%
X40640000Y-25430000D03*
%TO.P,Conn_ESP1,3,Pin_3*%
%TO.N,Net-(Conn_ESP1-Pin_3)*%
X40640000Y-27970000D03*
%TO.P,Conn_ESP1,4,Pin_4*%
%TO.N,Net-(Conn_ESP1-Pin_4)*%
X40640000Y-30510000D03*
%TO.P,Conn_ESP1,5,Pin_5*%
%TO.N,unconnected-(Conn_ESP1-Pin_5-Pad5)*%
X40640000Y-33050000D03*
%TO.P,Conn_ESP1,6,Pin_6*%
%TO.N,Net-(Conn_ESP1-Pin_6)*%
X40640000Y-35590000D03*
%TO.P,Conn_ESP1,7,Pin_7*%
%TO.N,Net-(Conn_ESP1-Pin_7)*%
X40640000Y-38130000D03*
%TO.P,Conn_ESP1,8,Pin_8*%
%TO.N,Net-(Conn_ESP1-Pin_8)*%
X40640000Y-40670000D03*
%TD*%
D12*
%TO.P,Conn_ESP2,1,Pin_1*%
%TO.N,unconnected-(Conn_ESP2-Pin_1-Pad1)*%
X17780000Y-40640000D03*
D13*
%TO.P,Conn_ESP2,2,Pin_2*%
%TO.N,Net-(Conn_ESP2-Pin_2)*%
X17780000Y-38100000D03*
%TO.P,Conn_ESP2,3,Pin_3*%
%TO.N,Net-(Conn_ESP2-Pin_3)*%
X17780000Y-35560000D03*
%TO.P,Conn_ESP2,4,Pin_4*%
%TO.N,Net-(Conn_ESP2-Pin_4)*%
X17780000Y-33020000D03*
%TO.P,Conn_ESP2,5,Pin_5*%
%TO.N,Net-(Conn_ESP2-Pin_5)*%
X17780000Y-30480000D03*
%TO.P,Conn_ESP2,6,Pin_6*%
%TO.N,Net-(Conn_ESP2-Pin_6)*%
X17780000Y-27940000D03*
%TO.P,Conn_ESP2,7,Pin_7*%
%TO.N,GND*%
X17780000Y-25400000D03*
%TO.P,Conn_ESP2,8,Pin_8*%
%TO.N,Net-(BT-ESP1-+)*%
X17780000Y-22860000D03*
%TD*%
D14*
%TO.P,M2,1,Pin_1*%
%TO.N,Net-(L293D1-3Y)*%
X27940000Y-40640000D03*
D13*
%TO.P,M2,2,Pin_2*%
%TO.N,Net-(L293D1-4Y)*%
X30480000Y-40640000D03*
%TD*%
D12*
%TO.P,M1,1,Pin_1*%
%TO.N,Net-(L293D1-1Y)*%
X30480000Y-58420000D03*
D13*
%TO.P,M1,2,Pin_2*%
%TO.N,Net-(L293D1-2Y)*%
X27940000Y-58420000D03*
%TD*%
D15*
%TO.N,Net-(BT-ESP1-+)*%
X25400000Y-22860000D03*
%TO.N,Net-(BT-M1-+)*%
X20320000Y-53340000D03*
%TO.N,Net-(Conn_ESP1-Pin_3)*%
X38100000Y-27940000D03*
%TO.N,Net-(Conn_ESP1-Pin_4)*%
X38100000Y-30480000D03*
%TO.N,Net-(Conn_ESP1-Pin_6)*%
X38100000Y-35560000D03*
%TO.N,Net-(Conn_ESP1-Pin_7)*%
X38100000Y-38100000D03*
%TO.N,Net-(Conn_ESP1-Pin_8)*%
X38100000Y-40640000D03*
%TO.N,Net-(BT-ESP1-+)*%
X40640000Y-43180000D03*
%TO.N,Net-(L293D1-4Y)*%
X35560000Y-43180000D03*
%TO.N,Net-(L293D1-1Y)*%
X35560000Y-55880000D03*
%TO.N,Net-(L293D1-2Y)*%
X27940000Y-55880000D03*
%TO.N,Net-(L293D1-3Y)*%
X27940000Y-43180000D03*
%TD*%
D16*
%TO.N,Net-(Conn_ESP2-Pin_3)*%
X21157360Y-35560000D02*
X17780000Y-35560000D01*
X22400000Y-36802640D02*
X21157360Y-35560000D01*
X18240000Y-53800000D02*
X18240000Y-45677855D01*
X21235558Y-56795558D02*
X18240000Y-53800000D01*
X24484442Y-56795558D02*
X21235558Y-56795558D01*
X22400000Y-41517855D02*
X22400000Y-36802640D01*
X18240000Y-45677855D02*
X22400000Y-41517855D01*
X25400000Y-55880000D02*
X24484442Y-56795558D01*
X25400000Y-53340000D02*
X25400000Y-55880000D01*
%TO.N,Net-(Conn_ESP2-Pin_2)*%
X38100000Y-56298680D02*
X38100000Y-53340000D01*
X22860000Y-60541320D02*
X33857360Y-60541320D01*
X16740000Y-54421320D02*
X22860000Y-60541320D01*
X20900000Y-40896535D02*
X16740000Y-45056535D01*
X33857360Y-60541320D02*
X38100000Y-56298680D01*
X16740000Y-45056535D02*
X16740000Y-54421320D01*
X20900000Y-38680000D02*
X20900000Y-40896535D01*
X20320000Y-38100000D02*
X20900000Y-38680000D01*
X17780000Y-38100000D02*
X20320000Y-38100000D01*
%TO.N,Net-(Conn_ESP2-Pin_4)*%
X22860000Y-45720000D02*
X22860000Y-43180000D01*
X22860000Y-43180000D02*
X23900000Y-42140000D01*
X23900000Y-42140000D02*
X23900000Y-36181320D01*
X23900000Y-36181320D02*
X20738680Y-33020000D01*
X20738680Y-33020000D02*
X17780000Y-33020000D01*
%TO.N,Net-(Conn_ESP2-Pin_6)*%
X17780000Y-27940000D02*
X22860000Y-27940000D01*
X22860000Y-27940000D02*
X38100000Y-43180000D01*
X38100000Y-43180000D02*
X38100000Y-45720000D01*
%TO.N,Net-(Conn_ESP2-Pin_4)*%
X17780000Y-33020000D02*
X15902718Y-33020000D01*
X15902718Y-33020000D02*
X15240000Y-33682718D01*
X15240000Y-33682718D02*
X15240000Y-55042640D01*
X15240000Y-55042640D02*
X22238680Y-62041320D01*
X22238680Y-62041320D02*
X34478680Y-62041320D01*
X34478680Y-62041320D02*
X40640000Y-55880000D01*
X40640000Y-55880000D02*
X40640000Y-53340000D01*
%TO.N,Net-(BT-M1-+)*%
X22860000Y-53340000D02*
X20320000Y-53340000D01*
%TO.N,Net-(Conn_ESP2-Pin_5)*%
X25400000Y-45720000D02*
X25400000Y-35560000D01*
X25400000Y-35560000D02*
X20320000Y-30480000D01*
X20320000Y-30480000D02*
X17780000Y-30480000D01*
%TO.N,Net-(BT-ESP1-+)*%
X17780000Y-22860000D02*
X25400000Y-22860000D01*
X40640000Y-45720000D02*
X40640000Y-43180000D01*
%TO.N,Net-(Conn_ESP1-Pin_3)*%
X40640000Y-27970000D02*
X38100000Y-27940000D01*
%TO.N,Net-(Conn_ESP1-Pin_4)*%
X40640000Y-30510000D02*
X38100000Y-30480000D01*
%TO.N,Net-(Conn_ESP1-Pin_6)*%
X40640000Y-35590000D02*
X38100000Y-35560000D01*
%TO.N,Net-(Conn_ESP1-Pin_7)*%
X38130000Y-38130000D02*
X38100000Y-38100000D01*
X40640000Y-38130000D02*
X38130000Y-38130000D01*
%TO.N,Net-(Conn_ESP1-Pin_8)*%
X38130000Y-40670000D02*
X38100000Y-40640000D01*
X40640000Y-40670000D02*
X38130000Y-40670000D01*
%TO.N,Net-(L293D1-3Y)*%
X27940000Y-45720000D02*
X27940000Y-43180000D01*
%TO.N,Net-(L293D1-4Y)*%
X35560000Y-45720000D02*
X35560000Y-43180000D01*
%TO.N,Net-(L293D1-1Y)*%
X35560000Y-53340000D02*
X35560000Y-55880000D01*
%TO.N,Net-(L293D1-2Y)*%
X27940000Y-53340000D02*
X27940000Y-55880000D01*
%TD*%
%TA.AperFunction,Conductor*%
%TO.N,GND*%
G36*
X43123039Y-12719685D02*
G01*
X43168794Y-12772489D01*
X43180000Y-12824000D01*
X43180000Y-63376000D01*
X43160315Y-63443039D01*
X43107511Y-63488794D01*
X43056000Y-63500000D01*
X12824000Y-63500000D01*
X12756961Y-63480315D01*
X12711206Y-63427511D01*
X12700000Y-63376000D01*
X12700000Y-61027763D01*
X13385787Y-61027763D01*
X13415413Y-61297013D01*
X13415415Y-61297024D01*
X13483926Y-61559082D01*
X13483928Y-61559088D01*
X13589870Y-61808390D01*
X13661998Y-61926575D01*
X13730979Y-62039605D01*
X13730986Y-62039615D01*
X13904253Y-62247819D01*
X13904259Y-62247824D01*
X14105998Y-62428582D01*
X14331910Y-62578044D01*
X14577176Y-62693020D01*
X14577183Y-62693022D01*
X14577185Y-62693023D01*
X14836557Y-62771057D01*
X14836564Y-62771058D01*
X14836569Y-62771060D01*
X15104561Y-62810500D01*
X15104566Y-62810500D01*
X15307636Y-62810500D01*
X15359133Y-62806730D01*
X15510156Y-62795677D01*
X15622758Y-62770593D01*
X15774546Y-62736782D01*
X15774548Y-62736781D01*
X15774553Y-62736780D01*
X16027558Y-62640014D01*
X16263777Y-62507441D01*
X16478177Y-62341888D01*
X16666186Y-62146881D01*
X16823799Y-61926579D01*
X16897787Y-61782669D01*
X16947649Y-61685690D01*
X16947651Y-61685684D01*
X16947656Y-61685675D01*
X17035118Y-61429305D01*
X17084319Y-61162933D01*
X17094212Y-60892235D01*
X17064586Y-60622982D01*
X16996072Y-60360912D01*
X16890130Y-60111610D01*
X16749018Y-59880390D01*
X16659747Y-59773119D01*
X16575746Y-59672180D01*
X16575740Y-59672175D01*
X16374002Y-59491418D01*
X16148092Y-59341957D01*
X16148090Y-59341956D01*
X15902824Y-59226980D01*
X15902819Y-59226978D01*
X15902814Y-59226976D01*
X15643442Y-59148942D01*
X15643428Y-59148939D01*
X15527791Y-59131921D01*
X15375439Y-59109500D01*
X15172369Y-59109500D01*
X15172364Y-59109500D01*
X14969844Y-59124323D01*
X14969831Y-59124325D01*
X14705453Y-59183217D01*
X14705446Y-59183220D01*
X14452439Y-59279987D01*
X14216226Y-59412557D01*
X14001822Y-59578112D01*
X13813822Y-59773109D01*
X13813816Y-59773116D01*
X13656202Y-59993419D01*
X13656199Y-59993424D01*
X13532350Y-60234309D01*
X13532343Y-60234327D01*
X13444884Y-60490685D01*
X13444881Y-60490699D01*
X13395681Y-60757068D01*
X13395680Y-60757075D01*
X13385787Y-61027763D01*
X12700000Y-61027763D01*
X12700000Y-33708192D01*
X14234662Y-33708192D01*
X14236707Y-33724245D01*
X14239003Y-33742278D01*
X14239500Y-33750106D01*
X14239500Y-55029923D01*
X14237243Y-55119002D01*
X14237243Y-55119010D01*
X14248064Y-55179379D01*
X14248718Y-55184044D01*
X14254925Y-55245070D01*
X14254927Y-55245084D01*
X14265208Y-55277853D01*
X14267079Y-55285477D01*
X14273142Y-55319292D01*
X14273142Y-55319295D01*
X14295894Y-55376252D01*
X14297474Y-55380691D01*
X14315841Y-55439228D01*
X14315844Y-55439235D01*
X14332509Y-55469259D01*
X14335879Y-55476354D01*
X14348622Y-55508254D01*
X14348627Y-55508264D01*
X14382377Y-55559473D01*
X14384818Y-55563503D01*
X14414588Y-55617138D01*
X14414589Y-55617139D01*
X14414591Y-55617142D01*
X14436968Y-55643207D01*
X14441693Y-55649475D01*
X14454263Y-55668546D01*
X14460598Y-55678159D01*
X14503978Y-55721539D01*
X14507169Y-55724983D01*
X14547131Y-55771532D01*
X14547130Y-55771532D01*
X14574299Y-55792563D01*
X14580186Y-55797747D01*
X21522227Y-62739787D01*
X21583621Y-62804373D01*
X21583624Y-62804375D01*
X21583627Y-62804378D01*
X21617733Y-62828115D01*
X21633983Y-62839426D01*
X21637724Y-62842246D01*
X21685273Y-62881018D01*
X21715725Y-62896924D01*
X21722436Y-62900991D01*
X21750631Y-62920615D01*
X21807012Y-62944810D01*
X21811247Y-62946821D01*
X21865631Y-62975229D01*
X21898653Y-62984676D01*
X21906045Y-62987309D01*
X21937620Y-63000859D01*
X21937621Y-63000860D01*
X21950734Y-63003554D01*
X21997735Y-63013212D01*
X22002275Y-63014326D01*
X22061262Y-63031206D01*
X22095521Y-63033814D01*
X22103289Y-63034905D01*
X22136935Y-63041820D01*
X22136939Y-63041820D01*
X22198281Y-63041820D01*
X22202988Y-63041998D01*
X22230277Y-63044077D01*
X22264155Y-63046657D01*
X22264155Y-63046656D01*
X22264156Y-63046657D01*
X22298239Y-63042316D01*
X22306069Y-63041820D01*
X34465964Y-63041820D01*
X34555038Y-63044077D01*
X34555038Y-63044076D01*
X34555043Y-63044077D01*
X34615433Y-63033252D01*
X34620092Y-63032600D01*
X34662287Y-63028308D01*
X34681118Y-63026394D01*
X34713907Y-63016106D01*
X34721520Y-63014238D01*
X34755333Y-63008178D01*
X34812301Y-62985421D01*
X34816733Y-62983844D01*
X34875268Y-62965479D01*
X34905307Y-62948804D01*
X34912388Y-62945442D01*
X34944297Y-62932697D01*
X34995534Y-62898928D01*
X34999531Y-62896507D01*
X35053182Y-62866729D01*
X35079248Y-62844350D01*
X35085523Y-62839620D01*
X35085825Y-62839421D01*
X35114199Y-62820722D01*
X35157597Y-62777322D01*
X35161016Y-62774154D01*
X35207575Y-62734186D01*
X35228611Y-62707008D01*
X35233781Y-62701138D01*
X36907156Y-61027763D01*
X38785787Y-61027763D01*
X38815413Y-61297013D01*
X38815415Y-61297024D01*
X38883926Y-61559082D01*
X38883928Y-61559088D01*
X38989870Y-61808390D01*
X39061998Y-61926575D01*
X39130979Y-62039605D01*
X39130986Y-62039615D01*
X39304253Y-62247819D01*
X39304259Y-62247824D01*
X39505998Y-62428582D01*
X39731910Y-62578044D01*
X39977176Y-62693020D01*
X39977183Y-62693022D01*
X39977185Y-62693023D01*
X40236557Y-62771057D01*
X40236564Y-62771058D01*
X40236569Y-62771060D01*
X40504561Y-62810500D01*
X40504566Y-62810500D01*
X40707636Y-62810500D01*
X40759133Y-62806730D01*
X40910156Y-62795677D01*
X41022758Y-62770593D01*
X41174546Y-62736782D01*
X41174548Y-62736781D01*
X41174553Y-62736780D01*
X41427558Y-62640014D01*
X41663777Y-62507441D01*
X41878177Y-62341888D01*
X42066186Y-62146881D01*
X42223799Y-61926579D01*
X42297787Y-61782669D01*
X42347649Y-61685690D01*
X42347651Y-61685684D01*
X42347656Y-61685675D01*
X42435118Y-61429305D01*
X42484319Y-61162933D01*
X42494212Y-60892235D01*
X42464586Y-60622982D01*
X42396072Y-60360912D01*
X42290130Y-60111610D01*
X42149018Y-59880390D01*
X42059747Y-59773119D01*
X41975746Y-59672180D01*
X41975740Y-59672175D01*
X41774002Y-59491418D01*
X41548092Y-59341957D01*
X41548090Y-59341956D01*
X41302824Y-59226980D01*
X41302819Y-59226978D01*
X41302814Y-59226976D01*
X41043442Y-59148942D01*
X41043428Y-59148939D01*
X40927791Y-59131921D01*
X40775439Y-59109500D01*
X40572369Y-59109500D01*
X40572364Y-59109500D01*
X40369844Y-59124323D01*
X40369831Y-59124325D01*
X40105453Y-59183217D01*
X40105446Y-59183220D01*
X39852439Y-59279987D01*
X39616226Y-59412557D01*
X39401822Y-59578112D01*
X39213822Y-59773109D01*
X39213816Y-59773116D01*
X39056202Y-59993419D01*
X39056199Y-59993424D01*
X38932350Y-60234309D01*
X38932343Y-60234327D01*
X38844884Y-60490685D01*
X38844881Y-60490699D01*
X38795681Y-60757068D01*
X38795680Y-60757075D01*
X38785787Y-61027763D01*
X36907156Y-61027763D01*
X41338487Y-56596433D01*
X41403053Y-56535059D01*
X41438097Y-56484709D01*
X41440924Y-56480957D01*
X41479698Y-56433407D01*
X41495607Y-56402948D01*
X41499667Y-56396248D01*
X41519295Y-56368049D01*
X41543492Y-56311660D01*
X41545498Y-56307435D01*
X41573909Y-56253049D01*
X41583357Y-56220022D01*
X41585991Y-56212628D01*
X41599540Y-56181058D01*
X41611895Y-56120930D01*
X41612999Y-56116429D01*
X41629886Y-56057418D01*
X41632494Y-56023157D01*
X41633585Y-56015389D01*
X41640500Y-55981743D01*
X41640500Y-55920398D01*
X41640679Y-55915688D01*
X41645337Y-55854524D01*
X41641753Y-55826383D01*
X41640997Y-55820442D01*
X41640500Y-55812603D01*
X41640500Y-54217588D01*
X41660185Y-54150549D01*
X41662925Y-54146465D01*
X41770568Y-53992734D01*
X41866739Y-53786496D01*
X41925635Y-53566692D01*
X41945468Y-53340000D01*
X41925635Y-53113308D01*
X41866739Y-52893504D01*
X41770568Y-52687266D01*
X41672839Y-52547693D01*
X41640045Y-52500858D01*
X41479141Y-52339954D01*
X41292734Y-52209432D01*
X41292732Y-52209431D01*
X41086497Y-52113261D01*
X41086488Y-52113258D01*
X40866697Y-52054366D01*
X40866693Y-52054365D01*
X40866692Y-52054365D01*
X40866691Y-52054364D01*
X40866686Y-52054364D01*
X40640002Y-52034532D01*
X40639998Y-52034532D01*
X40413313Y-52054364D01*
X40413302Y-52054366D01*
X40193511Y-52113258D01*
X40193502Y-52113261D01*
X39987267Y-52209431D01*
X39987265Y-52209432D01*
X39800858Y-52339954D01*
X39639954Y-52500858D01*
X39509432Y-52687265D01*
X39509431Y-52687267D01*
X39482382Y-52745275D01*
X39436209Y-52797714D01*
X39369016Y-52816866D01*
X39302135Y-52796650D01*
X39257618Y-52745275D01*
X39230568Y-52687267D01*
X39230567Y-52687265D01*
X39202467Y-52647134D01*
X39132839Y-52547693D01*
X39100045Y-52500858D01*
X38939141Y-52339954D01*
X38752734Y-52209432D01*
X38752732Y-52209431D01*
X38546497Y-52113261D01*
X38546488Y-52113258D01*
X38326697Y-52054366D01*
X38326693Y-52054365D01*
X38326692Y-52054365D01*
X38326691Y-52054364D01*
X38326686Y-52054364D01*
X38100002Y-52034532D01*
X38099998Y-52034532D01*
X37873313Y-52054364D01*
X37873302Y-52054366D01*
X37653511Y-52113258D01*
X37653502Y-52113261D01*
X37447267Y-52209431D01*
X37447265Y-52209432D01*
X37260858Y-52339954D01*
X37099954Y-52500858D01*
X36969432Y-52687265D01*
X36969431Y-52687267D01*
X36942382Y-52745275D01*
X36896209Y-52797714D01*
X36829016Y-52816866D01*
X36762135Y-52796650D01*
X36717618Y-52745275D01*
X36690568Y-52687267D01*
X36690567Y-52687265D01*
X36662467Y-52647134D01*
X36592839Y-52547693D01*
X36560045Y-52500858D01*
X36399141Y-52339954D01*
X36212734Y-52209432D01*
X36212732Y-52209431D01*
X36006497Y-52113261D01*
X36006488Y-52113258D01*
X35786697Y-52054366D01*
X35786693Y-52054365D01*
X35786692Y-52054365D01*
X35786691Y-52054364D01*
X35786686Y-52054364D01*
X35560002Y-52034532D01*
X35559998Y-52034532D01*
X35333313Y-52054364D01*
X35333302Y-52054366D01*
X35113511Y-52113258D01*
X35113502Y-52113261D01*
X34907267Y-52209431D01*
X34907265Y-52209432D01*
X34720858Y-52339954D01*
X34559954Y-52500858D01*
X34429432Y-52687265D01*
X34429431Y-52687267D01*
X34333261Y-52893502D01*
X34333258Y-52893511D01*
X34274366Y-53113302D01*
X34274364Y-53113313D01*
X34254532Y-53339998D01*
X34254532Y-53340001D01*
X34274364Y-53566686D01*
X34274366Y-53566697D01*
X34333258Y-53786488D01*
X34333261Y-53786497D01*
X34429431Y-53992732D01*
X34429432Y-53992734D01*
X34537075Y-54146465D01*
X34559402Y-54212671D01*
X34559500Y-54217588D01*
X34559500Y-55930743D01*
X34574925Y-56082439D01*
X34635837Y-56276579D01*
X34635844Y-56276594D01*
X34734589Y-56454499D01*
X34734592Y-56454504D01*
X34867132Y-56608893D01*
X34867134Y-56608895D01*
X35028037Y-56733445D01*
X35028038Y-56733445D01*
X35028042Y-56733448D01*
X35210729Y-56823060D01*
X35407715Y-56874063D01*
X35610936Y-56884369D01*
X35812071Y-56853556D01*
X35812073Y-56853554D01*
X35813751Y-56853298D01*
X35882998Y-56862604D01*
X35936221Y-56907870D01*
X35956523Y-56974725D01*
X35937457Y-57041943D01*
X35920209Y-57063549D01*
X33479259Y-59504501D01*
X33417936Y-59537986D01*
X33391578Y-59540820D01*
X31568438Y-59540820D01*
X31501399Y-59521135D01*
X31455644Y-59468331D01*
X31445700Y-59399173D01*
X31474725Y-59335617D01*
X31480757Y-59329139D01*
X31518495Y-59291401D01*
X31654035Y-59097830D01*
X31753903Y-58883663D01*
X31815063Y-58655408D01*
X31835659Y-58420000D01*
X31815063Y-58184592D01*
X31753903Y-57956337D01*
X31654035Y-57742171D01*
X31648425Y-57734158D01*
X31518494Y-57548597D01*
X31351402Y-57381506D01*
X31351395Y-57381501D01*
X31157834Y-57245967D01*
X31157830Y-57245965D01*
X31157828Y-57245964D01*
X30943663Y-57146097D01*
X30943659Y-57146096D01*
X30943655Y-57146094D01*
X30715413Y-57084938D01*
X30715403Y-57084936D01*
X30480001Y-57064341D01*
X30479999Y-57064341D01*
X30244596Y-57084936D01*
X30244586Y-57084938D01*
X30016344Y-57146094D01*
X30016335Y-57146098D01*
X29802171Y-57245964D01*
X29802169Y-57245965D01*
X29608597Y-57381505D01*
X29441505Y-57548597D01*
X29311575Y-57734158D01*
X29256998Y-57777783D01*
X29187500Y-57784977D01*
X29125145Y-57753454D01*
X29108425Y-57734158D01*
X28978494Y-57548597D01*
X28811402Y-57381506D01*
X28811395Y-57381501D01*
X28617834Y-57245967D01*
X28617830Y-57245965D01*
X28617828Y-57245964D01*
X28403663Y-57146097D01*
X28403659Y-57146096D01*
X28403655Y-57146094D01*
X28198767Y-57091196D01*
X28139106Y-57054831D01*
X28108577Y-56991985D01*
X28116871Y-56922609D01*
X28161357Y-56868731D01*
X28187794Y-56855140D01*
X28274416Y-56823059D01*
X28382887Y-56782886D01*
X28555571Y-56675252D01*
X28703053Y-56535059D01*
X28819295Y-56368049D01*
X28899540Y-56181058D01*
X28940500Y-55981741D01*
X28940500Y-54217588D01*
X28960185Y-54150549D01*
X28962925Y-54146465D01*
X29070568Y-53992734D01*
X29166739Y-53786496D01*
X29225635Y-53566692D01*
X29245468Y-53340000D01*
X29225635Y-53113308D01*
X29166739Y-52893504D01*
X29070568Y-52687266D01*
X28972839Y-52547693D01*
X28940045Y-52500858D01*
X28779141Y-52339954D01*
X28592734Y-52209432D01*
X28592732Y-52209431D01*
X28386497Y-52113261D01*
X28386488Y-52113258D01*
X28166697Y-52054366D01*
X28166693Y-52054365D01*
X28166692Y-52054365D01*
X28166691Y-52054364D01*
X28166686Y-52054364D01*
X27940002Y-52034532D01*
X27939998Y-52034532D01*
X27713313Y-52054364D01*
X27713302Y-52054366D01*
X27493511Y-52113258D01*
X27493502Y-52113261D01*
X27287267Y-52209431D01*
X27287265Y-52209432D01*
X27100858Y-52339954D01*
X26939954Y-52500858D01*
X26809432Y-52687265D01*
X26809431Y-52687267D01*
X26782382Y-52745275D01*
X26736209Y-52797714D01*
X26669016Y-52816866D01*
X26602135Y-52796650D01*
X26557618Y-52745275D01*
X26530568Y-52687267D01*
X26530567Y-52687265D01*
X26502467Y-52647134D01*
X26432839Y-52547693D01*
X26400045Y-52500858D01*
X26239141Y-52339954D01*
X26052734Y-52209432D01*
X26052732Y-52209431D01*
X25846497Y-52113261D01*
X25846488Y-52113258D01*
X25626697Y-52054366D01*
X25626693Y-52054365D01*
X25626692Y-52054365D01*
X25626691Y-52054364D01*
X25626686Y-52054364D01*
X25400002Y-52034532D01*
X25399998Y-52034532D01*
X25173313Y-52054364D01*
X25173302Y-52054366D01*
X24953511Y-52113258D01*
X24953502Y-52113261D01*
X24747267Y-52209431D01*
X24747265Y-52209432D01*
X24560858Y-52339954D01*
X24399954Y-52500858D01*
X24269432Y-52687265D01*
X24269431Y-52687267D01*
X24242382Y-52745275D01*
X24196209Y-52797714D01*
X24129016Y-52816866D01*
X24062135Y-52796650D01*
X24017618Y-52745275D01*
X23990568Y-52687267D01*
X23990567Y-52687265D01*
X23962467Y-52647134D01*
X23892839Y-52547693D01*
X23860045Y-52500858D01*
X23699141Y-52339954D01*
X23512734Y-52209432D01*
X23512732Y-52209431D01*
X23306497Y-52113261D01*
X23306488Y-52113258D01*
X23086697Y-52054366D01*
X23086693Y-52054365D01*
X23086692Y-52054365D01*
X23086691Y-52054364D01*
X23086686Y-52054364D01*
X22860002Y-52034532D01*
X22859998Y-52034532D01*
X22633313Y-52054364D01*
X22633302Y-52054366D01*
X22413511Y-52113258D01*
X22413502Y-52113261D01*
X22207267Y-52209431D01*
X22207265Y-52209432D01*
X22053535Y-52317075D01*
X21987329Y-52339402D01*
X21982412Y-52339500D01*
X20269257Y-52339500D01*
X20117560Y-52354925D01*
X19923420Y-52415837D01*
X19923405Y-52415844D01*
X19745500Y-52514589D01*
X19745495Y-52514592D01*
X19591106Y-52647132D01*
X19591104Y-52647134D01*
X19462703Y-52813014D01*
X19460442Y-52811264D01*
X19417386Y-52849505D01*
X19348354Y-52860292D01*
X19284448Y-52832046D01*
X19245959Y-52773734D01*
X19240500Y-52737348D01*
X19240500Y-46143638D01*
X19260185Y-46076599D01*
X19276819Y-46055957D01*
X21647819Y-43684957D01*
X21709142Y-43651472D01*
X21778834Y-43656456D01*
X21834767Y-43698328D01*
X21859184Y-43763792D01*
X21859500Y-43772638D01*
X21859500Y-44842410D01*
X21839815Y-44909449D01*
X21837076Y-44913532D01*
X21729431Y-45067267D01*
X21633261Y-45273502D01*
X21633258Y-45273511D01*
X21574366Y-45493302D01*
X21574364Y-45493313D01*
X21554532Y-45719998D01*
X21554532Y-45720001D01*
X21574364Y-45946686D01*
X21574366Y-45946697D01*
X21633258Y-46166488D01*
X21633261Y-46166497D01*
X21729431Y-46372732D01*
X21729432Y-46372734D01*
X21859954Y-46559141D01*
X22020858Y-46720045D01*
X22020861Y-46720047D01*
X22207266Y-46850568D01*
X22413504Y-46946739D01*
X22633308Y-47005635D01*
X22795230Y-47019801D01*
X22859998Y-47025468D01*
X22860000Y-47025468D01*
X22860002Y-47025468D01*
X22916673Y-47020509D01*
X23086692Y-47005635D01*
X23306496Y-46946739D01*
X23512734Y-46850568D01*
X23699139Y-46720047D01*
X23860047Y-46559139D01*
X23990568Y-46372734D01*
X24017618Y-46314724D01*
X24063790Y-46262285D01*
X24130983Y-46243133D01*
X24197865Y-46263348D01*
X24242382Y-46314725D01*
X24269429Y-46372728D01*
X24269432Y-46372734D01*
X24399954Y-46559141D01*
X24560858Y-46720045D01*
X24560861Y-46720047D01*
X24747266Y-46850568D01*
X24953504Y-46946739D01*
X25173308Y-47005635D01*
X25335230Y-47019801D01*
X25399998Y-47025468D01*
X25400000Y-47025468D01*
X25400002Y-47025468D01*
X25456673Y-47020509D01*
X25626692Y-47005635D01*
X25846496Y-46946739D01*
X26052734Y-46850568D01*
X26239139Y-46720047D01*
X26400047Y-46559139D01*
X26530568Y-46372734D01*
X26557618Y-46314724D01*
X26603790Y-46262285D01*
X26670983Y-46243133D01*
X26737865Y-46263348D01*
X26782382Y-46314725D01*
X26809429Y-46372728D01*
X26809432Y-46372734D01*
X26939954Y-46559141D01*
X27100858Y-46720045D01*
X27100861Y-46720047D01*
X27287266Y-46850568D01*
X27493504Y-46946739D01*
X27713308Y-47005635D01*
X27875230Y-47019801D01*
X27939998Y-47025468D01*
X27940000Y-47025468D01*
X27940002Y-47025468D01*
X27996673Y-47020509D01*
X28166692Y-47005635D01*
X28386496Y-46946739D01*
X28592734Y-46850568D01*
X28779139Y-46720047D01*
X28940047Y-46559139D01*
X29070568Y-46372734D01*
X29166739Y-46166496D01*
X29225635Y-45946692D01*
X29245468Y-45720000D01*
X29225635Y-45493308D01*
X29166739Y-45273504D01*
X29070568Y-45067266D01*
X28962924Y-44913532D01*
X28940597Y-44847326D01*
X28940500Y-44842410D01*
X28940500Y-43129256D01*
X28925074Y-42977560D01*
X28864162Y-42783420D01*
X28864160Y-42783416D01*
X28864159Y-42783412D01*
X28765409Y-42605498D01*
X28765408Y-42605497D01*
X28765407Y-42605495D01*
X28632867Y-42451106D01*
X28632865Y-42451104D01*
X28471962Y-42326554D01*
X28471959Y-42326553D01*
X28471958Y-42326552D01*
X28289271Y-42236940D01*
X28289269Y-42236939D01*
X28289266Y-42236938D01*
X28289268Y-42236938D01*
X28280003Y-42234540D01*
X28220037Y-42198680D01*
X28188979Y-42136093D01*
X28196688Y-42066650D01*
X28240717Y-42012399D01*
X28307087Y-41990563D01*
X28311065Y-41990499D01*
X28837872Y-41990499D01*
X28897483Y-41984091D01*
X29032331Y-41933796D01*
X29147546Y-41847546D01*
X29233796Y-41732331D01*
X29282810Y-41600916D01*
X29324681Y-41544984D01*
X29390145Y-41520566D01*
X29458418Y-41535417D01*
X29486673Y-41556569D01*
X29608599Y-41678495D01*
X29705384Y-41746265D01*
X29802165Y-41814032D01*
X29802167Y-41814033D01*
X29802170Y-41814035D01*
X30016337Y-41913903D01*
X30244592Y-41975063D01*
X30421034Y-41990500D01*
X30479999Y-41995659D01*
X30480000Y-41995659D01*
X30480001Y-41995659D01*
X30538966Y-41990500D01*
X30715408Y-41975063D01*
X30943663Y-41913903D01*
X31157830Y-41814035D01*
X31351401Y-41678495D01*
X31518495Y-41511401D01*
X31654035Y-41317830D01*
X31753903Y-41103663D01*
X31815063Y-40875408D01*
X31835659Y-40640000D01*
X31815063Y-40404592D01*
X31753903Y-40176337D01*
X31654035Y-39962171D01*
X31561076Y-39829410D01*
X31518494Y-39768597D01*
X31351402Y-39601506D01*
X31351395Y-39601501D01*
X31157834Y-39465967D01*
X31157830Y-39465965D01*
X31157828Y-39465964D01*
X30943663Y-39366097D01*
X30943659Y-39366096D01*
X30943655Y-39366094D01*
X30715413Y-39304938D01*
X30715403Y-39304936D01*
X30480001Y-39284341D01*
X30479999Y-39284341D01*
X30244596Y-39304936D01*
X30244586Y-39304938D01*
X30016344Y-39366094D01*
X30016335Y-39366098D01*
X29802171Y-39465964D01*
X29802169Y-39465965D01*
X29608600Y-39601503D01*
X29486673Y-39723430D01*
X29425350Y-39756914D01*
X29355658Y-39751930D01*
X29299725Y-39710058D01*
X29282810Y-39679081D01*
X29233797Y-39547671D01*
X29233793Y-39547664D01*
X29147547Y-39432455D01*
X29147544Y-39432452D01*
X29032335Y-39346206D01*
X29032328Y-39346202D01*
X28897482Y-39295908D01*
X28897483Y-39295908D01*
X28837883Y-39289501D01*
X28837881Y-39289500D01*
X28837873Y-39289500D01*
X28837864Y-39289500D01*
X27042129Y-39289500D01*
X27042123Y-39289501D01*
X26982516Y-39295908D01*
X26847671Y-39346202D01*
X26847664Y-39346206D01*
X26732455Y-39432452D01*
X26732452Y-39432455D01*
X26646206Y-39547664D01*
X26646202Y-39547671D01*
X26640682Y-39562473D01*
X26598811Y-39618407D01*
X26533346Y-39642824D01*
X26465073Y-39627972D01*
X26415668Y-39578567D01*
X26400500Y-39519140D01*
X26400500Y-35572715D01*
X26402757Y-35483641D01*
X26402756Y-35483640D01*
X26402757Y-35483637D01*
X26391933Y-35423249D01*
X26391280Y-35418587D01*
X26385074Y-35357563D01*
X26384140Y-35354586D01*
X26374784Y-35324768D01*
X26372917Y-35317155D01*
X26366858Y-35283347D01*
X26366857Y-35283345D01*
X26344102Y-35226379D01*
X26342521Y-35221938D01*
X26340403Y-35215188D01*
X26324159Y-35163412D01*
X26324158Y-35163410D01*
X26324157Y-35163407D01*
X26307488Y-35133378D01*
X26304117Y-35126278D01*
X26291378Y-35094386D01*
X26291377Y-35094383D01*
X26257620Y-35043163D01*
X26255180Y-35039134D01*
X26243448Y-35017998D01*
X26225409Y-34985498D01*
X26225407Y-34985495D01*
X26203033Y-34959434D01*
X26198302Y-34953159D01*
X26179402Y-34924481D01*
X26136012Y-34881091D01*
X26132822Y-34877648D01*
X26092867Y-34831106D01*
X26092863Y-34831102D01*
X26065698Y-34810074D01*
X26059803Y-34804882D01*
X21036452Y-29781532D01*
X20975061Y-29716949D01*
X20975060Y-29716948D01*
X20975059Y-29716947D01*
X20947204Y-29697559D01*
X20924709Y-29681902D01*
X20920946Y-29679064D01*
X20873413Y-29640305D01*
X20873406Y-29640300D01*
X20842959Y-29624397D01*
X20836251Y-29620334D01*
X20808049Y-29600705D01*
X20808046Y-29600703D01*
X20808045Y-29600703D01*
X20808041Y-29600701D01*
X20751680Y-29576514D01*
X20747424Y-29574493D01*
X20693057Y-29546094D01*
X20693050Y-29546091D01*
X20693049Y-29546091D01*
X20687008Y-29544362D01*
X20660030Y-29536642D01*
X20652630Y-29534008D01*
X20621057Y-29520459D01*
X20621058Y-29520459D01*
X20560966Y-29508109D01*
X20556391Y-29506986D01*
X20497420Y-29490113D01*
X20497425Y-29490113D01*
X20463158Y-29487503D01*
X20455380Y-29486412D01*
X20421742Y-29479500D01*
X20421741Y-29479500D01*
X20360402Y-29479500D01*
X20355695Y-29479321D01*
X20350121Y-29478896D01*
X20294524Y-29474662D01*
X20274589Y-29477201D01*
X20260440Y-29479003D01*
X20252611Y-29479500D01*
X18740758Y-29479500D01*
X18673719Y-29459815D01*
X18653077Y-29443181D01*
X18651402Y-29441506D01*
X18651396Y-29441501D01*
X18465842Y-29311575D01*
X18422217Y-29256998D01*
X18415023Y-29187500D01*
X18446546Y-29125145D01*
X18465842Y-29108425D01*
X18608552Y-29008498D01*
X18651401Y-28978495D01*
X18653077Y-28976819D01*
X18653995Y-28976317D01*
X18655544Y-28975018D01*
X18655805Y-28975329D01*
X18714400Y-28943334D01*
X18740758Y-28940500D01*
X22394217Y-28940500D01*
X22461256Y-28960185D01*
X22481898Y-28976819D01*
X35484740Y-41979661D01*
X35518225Y-42040984D01*
X35513241Y-42110676D01*
X35471369Y-42166609D01*
X35415837Y-42189912D01*
X35307935Y-42206442D01*
X35307924Y-42206445D01*
X35117118Y-42277111D01*
X35117111Y-42277115D01*
X34944432Y-42384745D01*
X34944427Y-42384749D01*
X34796949Y-42524938D01*
X34796948Y-42524940D01*
X34680705Y-42691949D01*
X34600459Y-42878943D01*
X34559500Y-43078258D01*
X34559500Y-44842410D01*
X34539815Y-44909449D01*
X34537076Y-44913532D01*
X34429431Y-45067267D01*
X34333261Y-45273502D01*
X34333258Y-45273511D01*
X34274366Y-45493302D01*
X34274364Y-45493313D01*
X34254532Y-45719998D01*
X34254532Y-45720001D01*
X34274364Y-45946686D01*
X34274366Y-45946697D01*
X34333258Y-46166488D01*
X34333261Y-46166497D01*
X34429431Y-46372732D01*
X34429432Y-46372734D01*
X34559954Y-46559141D01*
X34720858Y-46720045D01*
X34720861Y-46720047D01*
X34907266Y-46850568D01*
X35113504Y-46946739D01*
X35333308Y-47005635D01*
X35495230Y-47019801D01*
X35559998Y-47025468D01*
X35560000Y-47025468D01*
X35560002Y-47025468D01*
X35616673Y-47020509D01*
X35786692Y-47005635D01*
X36006496Y-46946739D01*
X36212734Y-46850568D01*
X36399139Y-46720047D01*
X36560047Y-46559139D01*
X36690568Y-46372734D01*
X36717618Y-46314724D01*
X36763790Y-46262285D01*
X36830983Y-46243133D01*
X36897865Y-46263348D01*
X36942382Y-46314725D01*
X36969429Y-46372728D01*
X36969432Y-46372734D01*
X37099954Y-46559141D01*
X37260858Y-46720045D01*
X37260861Y-46720047D01*
X37447266Y-46850568D01*
X37653504Y-46946739D01*
X37873308Y-47005635D01*
X38035230Y-47019801D01*
X38099998Y-47025468D01*
X38100000Y-47025468D01*
X38100002Y-47025468D01*
X38156673Y-47020509D01*
X38326692Y-47005635D01*
X38546496Y-46946739D01*
X38752734Y-46850568D01*
X38939139Y-46720047D01*
X39100047Y-46559139D01*
X39230568Y-46372734D01*
X39257618Y-46314724D01*
X39303790Y-46262285D01*
X39370983Y-46243133D01*
X39437865Y-46263348D01*
X39482382Y-46314725D01*
X39509429Y-46372728D01*
X39509432Y-46372734D01*
X39639954Y-46559141D01*
X39800858Y-46720045D01*
X39800861Y-46720047D01*
X39987266Y-46850568D01*
X40193504Y-46946739D01*
X40413308Y-47005635D01*
X40575230Y-47019801D01*
X40639998Y-47025468D01*
X40640000Y-47025468D01*
X40640002Y-47025468D01*
X40696673Y-47020509D01*
X40866692Y-47005635D01*
X41086496Y-46946739D01*
X41292734Y-46850568D01*
X41479139Y-46720047D01*
X41640047Y-46559139D01*
X41770568Y-46372734D01*
X41866739Y-46166496D01*
X41925635Y-45946692D01*
X41945468Y-45720000D01*
X41925635Y-45493308D01*
X41866739Y-45273504D01*
X41770568Y-45067266D01*
X41662924Y-44913532D01*
X41640597Y-44847326D01*
X41640500Y-44842410D01*
X41640500Y-43129256D01*
X41625074Y-42977560D01*
X41564162Y-42783420D01*
X41564160Y-42783416D01*
X41564159Y-42783412D01*
X41465409Y-42605498D01*
X41465408Y-42605497D01*
X41465407Y-42605495D01*
X41332867Y-42451106D01*
X41332865Y-42451104D01*
X41171962Y-42326554D01*
X41171959Y-42326553D01*
X41171958Y-42326552D01*
X40989271Y-42236940D01*
X40989268Y-42236939D01*
X40946946Y-42225981D01*
X40886981Y-42190121D01*
X40855923Y-42127534D01*
X40863632Y-42058091D01*
X40907661Y-42003840D01*
X40945932Y-41986166D01*
X41103663Y-41943903D01*
X41317830Y-41844035D01*
X41511401Y-41708495D01*
X41678495Y-41541401D01*
X41814035Y-41347830D01*
X41913903Y-41133663D01*
X41975063Y-40905408D01*
X41995659Y-40670000D01*
X41975063Y-40434592D01*
X41913903Y-40206337D01*
X41814035Y-39992171D01*
X41793028Y-39962169D01*
X41678494Y-39798597D01*
X41511402Y-39631506D01*
X41511396Y-39631501D01*
X41325842Y-39501575D01*
X41282217Y-39446998D01*
X41275023Y-39377500D01*
X41306546Y-39315145D01*
X41325842Y-39298425D01*
X41368686Y-39268425D01*
X41511401Y-39168495D01*
X41678495Y-39001401D01*
X41814035Y-38807830D01*
X41913903Y-38593663D01*
X41975063Y-38365408D01*
X41995659Y-38130000D01*
X41975063Y-37894592D01*
X41913903Y-37666337D01*
X41814035Y-37452171D01*
X41793028Y-37422169D01*
X41678494Y-37258597D01*
X41511402Y-37091506D01*
X41511396Y-37091501D01*
X41325842Y-36961575D01*
X41282217Y-36906998D01*
X41275023Y-36837500D01*
X41306546Y-36775145D01*
X41325842Y-36758425D01*
X41368686Y-36728425D01*
X41511401Y-36628495D01*
X41678495Y-36461401D01*
X41814035Y-36267830D01*
X41913903Y-36053663D01*
X41975063Y-35825408D01*
X41995659Y-35590000D01*
X41975063Y-35354592D01*
X41913903Y-35126337D01*
X41814035Y-34912171D01*
X41793028Y-34882169D01*
X41678494Y-34718597D01*
X41511402Y-34551506D01*
X41511396Y-34551501D01*
X41325842Y-34421575D01*
X41282217Y-34366998D01*
X41275023Y-34297500D01*
X41306546Y-34235145D01*
X41325842Y-34218425D01*
X41425705Y-34148500D01*
X41511401Y-34088495D01*
X41678495Y-33921401D01*
X41814035Y-33727830D01*
X41913903Y-33513663D01*
X41975063Y-33285408D01*
X41995659Y-33050000D01*
X41993704Y-33027660D01*
X41975063Y-32814596D01*
X41975063Y-32814592D01*
X41913903Y-32586337D01*
X41814035Y-32372171D01*
X41782500Y-32327133D01*
X41678494Y-32178597D01*
X41511402Y-32011506D01*
X41511396Y-32011501D01*
X41325842Y-31881575D01*
X41282217Y-31826998D01*
X41275023Y-31757500D01*
X41306546Y-31695145D01*
X41325842Y-31678425D01*
X41368686Y-31648425D01*
X41511401Y-31548495D01*
X41678495Y-31381401D01*
X41814035Y-31187830D01*
X41913903Y-30973663D01*
X41975063Y-30745408D01*
X41995659Y-30510000D01*
X41975063Y-30274592D01*
X41913903Y-30046337D01*
X41814035Y-29832171D01*
X41793028Y-29802169D01*
X41678494Y-29638597D01*
X41511402Y-29471506D01*
X41511396Y-29471501D01*
X41325842Y-29341575D01*
X41282217Y-29286998D01*
X41275023Y-29217500D01*
X41306546Y-29155145D01*
X41325842Y-29138425D01*
X41368686Y-29108425D01*
X41511401Y-29008495D01*
X41678495Y-28841401D01*
X41814035Y-28647830D01*
X41913903Y-28433663D01*
X41975063Y-28205408D01*
X41995659Y-27970000D01*
X41975063Y-27734592D01*
X41913903Y-27506337D01*
X41814035Y-27292171D01*
X41793028Y-27262169D01*
X41678494Y-27098597D01*
X41511402Y-26931506D01*
X41511396Y-26931501D01*
X41325842Y-26801575D01*
X41282217Y-26746998D01*
X41275023Y-26677500D01*
X41306546Y-26615145D01*
X41325842Y-26598425D01*
X41348026Y-26582891D01*
X41511401Y-26468495D01*
X41678495Y-26301401D01*
X41814035Y-26107830D01*
X41913903Y-25893663D01*
X41975063Y-25665408D01*
X41995659Y-25430000D01*
X41975063Y-25194592D01*
X41913903Y-24966337D01*
X41814035Y-24752171D01*
X41678495Y-24558599D01*
X41678494Y-24558597D01*
X41511402Y-24391506D01*
X41511396Y-24391501D01*
X41325842Y-24261575D01*
X41282217Y-24206998D01*
X41275023Y-24137500D01*
X41306546Y-24075145D01*
X41325842Y-24058425D01*
X41360679Y-24034032D01*
X41511401Y-23928495D01*
X41678495Y-23761401D01*
X41814035Y-23567830D01*
X41913903Y-23353663D01*
X41975063Y-23125408D01*
X41995659Y-22890000D01*
X41975063Y-22654592D01*
X41913903Y-22426337D01*
X41814035Y-22212171D01*
X41793028Y-22182169D01*
X41678494Y-22018597D01*
X41511402Y-21851506D01*
X41511395Y-21851501D01*
X41317834Y-21715967D01*
X41317830Y-21715965D01*
X41253495Y-21685965D01*
X41103663Y-21616097D01*
X41103659Y-21616096D01*
X41103655Y-21616094D01*
X40875413Y-21554938D01*
X40875403Y-21554936D01*
X40640001Y-21534341D01*
X40639999Y-21534341D01*
X40404596Y-21554936D01*
X40404586Y-21554938D01*
X40176344Y-21616094D01*
X40176337Y-21616096D01*
X40176337Y-21616097D01*
X40162816Y-21622401D01*
X39962171Y-21715964D01*
X39962169Y-21715965D01*
X39768597Y-21851505D01*
X39601505Y-22018597D01*
X39465965Y-22212169D01*
X39465964Y-22212171D01*
X39366098Y-22426335D01*
X39366094Y-22426344D01*
X39304938Y-22654586D01*
X39304936Y-22654596D01*
X39284341Y-22889999D01*
X39284341Y-22890000D01*
X39304936Y-23125403D01*
X39304938Y-23125413D01*
X39366094Y-23353655D01*
X39366096Y-23353659D01*
X39366097Y-23353663D01*
X39451976Y-23537830D01*
X39465965Y-23567830D01*
X39465967Y-23567834D01*
X39548293Y-23685407D01*
X39580499Y-23731402D01*
X39601501Y-23761395D01*
X39601506Y-23761402D01*
X39768597Y-23928493D01*
X39768603Y-23928498D01*
X39954158Y-24058425D01*
X39997783Y-24113002D01*
X40004977Y-24182500D01*
X39973454Y-24244855D01*
X39954158Y-24261575D01*
X39768597Y-24391505D01*
X39601505Y-24558597D01*
X39465965Y-24752169D01*
X39465964Y-24752171D01*
X39366098Y-24966335D01*
X39366094Y-24966344D01*
X39304938Y-25194586D01*
X39304936Y-25194596D01*
X39284341Y-25429999D01*
X39284341Y-25430000D01*
X39304936Y-25665403D01*
X39304938Y-25665413D01*
X39366094Y-25893655D01*
X39366096Y-25893659D01*
X39366097Y-25893663D01*
X39465965Y-26107830D01*
X39465967Y-26107834D01*
X39601501Y-26301395D01*
X39601506Y-26301402D01*
X39768597Y-26468493D01*
X39768603Y-26468498D01*
X39954158Y-26598425D01*
X39997783Y-26653002D01*
X40004977Y-26722500D01*
X39973454Y-26784855D01*
X39954158Y-26801575D01*
X39764164Y-26934610D01*
X39762955Y-26932883D01*
X39707292Y-26957227D01*
X39690164Y-26958211D01*
X38230387Y-26940970D01*
X38061078Y-26938971D01*
X38061077Y-26938971D01*
X38061076Y-26938971D01*
X37909209Y-26952603D01*
X37909208Y-26952603D01*
X37714356Y-27011220D01*
X37714354Y-27011221D01*
X37535288Y-27107863D01*
X37535281Y-27107867D01*
X37379339Y-27238573D01*
X37252894Y-27397998D01*
X37161131Y-27579615D01*
X37161130Y-27579617D01*
X37107805Y-27775983D01*
X37095098Y-27979070D01*
X37123535Y-28180557D01*
X37191944Y-28372189D01*
X37191948Y-28372197D01*
X37297530Y-28546132D01*
X37297531Y-28546133D01*
X37297533Y-28546136D01*
X37435975Y-28695263D01*
X37435978Y-28695265D01*
X37435980Y-28695267D01*
X37601595Y-28813467D01*
X37601596Y-28813467D01*
X37601600Y-28813470D01*
X37787631Y-28895918D01*
X37986450Y-28939229D01*
X39669302Y-28959104D01*
X39736104Y-28979579D01*
X39755518Y-28995414D01*
X39768597Y-29008493D01*
X39768603Y-29008498D01*
X39954158Y-29138425D01*
X39997783Y-29193002D01*
X40004977Y-29262500D01*
X39973454Y-29324855D01*
X39954158Y-29341575D01*
X39764164Y-29474610D01*
X39762955Y-29472883D01*
X39707292Y-29497227D01*
X39690164Y-29498211D01*
X38230387Y-29480970D01*
X38061078Y-29478971D01*
X38061077Y-29478971D01*
X38061076Y-29478971D01*
X37909209Y-29492603D01*
X37909208Y-29492603D01*
X37714356Y-29551220D01*
X37714354Y-29551221D01*
X37535288Y-29647863D01*
X37535281Y-29647867D01*
X37379339Y-29778573D01*
X37252894Y-29937998D01*
X37161131Y-30119615D01*
X37161130Y-30119617D01*
X37107805Y-30315983D01*
X37095098Y-30519070D01*
X37123535Y-30720557D01*
X37191944Y-30912189D01*
X37191948Y-30912197D01*
X37297530Y-31086132D01*
X37297531Y-31086133D01*
X37297533Y-31086136D01*
X37435975Y-31235263D01*
X37435978Y-31235265D01*
X37435980Y-31235267D01*
X37601595Y-31353467D01*
X37601596Y-31353467D01*
X37601600Y-31353470D01*
X37787631Y-31435918D01*
X37986450Y-31479229D01*
X39669302Y-31499104D01*
X39736104Y-31519579D01*
X39755518Y-31535414D01*
X39768597Y-31548493D01*
X39768603Y-31548498D01*
X39954158Y-31678425D01*
X39997783Y-31733002D01*
X40004977Y-31802500D01*
X39973454Y-31864855D01*
X39954158Y-31881575D01*
X39768597Y-32011505D01*
X39601505Y-32178597D01*
X39465965Y-32372169D01*
X39465964Y-32372171D01*
X39366098Y-32586335D01*
X39366094Y-32586344D01*
X39304938Y-32814586D01*
X39304936Y-32814596D01*
X39284341Y-33049999D01*
X39284341Y-33050000D01*
X39304936Y-33285403D01*
X39304938Y-33285413D01*
X39366094Y-33513655D01*
X39366096Y-33513659D01*
X39366097Y-33513663D01*
X39456808Y-33708192D01*
X39465965Y-33727830D01*
X39465967Y-33727834D01*
X39601501Y-33921395D01*
X39601506Y-33921402D01*
X39768597Y-34088493D01*
X39768603Y-34088498D01*
X39954158Y-34218425D01*
X39997783Y-34273002D01*
X40004977Y-34342500D01*
X39973454Y-34404855D01*
X39954158Y-34421575D01*
X39764164Y-34554610D01*
X39762955Y-34552883D01*
X39707292Y-34577227D01*
X39690164Y-34578211D01*
X38230387Y-34560970D01*
X38061078Y-34558971D01*
X38061077Y-34558971D01*
X38061076Y-34558971D01*
X37909209Y-34572603D01*
X37909208Y-34572603D01*
X37714356Y-34631220D01*
X37714354Y-34631221D01*
X37535288Y-34727863D01*
X37535281Y-34727867D01*
X37379339Y-34858573D01*
X37252894Y-35017998D01*
X37161131Y-35199615D01*
X37161130Y-35199617D01*
X37107805Y-35395983D01*
X37095098Y-35599070D01*
X37123535Y-35800557D01*
X37191944Y-35992189D01*
X37191948Y-35992197D01*
X37297530Y-36166132D01*
X37297531Y-36166133D01*
X37297533Y-36166136D01*
X37435975Y-36315263D01*
X37435978Y-36315265D01*
X37435980Y-36315267D01*
X37601595Y-36433467D01*
X37601596Y-36433467D01*
X37601600Y-36433470D01*
X37787631Y-36515918D01*
X37986450Y-36559229D01*
X39669302Y-36579104D01*
X39736104Y-36599579D01*
X39755518Y-36615414D01*
X39768597Y-36628493D01*
X39768603Y-36628498D01*
X39954158Y-36758425D01*
X39997783Y-36813002D01*
X40004977Y-36882500D01*
X39973454Y-36944855D01*
X39954158Y-36961575D01*
X39768597Y-37091505D01*
X39766922Y-37093181D01*
X39766000Y-37093684D01*
X39764449Y-37094986D01*
X39764187Y-37094674D01*
X39705599Y-37126666D01*
X39679241Y-37129500D01*
X38362562Y-37129500D01*
X38328449Y-37124715D01*
X38313257Y-37120368D01*
X38277417Y-37110112D01*
X38074525Y-37094662D01*
X38074522Y-37094662D01*
X37872678Y-37120368D01*
X37872670Y-37120370D01*
X37680129Y-37186183D01*
X37680117Y-37186189D01*
X37504778Y-37289406D01*
X37504771Y-37289411D01*
X37353787Y-37425820D01*
X37353787Y-37425821D01*
X37233353Y-37589828D01*
X37233349Y-37589835D01*
X37148397Y-37774725D01*
X37148393Y-37774737D01*
X37102396Y-37972945D01*
X37097242Y-38176358D01*
X37133140Y-38376648D01*
X37133142Y-38376653D01*
X37207842Y-38563663D01*
X37208623Y-38565616D01*
X37208629Y-38565628D01*
X37320596Y-38735517D01*
X37320599Y-38735521D01*
X37392909Y-38807830D01*
X37413566Y-38828487D01*
X37474941Y-38893053D01*
X37474944Y-38893055D01*
X37474947Y-38893058D01*
X37525284Y-38928092D01*
X37529041Y-38930925D01*
X37576592Y-38969698D01*
X37607041Y-38985603D01*
X37613759Y-38989672D01*
X37641951Y-39009295D01*
X37641952Y-39009295D01*
X37641953Y-39009296D01*
X37641954Y-39009297D01*
X37666420Y-39019795D01*
X37698336Y-39033491D01*
X37702574Y-39035505D01*
X37756949Y-39063908D01*
X37756951Y-39063909D01*
X37789973Y-39073356D01*
X37797365Y-39075989D01*
X37828940Y-39089539D01*
X37828941Y-39089540D01*
X37842054Y-39092234D01*
X37889055Y-39101892D01*
X37893595Y-39103006D01*
X37952582Y-39119886D01*
X37986841Y-39122494D01*
X37994609Y-39123585D01*
X38028255Y-39130500D01*
X38028259Y-39130500D01*
X38089601Y-39130500D01*
X38094308Y-39130678D01*
X38130651Y-39133446D01*
X38155475Y-39135337D01*
X38155475Y-39135336D01*
X38155476Y-39135337D01*
X38189559Y-39130996D01*
X38197389Y-39130500D01*
X39679242Y-39130500D01*
X39746281Y-39150185D01*
X39766923Y-39166819D01*
X39768597Y-39168493D01*
X39768603Y-39168498D01*
X39954158Y-39298425D01*
X39997783Y-39353002D01*
X40004977Y-39422500D01*
X39973454Y-39484855D01*
X39954158Y-39501575D01*
X39768597Y-39631505D01*
X39766922Y-39633181D01*
X39766000Y-39633684D01*
X39764449Y-39634986D01*
X39764187Y-39634674D01*
X39705599Y-39666666D01*
X39679241Y-39669500D01*
X38362562Y-39669500D01*
X38328449Y-39664715D01*
X38313257Y-39660368D01*
X38277417Y-39650112D01*
X38074525Y-39634662D01*
X38074522Y-39634662D01*
X37872678Y-39660368D01*
X37872670Y-39660370D01*
X37680129Y-39726183D01*
X37680117Y-39726189D01*
X37504778Y-39829406D01*
X37504771Y-39829411D01*
X37353787Y-39965820D01*
X37353787Y-39965821D01*
X37233353Y-40129828D01*
X37233349Y-40129835D01*
X37148397Y-40314725D01*
X37148393Y-40314737D01*
X37104956Y-40501915D01*
X37070626Y-40562769D01*
X37008846Y-40595403D01*
X36939230Y-40589455D01*
X36896485Y-40561565D01*
X23576452Y-27241532D01*
X23515061Y-27176949D01*
X23515060Y-27176948D01*
X23515059Y-27176947D01*
X23487204Y-27157559D01*
X23464709Y-27141902D01*
X23460946Y-27139064D01*
X23413413Y-27100305D01*
X23413406Y-27100300D01*
X23382959Y-27084397D01*
X23376251Y-27080334D01*
X23348049Y-27060705D01*
X23348046Y-27060703D01*
X23348045Y-27060703D01*
X23348041Y-27060701D01*
X23291680Y-27036514D01*
X23287424Y-27034493D01*
X23233057Y-27006094D01*
X23233050Y-27006091D01*
X23233049Y-27006091D01*
X23227008Y-27004362D01*
X23200030Y-26996642D01*
X23192630Y-26994008D01*
X23161057Y-26980459D01*
X23161058Y-26980459D01*
X23100966Y-26968109D01*
X23096391Y-26966986D01*
X23037420Y-26950113D01*
X23037425Y-26950113D01*
X23003158Y-26947503D01*
X22995380Y-26946412D01*
X22961742Y-26939500D01*
X22961741Y-26939500D01*
X22900402Y-26939500D01*
X22895695Y-26939321D01*
X22890121Y-26938896D01*
X22834524Y-26934662D01*
X22814589Y-26937201D01*
X22800440Y-26939003D01*
X22792611Y-26939500D01*
X18740758Y-26939500D01*
X18673719Y-26919815D01*
X18653077Y-26903181D01*
X18651402Y-26901506D01*
X18651395Y-26901501D01*
X18457834Y-26765967D01*
X18457830Y-26765965D01*
X18364619Y-26722500D01*
X18243663Y-26666097D01*
X18243659Y-26666096D01*
X18243655Y-26666094D01*
X18015413Y-26604938D01*
X18015403Y-26604936D01*
X17780001Y-26584341D01*
X17779999Y-26584341D01*
X17544596Y-26604936D01*
X17544586Y-26604938D01*
X17316344Y-26666094D01*
X17316335Y-26666098D01*
X17102171Y-26765964D01*
X17102169Y-26765965D01*
X16908597Y-26901505D01*
X16741505Y-27068597D01*
X16605965Y-27262169D01*
X16605964Y-27262171D01*
X16506098Y-27476335D01*
X16506094Y-27476344D01*
X16444938Y-27704586D01*
X16444936Y-27704596D01*
X16424341Y-27939999D01*
X16424341Y-27940000D01*
X16444936Y-28175403D01*
X16444938Y-28175413D01*
X16506094Y-28403655D01*
X16506096Y-28403659D01*
X16506097Y-28403663D01*
X16605965Y-28617830D01*
X16605967Y-28617834D01*
X16741501Y-28811395D01*
X16741506Y-28811402D01*
X16908597Y-28978493D01*
X16908603Y-28978498D01*
X17094158Y-29108425D01*
X17137783Y-29163002D01*
X17144977Y-29232500D01*
X17113454Y-29294855D01*
X17094158Y-29311575D01*
X16908597Y-29441505D01*
X16741505Y-29608597D01*
X16605965Y-29802169D01*
X16605964Y-29802171D01*
X16506098Y-30016335D01*
X16506094Y-30016344D01*
X16444938Y-30244586D01*
X16444936Y-30244596D01*
X16424341Y-30479999D01*
X16424341Y-30480000D01*
X16444936Y-30715403D01*
X16444938Y-30715413D01*
X16506094Y-30943655D01*
X16506096Y-30943659D01*
X16506097Y-30943663D01*
X16605965Y-31157830D01*
X16605967Y-31157834D01*
X16741501Y-31351395D01*
X16741506Y-31351402D01*
X16908597Y-31518493D01*
X16908603Y-31518498D01*
X17094158Y-31648425D01*
X17137783Y-31703002D01*
X17144977Y-31772500D01*
X17113454Y-31834855D01*
X17094158Y-31851575D01*
X16908597Y-31981505D01*
X16906922Y-31983181D01*
X16906000Y-31983684D01*
X16904449Y-31984986D01*
X16904187Y-31984674D01*
X16845599Y-32016666D01*
X16819241Y-32019500D01*
X15915435Y-32019500D01*
X15826355Y-32017243D01*
X15826346Y-32017243D01*
X15773354Y-32026741D01*
X15765972Y-32028064D01*
X15761313Y-32028718D01*
X15700282Y-32034925D01*
X15700280Y-32034926D01*
X15667498Y-32045210D01*
X15659874Y-32047081D01*
X15652026Y-32048488D01*
X15626067Y-32053141D01*
X15626059Y-32053143D01*
X15569100Y-32075895D01*
X15564664Y-32077474D01*
X15506133Y-32095840D01*
X15506130Y-32095841D01*
X15506128Y-32095842D01*
X15506121Y-32095845D01*
X15476102Y-32112507D01*
X15469008Y-32115876D01*
X15437108Y-32128619D01*
X15437106Y-32128619D01*
X15437101Y-32128622D01*
X15437095Y-32128626D01*
X15385872Y-32162383D01*
X15381844Y-32164824D01*
X15328220Y-32194588D01*
X15328217Y-32194590D01*
X15302145Y-32216970D01*
X15295878Y-32221695D01*
X15267200Y-32240598D01*
X15267193Y-32240603D01*
X15223834Y-32283962D01*
X15220379Y-32287164D01*
X15173824Y-32327132D01*
X15173823Y-32327133D01*
X15152794Y-32354300D01*
X15147602Y-32360194D01*
X14541532Y-32966264D01*
X14476946Y-33027660D01*
X14441899Y-33078012D01*
X14439062Y-33081774D01*
X14400302Y-33129310D01*
X14400299Y-33129315D01*
X14384392Y-33159765D01*
X14380324Y-33166479D01*
X14360702Y-33194672D01*
X14336509Y-33251048D01*
X14334488Y-33255302D01*
X14306091Y-33309669D01*
X14306090Y-33309670D01*
X14296640Y-33342693D01*
X14294007Y-33350089D01*
X14280459Y-33381661D01*
X14268113Y-33441737D01*
X14266990Y-33446313D01*
X14250113Y-33505295D01*
X14250113Y-33505297D01*
X14247503Y-33539559D01*
X14246414Y-33547326D01*
X14240980Y-33573770D01*
X14239500Y-33580976D01*
X14239500Y-33642315D01*
X14239321Y-33647024D01*
X14234662Y-33708192D01*
X12700000Y-33708192D01*
X12700000Y-22860000D01*
X16424341Y-22860000D01*
X16444936Y-23095403D01*
X16444938Y-23095413D01*
X16506094Y-23323655D01*
X16506096Y-23323659D01*
X16506097Y-23323663D01*
X16605965Y-23537830D01*
X16605967Y-23537834D01*
X16709300Y-23685407D01*
X16741505Y-23731401D01*
X16908599Y-23898495D01*
X16951448Y-23928498D01*
X17102165Y-24034032D01*
X17102167Y-24034033D01*
X17102170Y-24034035D01*
X17316337Y-24133903D01*
X17544592Y-24195063D01*
X17732918Y-24211539D01*
X17779999Y-24215659D01*
X17780000Y-24215659D01*
X17780001Y-24215659D01*
X17819234Y-24212226D01*
X18015408Y-24195063D01*
X18243663Y-24133903D01*
X18457830Y-24034035D01*
X18651401Y-23898495D01*
X18653077Y-23896819D01*
X18653995Y-23896317D01*
X18655544Y-23895018D01*
X18655805Y-23895329D01*
X18714400Y-23863334D01*
X18740758Y-23860500D01*
X25450743Y-23860500D01*
X25602439Y-23845074D01*
X25796579Y-23784162D01*
X25796580Y-23784161D01*
X25796588Y-23784159D01*
X25974502Y-23685409D01*
X26128895Y-23552866D01*
X26253448Y-23391958D01*
X26343060Y-23209271D01*
X26394063Y-23012285D01*
X26404369Y-22809064D01*
X26373556Y-22607929D01*
X26306302Y-22426337D01*
X26302888Y-22417118D01*
X26302887Y-22417117D01*
X26302886Y-22417113D01*
X26195252Y-22244429D01*
X26055059Y-22096947D01*
X25899391Y-21988599D01*
X25888050Y-21980705D01*
X25794553Y-21940582D01*
X25701058Y-21900460D01*
X25681815Y-21896505D01*
X25659152Y-21891848D01*
X25597448Y-21859070D01*
X25563259Y-21798137D01*
X25567441Y-21728392D01*
X25608666Y-21671981D01*
X25652018Y-21650612D01*
X25863663Y-21593903D01*
X26077830Y-21494035D01*
X26271401Y-21358495D01*
X26438495Y-21191401D01*
X26568425Y-21005842D01*
X26623002Y-20962217D01*
X26692500Y-20955023D01*
X26754855Y-20986546D01*
X26771575Y-21005842D01*
X26901500Y-21191395D01*
X26901505Y-21191401D01*
X27068599Y-21358495D01*
X27165384Y-21426265D01*
X27262165Y-21494032D01*
X27262167Y-21494033D01*
X27262170Y-21494035D01*
X27476337Y-21593903D01*
X27704592Y-21655063D01*
X27892918Y-21671539D01*
X27939999Y-21675659D01*
X27940000Y-21675659D01*
X27940001Y-21675659D01*
X27982039Y-21671981D01*
X28175408Y-21655063D01*
X28403663Y-21593903D01*
X28617830Y-21494035D01*
X28811401Y-21358495D01*
X28978495Y-21191401D01*
X29108425Y-21005842D01*
X29163002Y-20962217D01*
X29232500Y-20955023D01*
X29294855Y-20986546D01*
X29311575Y-21005842D01*
X29441500Y-21191395D01*
X29441505Y-21191401D01*
X29608599Y-21358495D01*
X29705384Y-21426265D01*
X29802165Y-21494032D01*
X29802167Y-21494033D01*
X29802170Y-21494035D01*
X30016337Y-21593903D01*
X30244592Y-21655063D01*
X30432918Y-21671539D01*
X30479999Y-21675659D01*
X30480000Y-21675659D01*
X30480001Y-21675659D01*
X30522039Y-21671981D01*
X30715408Y-21655063D01*
X30943663Y-21593903D01*
X31157830Y-21494035D01*
X31351401Y-21358495D01*
X31518495Y-21191401D01*
X31648425Y-21005842D01*
X31703002Y-20962217D01*
X31772500Y-20955023D01*
X31834855Y-20986546D01*
X31851575Y-21005842D01*
X31981500Y-21191395D01*
X31981505Y-21191401D01*
X32148599Y-21358495D01*
X32245384Y-21426265D01*
X32342165Y-21494032D01*
X32342167Y-21494033D01*
X32342170Y-21494035D01*
X32556337Y-21593903D01*
X32784592Y-21655063D01*
X32972918Y-21671539D01*
X33019999Y-21675659D01*
X33020000Y-21675659D01*
X33020001Y-21675659D01*
X33062039Y-21671981D01*
X33255408Y-21655063D01*
X33483663Y-21593903D01*
X33697830Y-21494035D01*
X33891401Y-21358495D01*
X34058495Y-21191401D01*
X34188425Y-21005842D01*
X34243002Y-20962217D01*
X34312500Y-20955023D01*
X34374855Y-20986546D01*
X34391575Y-21005842D01*
X34521500Y-21191395D01*
X34521505Y-21191401D01*
X34688599Y-21358495D01*
X34785384Y-21426265D01*
X34882165Y-21494032D01*
X34882167Y-21494033D01*
X34882170Y-21494035D01*
X35096337Y-21593903D01*
X35324592Y-21655063D01*
X35512918Y-21671539D01*
X35559999Y-21675659D01*
X35560000Y-21675659D01*
X35560001Y-21675659D01*
X35602039Y-21671981D01*
X35795408Y-21655063D01*
X36023663Y-21593903D01*
X36237830Y-21494035D01*
X36431401Y-21358495D01*
X36598495Y-21191401D01*
X36728425Y-21005842D01*
X36783002Y-20962217D01*
X36852500Y-20955023D01*
X36914855Y-20986546D01*
X36931575Y-21005842D01*
X37061500Y-21191395D01*
X37061505Y-21191401D01*
X37228599Y-21358495D01*
X37325384Y-21426265D01*
X37422165Y-21494032D01*
X37422167Y-21494033D01*
X37422170Y-21494035D01*
X37636337Y-21593903D01*
X37864592Y-21655063D01*
X38052918Y-21671539D01*
X38099999Y-21675659D01*
X38100000Y-21675659D01*
X38100001Y-21675659D01*
X38142039Y-21671981D01*
X38335408Y-21655063D01*
X38563663Y-21593903D01*
X38777830Y-21494035D01*
X38971401Y-21358495D01*
X39138495Y-21191401D01*
X39274035Y-20997830D01*
X39373903Y-20783663D01*
X39435063Y-20555408D01*
X39455659Y-20320000D01*
X39435063Y-20084592D01*
X39373903Y-19856337D01*
X39274035Y-19642171D01*
X39268425Y-19634158D01*
X39138494Y-19448597D01*
X38971402Y-19281506D01*
X38971395Y-19281501D01*
X38777834Y-19145967D01*
X38777830Y-19145965D01*
X38777828Y-19145964D01*
X38563663Y-19046097D01*
X38563659Y-19046096D01*
X38563655Y-19046094D01*
X38335413Y-18984938D01*
X38335403Y-18984936D01*
X38100001Y-18964341D01*
X38099999Y-18964341D01*
X37864596Y-18984936D01*
X37864586Y-18984938D01*
X37636344Y-19046094D01*
X37636335Y-19046098D01*
X37422171Y-19145964D01*
X37422169Y-19145965D01*
X37228597Y-19281505D01*
X37061505Y-19448597D01*
X36931575Y-19634158D01*
X36876998Y-19677783D01*
X36807500Y-19684977D01*
X36745145Y-19653454D01*
X36728425Y-19634158D01*
X36598494Y-19448597D01*
X36431402Y-19281506D01*
X36431395Y-19281501D01*
X36237834Y-19145967D01*
X36237830Y-19145965D01*
X36237828Y-19145964D01*
X36023663Y-19046097D01*
X36023659Y-19046096D01*
X36023655Y-19046094D01*
X35795413Y-18984938D01*
X35795403Y-18984936D01*
X35560001Y-18964341D01*
X35559999Y-18964341D01*
X35324596Y-18984936D01*
X35324586Y-18984938D01*
X35096344Y-19046094D01*
X35096335Y-19046098D01*
X34882171Y-19145964D01*
X34882169Y-19145965D01*
X34688597Y-19281505D01*
X34521505Y-19448597D01*
X34391575Y-19634158D01*
X34336998Y-19677783D01*
X34267500Y-19684977D01*
X34205145Y-19653454D01*
X34188425Y-19634158D01*
X34058494Y-19448597D01*
X33891402Y-19281506D01*
X33891395Y-19281501D01*
X33697834Y-19145967D01*
X33697830Y-19145965D01*
X33697828Y-19145964D01*
X33483663Y-19046097D01*
X33483659Y-19046096D01*
X33483655Y-19046094D01*
X33255413Y-18984938D01*
X33255403Y-18984936D01*
X33020001Y-18964341D01*
X33019999Y-18964341D01*
X32784596Y-18984936D01*
X32784586Y-18984938D01*
X32556344Y-19046094D01*
X32556335Y-19046098D01*
X32342171Y-19145964D01*
X32342169Y-19145965D01*
X32148597Y-19281505D01*
X31981505Y-19448597D01*
X31851575Y-19634158D01*
X31796998Y-19677783D01*
X31727500Y-19684977D01*
X31665145Y-19653454D01*
X31648425Y-19634158D01*
X31518494Y-19448597D01*
X31351402Y-19281506D01*
X31351395Y-19281501D01*
X31157834Y-19145967D01*
X31157830Y-19145965D01*
X31157828Y-19145964D01*
X30943663Y-19046097D01*
X30943659Y-19046096D01*
X30943655Y-19046094D01*
X30715413Y-18984938D01*
X30715403Y-18984936D01*
X30480001Y-18964341D01*
X30479999Y-18964341D01*
X30244596Y-18984936D01*
X30244586Y-18984938D01*
X30016344Y-19046094D01*
X30016335Y-19046098D01*
X29802171Y-19145964D01*
X29802169Y-19145965D01*
X29608597Y-19281505D01*
X29441505Y-19448597D01*
X29311575Y-19634158D01*
X29256998Y-19677783D01*
X29187500Y-19684977D01*
X29125145Y-19653454D01*
X29108425Y-19634158D01*
X28978494Y-19448597D01*
X28811402Y-19281506D01*
X28811395Y-19281501D01*
X28617834Y-19145967D01*
X28617830Y-19145965D01*
X28617828Y-19145964D01*
X28403663Y-19046097D01*
X28403659Y-19046096D01*
X28403655Y-19046094D01*
X28175413Y-18984938D01*
X28175403Y-18984936D01*
X27940001Y-18964341D01*
X27939999Y-18964341D01*
X27704596Y-18984936D01*
X27704586Y-18984938D01*
X27476344Y-19046094D01*
X27476335Y-19046098D01*
X27262171Y-19145964D01*
X27262169Y-19145965D01*
X27068597Y-19281505D01*
X26901505Y-19448597D01*
X26771575Y-19634158D01*
X26716998Y-19677783D01*
X26647500Y-19684977D01*
X26585145Y-19653454D01*
X26568425Y-19634158D01*
X26438494Y-19448597D01*
X26271402Y-19281506D01*
X26271395Y-19281501D01*
X26077834Y-19145967D01*
X26077830Y-19145965D01*
X26077828Y-19145964D01*
X25863663Y-19046097D01*
X25863659Y-19046096D01*
X25863655Y-19046094D01*
X25635413Y-18984938D01*
X25635403Y-18984936D01*
X25400001Y-18964341D01*
X25399999Y-18964341D01*
X25164596Y-18984936D01*
X25164586Y-18984938D01*
X24936344Y-19046094D01*
X24936335Y-19046098D01*
X24722171Y-19145964D01*
X24722169Y-19145965D01*
X24528597Y-19281505D01*
X24361505Y-19448597D01*
X24225965Y-19642169D01*
X24225964Y-19642171D01*
X24126098Y-19856335D01*
X24126094Y-19856344D01*
X24064938Y-20084586D01*
X24064936Y-20084596D01*
X24044341Y-20319999D01*
X24044341Y-20320000D01*
X24064936Y-20555403D01*
X24064938Y-20555413D01*
X24126094Y-20783655D01*
X24126096Y-20783659D01*
X24126097Y-20783663D01*
X24130000Y-20792032D01*
X24225965Y-20997830D01*
X24225967Y-20997834D01*
X24334281Y-21152521D01*
X24361505Y-21191401D01*
X24528599Y-21358495D01*
X24625384Y-21426265D01*
X24722165Y-21494032D01*
X24722167Y-21494033D01*
X24722170Y-21494035D01*
X24936337Y-21593903D01*
X24936343Y-21593904D01*
X24936344Y-21593905D01*
X25017778Y-21615725D01*
X25077439Y-21652090D01*
X25107968Y-21714937D01*
X25099674Y-21784312D01*
X25055188Y-21838190D01*
X24988636Y-21859465D01*
X24985685Y-21859500D01*
X20734315Y-21859500D01*
X20667276Y-21839815D01*
X20621521Y-21787011D01*
X20611577Y-21717853D01*
X20640602Y-21654297D01*
X20699380Y-21616523D01*
X20702222Y-21615725D01*
X20751039Y-21602644D01*
X20783663Y-21593903D01*
X20997830Y-21494035D01*
X21191401Y-21358495D01*
X21358495Y-21191401D01*
X21494035Y-20997830D01*
X21593903Y-20783663D01*
X21655063Y-20555408D01*
X21675659Y-20320000D01*
X21655063Y-20084592D01*
X21593903Y-19856337D01*
X21494035Y-19642171D01*
X21488425Y-19634158D01*
X21358494Y-19448597D01*
X21191402Y-19281506D01*
X21191395Y-19281501D01*
X20997834Y-19145967D01*
X20997830Y-19145965D01*
X20997828Y-19145964D01*
X20783663Y-19046097D01*
X20783659Y-19046096D01*
X20783655Y-19046094D01*
X20555413Y-18984938D01*
X20555403Y-18984936D01*
X20320001Y-18964341D01*
X20319999Y-18964341D01*
X20084596Y-18984936D01*
X20084586Y-18984938D01*
X19856344Y-19046094D01*
X19856335Y-19046098D01*
X19642171Y-19145964D01*
X19642169Y-19145965D01*
X19448597Y-19281505D01*
X19281505Y-19448597D01*
X19145965Y-19642169D01*
X19145964Y-19642171D01*
X19046098Y-19856335D01*
X19046094Y-19856344D01*
X18984938Y-20084586D01*
X18984936Y-20084596D01*
X18964341Y-20319999D01*
X18964341Y-20320000D01*
X18984936Y-20555403D01*
X18984938Y-20555413D01*
X19046094Y-20783655D01*
X19046096Y-20783659D01*
X19046097Y-20783663D01*
X19050000Y-20792032D01*
X19145965Y-20997830D01*
X19145967Y-20997834D01*
X19254281Y-21152521D01*
X19281505Y-21191401D01*
X19448599Y-21358495D01*
X19545384Y-21426265D01*
X19642165Y-21494032D01*
X19642167Y-21494033D01*
X19642170Y-21494035D01*
X19856337Y-21593903D01*
X19856343Y-21593904D01*
X19856344Y-21593905D01*
X19937778Y-21615725D01*
X19997439Y-21652090D01*
X20027968Y-21714937D01*
X20019674Y-21784312D01*
X19975188Y-21838190D01*
X19908636Y-21859465D01*
X19905685Y-21859500D01*
X18740758Y-21859500D01*
X18673719Y-21839815D01*
X18653077Y-21823181D01*
X18651402Y-21821506D01*
X18651395Y-21821501D01*
X18457834Y-21685967D01*
X18457830Y-21685965D01*
X18427841Y-21671981D01*
X18243663Y-21586097D01*
X18243659Y-21586096D01*
X18243655Y-21586094D01*
X18015413Y-21524938D01*
X18015403Y-21524936D01*
X17780001Y-21504341D01*
X17779999Y-21504341D01*
X17544596Y-21524936D01*
X17544586Y-21524938D01*
X17316344Y-21586094D01*
X17316335Y-21586098D01*
X17102171Y-21685964D01*
X17102169Y-21685965D01*
X16908597Y-21821505D01*
X16741505Y-21988597D01*
X16605965Y-22182169D01*
X16605964Y-22182171D01*
X16506098Y-22396335D01*
X16506094Y-22396344D01*
X16444938Y-22624586D01*
X16444936Y-22624596D01*
X16424341Y-22859999D01*
X16424341Y-22860000D01*
X12700000Y-22860000D01*
X12700000Y-15307763D01*
X13385787Y-15307763D01*
X13415413Y-15577013D01*
X13415415Y-15577024D01*
X13483926Y-15839082D01*
X13483928Y-15839088D01*
X13589870Y-16088390D01*
X13661998Y-16206575D01*
X13730979Y-16319605D01*
X13730986Y-16319615D01*
X13904253Y-16527819D01*
X13904259Y-16527824D01*
X14105998Y-16708582D01*
X14331910Y-16858044D01*
X14577176Y-16973020D01*
X14577183Y-16973022D01*
X14577185Y-16973023D01*
X14836557Y-17051057D01*
X14836564Y-17051058D01*
X14836569Y-17051060D01*
X15104561Y-17090500D01*
X15104566Y-17090500D01*
X15307636Y-17090500D01*
X15359133Y-17086730D01*
X15510156Y-17075677D01*
X15622758Y-17050593D01*
X15774546Y-17016782D01*
X15774548Y-17016781D01*
X15774553Y-17016780D01*
X16027558Y-16920014D01*
X16263777Y-16787441D01*
X16478177Y-16621888D01*
X16666186Y-16426881D01*
X16823799Y-16206579D01*
X16897787Y-16062669D01*
X16947649Y-15965690D01*
X16947651Y-15965684D01*
X16947656Y-15965675D01*
X17035118Y-15709305D01*
X17084319Y-15442933D01*
X17089259Y-15307763D01*
X38785787Y-15307763D01*
X38815413Y-15577013D01*
X38815415Y-15577024D01*
X38883926Y-15839082D01*
X38883928Y-15839088D01*
X38989870Y-16088390D01*
X39061998Y-16206575D01*
X39130979Y-16319605D01*
X39130986Y-16319615D01*
X39304253Y-16527819D01*
X39304259Y-16527824D01*
X39505998Y-16708582D01*
X39731910Y-16858044D01*
X39977176Y-16973020D01*
X39977183Y-16973022D01*
X39977185Y-16973023D01*
X40236557Y-17051057D01*
X40236564Y-17051058D01*
X40236569Y-17051060D01*
X40504561Y-17090500D01*
X40504566Y-17090500D01*
X40707636Y-17090500D01*
X40759133Y-17086730D01*
X40910156Y-17075677D01*
X41022758Y-17050593D01*
X41174546Y-17016782D01*
X41174548Y-17016781D01*
X41174553Y-17016780D01*
X41427558Y-16920014D01*
X41663777Y-16787441D01*
X41878177Y-16621888D01*
X42066186Y-16426881D01*
X42223799Y-16206579D01*
X42297787Y-16062669D01*
X42347649Y-15965690D01*
X42347651Y-15965684D01*
X42347656Y-15965675D01*
X42435118Y-15709305D01*
X42484319Y-15442933D01*
X42494212Y-15172235D01*
X42464586Y-14902982D01*
X42396072Y-14640912D01*
X42290130Y-14391610D01*
X42149018Y-14160390D01*
X42059747Y-14053119D01*
X41975746Y-13952180D01*
X41975740Y-13952175D01*
X41774002Y-13771418D01*
X41548092Y-13621957D01*
X41548090Y-13621956D01*
X41302824Y-13506980D01*
X41302819Y-13506978D01*
X41302814Y-13506976D01*
X41043442Y-13428942D01*
X41043428Y-13428939D01*
X40927791Y-13411921D01*
X40775439Y-13389500D01*
X40572369Y-13389500D01*
X40572364Y-13389500D01*
X40369844Y-13404323D01*
X40369831Y-13404325D01*
X40105453Y-13463217D01*
X40105446Y-13463220D01*
X39852439Y-13559987D01*
X39616226Y-13692557D01*
X39401822Y-13858112D01*
X39213822Y-14053109D01*
X39213816Y-14053116D01*
X39056202Y-14273419D01*
X39056199Y-14273424D01*
X38932350Y-14514309D01*
X38932343Y-14514327D01*
X38844884Y-14770685D01*
X38844881Y-14770699D01*
X38795681Y-15037068D01*
X38795680Y-15037075D01*
X38785787Y-15307763D01*
X17089259Y-15307763D01*
X17094212Y-15172235D01*
X17064586Y-14902982D01*
X16996072Y-14640912D01*
X16890130Y-14391610D01*
X16749018Y-14160390D01*
X16659747Y-14053119D01*
X16575746Y-13952180D01*
X16575740Y-13952175D01*
X16374002Y-13771418D01*
X16148092Y-13621957D01*
X16148090Y-13621956D01*
X15902824Y-13506980D01*
X15902819Y-13506978D01*
X15902814Y-13506976D01*
X15643442Y-13428942D01*
X15643428Y-13428939D01*
X15527791Y-13411921D01*
X15375439Y-13389500D01*
X15172369Y-13389500D01*
X15172364Y-13389500D01*
X14969844Y-13404323D01*
X14969831Y-13404325D01*
X14705453Y-13463217D01*
X14705446Y-13463220D01*
X14452439Y-13559987D01*
X14216226Y-13692557D01*
X14001822Y-13858112D01*
X13813822Y-14053109D01*
X13813816Y-14053116D01*
X13656202Y-14273419D01*
X13656199Y-14273424D01*
X13532350Y-14514309D01*
X13532343Y-14514327D01*
X13444884Y-14770685D01*
X13444881Y-14770699D01*
X13395681Y-15037068D01*
X13395680Y-15037075D01*
X13385787Y-15307763D01*
X12700000Y-15307763D01*
X12700000Y-12824000D01*
X12719685Y-12756961D01*
X12772489Y-12711206D01*
X12824000Y-12700000D01*
X43056000Y-12700000D01*
X43123039Y-12719685D01*
G37*
%TD.AperFunction*%
%TD*%
%TA.AperFunction,NonConductor*%
G36*
X19921256Y-31500185D02*
G01*
X19941898Y-31516819D01*
X20232898Y-31807819D01*
X20266383Y-31869142D01*
X20261399Y-31938834D01*
X20219527Y-31994767D01*
X20154063Y-32019184D01*
X20145217Y-32019500D01*
X18740758Y-32019500D01*
X18673719Y-31999815D01*
X18653077Y-31983181D01*
X18651402Y-31981506D01*
X18651396Y-31981501D01*
X18465842Y-31851575D01*
X18422217Y-31796998D01*
X18415023Y-31727500D01*
X18446546Y-31665145D01*
X18465842Y-31648425D01*
X18608552Y-31548498D01*
X18651401Y-31518495D01*
X18653077Y-31516819D01*
X18653995Y-31516317D01*
X18655544Y-31515018D01*
X18655805Y-31515329D01*
X18714400Y-31483334D01*
X18740758Y-31480500D01*
X19854217Y-31480500D01*
X19921256Y-31500185D01*
G37*
%TD.AperFunction*%
%TA.AperFunction,NonConductor*%
G36*
X20339936Y-34040185D02*
G01*
X20360578Y-34056819D01*
X20651578Y-34347819D01*
X20685063Y-34409142D01*
X20680079Y-34478834D01*
X20638207Y-34534767D01*
X20572743Y-34559184D01*
X20563897Y-34559500D01*
X18740758Y-34559500D01*
X18673719Y-34539815D01*
X18653077Y-34523181D01*
X18651402Y-34521506D01*
X18651396Y-34521501D01*
X18465842Y-34391575D01*
X18422217Y-34336998D01*
X18415023Y-34267500D01*
X18446546Y-34205145D01*
X18465842Y-34188425D01*
X18608552Y-34088498D01*
X18651401Y-34058495D01*
X18653077Y-34056819D01*
X18653995Y-34056317D01*
X18655544Y-34055018D01*
X18655805Y-34055329D01*
X18714400Y-34023334D01*
X18740758Y-34020500D01*
X20272897Y-34020500D01*
X20339936Y-34040185D01*
G37*
%TD.AperFunction*%
%TA.AperFunction,NonConductor*%
G36*
X16886281Y-34040185D02*
G01*
X16906923Y-34056819D01*
X16908597Y-34058493D01*
X16908603Y-34058498D01*
X17094158Y-34188425D01*
X17137783Y-34243002D01*
X17144977Y-34312500D01*
X17113454Y-34374855D01*
X17094158Y-34391575D01*
X16908597Y-34521505D01*
X16741505Y-34688597D01*
X16605965Y-34882169D01*
X16605964Y-34882171D01*
X16506098Y-35096335D01*
X16506094Y-35096344D01*
X16484275Y-35177778D01*
X16447910Y-35237439D01*
X16385063Y-35267968D01*
X16315688Y-35259674D01*
X16261810Y-35215188D01*
X16240535Y-35148636D01*
X16240500Y-35145685D01*
X16240500Y-34148500D01*
X16260185Y-34081461D01*
X16276819Y-34060819D01*
X16280819Y-34056819D01*
X16342142Y-34023334D01*
X16368500Y-34020500D01*
X16819242Y-34020500D01*
X16886281Y-34040185D01*
G37*
%TD.AperFunction*%
%TA.AperFunction,NonConductor*%
G36*
X20758616Y-36580185D02*
G01*
X20779258Y-36596819D01*
X21363181Y-37180742D01*
X21396666Y-37242065D01*
X21399500Y-37268423D01*
X21399500Y-37465217D01*
X21379815Y-37532256D01*
X21327011Y-37578011D01*
X21257853Y-37587955D01*
X21194297Y-37558930D01*
X21187819Y-37552898D01*
X21036452Y-37401532D01*
X20975061Y-37336949D01*
X20975060Y-37336948D01*
X20975059Y-37336947D01*
X20947204Y-37317559D01*
X20924709Y-37301902D01*
X20920946Y-37299064D01*
X20873413Y-37260305D01*
X20873406Y-37260300D01*
X20842959Y-37244397D01*
X20836251Y-37240334D01*
X20808049Y-37220705D01*
X20808046Y-37220703D01*
X20808045Y-37220703D01*
X20808041Y-37220701D01*
X20751680Y-37196514D01*
X20747424Y-37194493D01*
X20693057Y-37166094D01*
X20693050Y-37166091D01*
X20693049Y-37166091D01*
X20687008Y-37164362D01*
X20660030Y-37156642D01*
X20652630Y-37154008D01*
X20621057Y-37140459D01*
X20621058Y-37140459D01*
X20560966Y-37128109D01*
X20556391Y-37126986D01*
X20497420Y-37110113D01*
X20497425Y-37110113D01*
X20463158Y-37107503D01*
X20455380Y-37106412D01*
X20421742Y-37099500D01*
X20421741Y-37099500D01*
X20360402Y-37099500D01*
X20355695Y-37099321D01*
X20350121Y-37098896D01*
X20294524Y-37094662D01*
X20274589Y-37097201D01*
X20260440Y-37099003D01*
X20252611Y-37099500D01*
X18740758Y-37099500D01*
X18673719Y-37079815D01*
X18653077Y-37063181D01*
X18651402Y-37061506D01*
X18651396Y-37061501D01*
X18465842Y-36931575D01*
X18422217Y-36876998D01*
X18415023Y-36807500D01*
X18446546Y-36745145D01*
X18465842Y-36728425D01*
X18608552Y-36628498D01*
X18651401Y-36598495D01*
X18653077Y-36596819D01*
X18653995Y-36596317D01*
X18655544Y-36595018D01*
X18655805Y-36595329D01*
X18714400Y-36563334D01*
X18740758Y-36560500D01*
X20691577Y-36560500D01*
X20758616Y-36580185D01*
G37*
%TD.AperFunction*%
%TA.AperFunction,NonConductor*%
G36*
X16445703Y-35880601D02*
G01*
X16483477Y-35939379D01*
X16484275Y-35942221D01*
X16506094Y-36023655D01*
X16506096Y-36023659D01*
X16506097Y-36023663D01*
X16605965Y-36237830D01*
X16605967Y-36237834D01*
X16741501Y-36431395D01*
X16741506Y-36431402D01*
X16908597Y-36598493D01*
X16908603Y-36598498D01*
X17094158Y-36728425D01*
X17137783Y-36783002D01*
X17144977Y-36852500D01*
X17113454Y-36914855D01*
X17094158Y-36931575D01*
X16908597Y-37061505D01*
X16741505Y-37228597D01*
X16605965Y-37422169D01*
X16605964Y-37422171D01*
X16506098Y-37636335D01*
X16506094Y-37636344D01*
X16484275Y-37717778D01*
X16447910Y-37777439D01*
X16385063Y-37807968D01*
X16315688Y-37799674D01*
X16261810Y-37755188D01*
X16240535Y-37688636D01*
X16240500Y-37685685D01*
X16240500Y-35974314D01*
X16260185Y-35907275D01*
X16312989Y-35861520D01*
X16382147Y-35851576D01*
X16445703Y-35880601D01*
G37*
%TD.AperFunction*%
%TA.AperFunction,NonConductor*%
G36*
X16445703Y-38420601D02*
G01*
X16483477Y-38479379D01*
X16484275Y-38482221D01*
X16506094Y-38563655D01*
X16506096Y-38563659D01*
X16506097Y-38563663D01*
X16520087Y-38593664D01*
X16605965Y-38777830D01*
X16605967Y-38777834D01*
X16711180Y-38928092D01*
X16740310Y-38969695D01*
X16741501Y-38971395D01*
X16741506Y-38971402D01*
X16908597Y-39138493D01*
X16908603Y-39138498D01*
X17094158Y-39268425D01*
X17137783Y-39323002D01*
X17144977Y-39392500D01*
X17113454Y-39454855D01*
X17094158Y-39471575D01*
X16908597Y-39601505D01*
X16741505Y-39768597D01*
X16605965Y-39962169D01*
X16605964Y-39962171D01*
X16506098Y-40176335D01*
X16506094Y-40176344D01*
X16484275Y-40257778D01*
X16447910Y-40317439D01*
X16385063Y-40347968D01*
X16315688Y-40339674D01*
X16261810Y-40295188D01*
X16240535Y-40228636D01*
X16240500Y-40225685D01*
X16240500Y-38514314D01*
X16260185Y-38447275D01*
X16312989Y-38401520D01*
X16382147Y-38391576D01*
X16445703Y-38420601D01*
G37*
%TD.AperFunction*%
%TA.AperFunction,NonConductor*%
G36*
X19842539Y-39120185D02*
G01*
X19888294Y-39172989D01*
X19899500Y-39224500D01*
X19899500Y-40430752D01*
X19879815Y-40497791D01*
X19863181Y-40518433D01*
X19299125Y-41082488D01*
X19237802Y-41115973D01*
X19168110Y-41110989D01*
X19112177Y-41069117D01*
X19087760Y-41003653D01*
X19091668Y-40962718D01*
X19115063Y-40875408D01*
X19135659Y-40640000D01*
X19115063Y-40404592D01*
X19053903Y-40176337D01*
X18954035Y-39962171D01*
X18861076Y-39829410D01*
X18818494Y-39768597D01*
X18651402Y-39601506D01*
X18651396Y-39601501D01*
X18465842Y-39471575D01*
X18422217Y-39416998D01*
X18415023Y-39347500D01*
X18446546Y-39285145D01*
X18465842Y-39268425D01*
X18528573Y-39224500D01*
X18651401Y-39138495D01*
X18653077Y-39136819D01*
X18653995Y-39136317D01*
X18655544Y-39135018D01*
X18655805Y-39135329D01*
X18714400Y-39103334D01*
X18740758Y-39100500D01*
X19775500Y-39100500D01*
X19842539Y-39120185D01*
G37*
%TD.AperFunction*%
%TA.AperFunction,NonConductor*%
G36*
X16445703Y-40960601D02*
G01*
X16483477Y-41019379D01*
X16484275Y-41022221D01*
X16506094Y-41103655D01*
X16506096Y-41103659D01*
X16506097Y-41103663D01*
X16520087Y-41133664D01*
X16605965Y-41317830D01*
X16605967Y-41317834D01*
X16714281Y-41472521D01*
X16741505Y-41511401D01*
X16908599Y-41678495D01*
X17005384Y-41746265D01*
X17102165Y-41814032D01*
X17102167Y-41814033D01*
X17102170Y-41814035D01*
X17316337Y-41913903D01*
X17544592Y-41975063D01*
X17721034Y-41990500D01*
X17779999Y-41995659D01*
X17780000Y-41995659D01*
X17780001Y-41995659D01*
X17838966Y-41990500D01*
X18015408Y-41975063D01*
X18102716Y-41951669D01*
X18172563Y-41953332D01*
X18230426Y-41992494D01*
X18257930Y-42056722D01*
X18246344Y-42125625D01*
X18222488Y-42159125D01*
X16452181Y-43929433D01*
X16390858Y-43962918D01*
X16321166Y-43957934D01*
X16265233Y-43916062D01*
X16240816Y-43850598D01*
X16240500Y-43841752D01*
X16240500Y-41054314D01*
X16260185Y-40987275D01*
X16312989Y-40941520D01*
X16382147Y-40931576D01*
X16445703Y-40960601D01*
G37*
%TD.AperFunction*%
%TA.AperFunction,NonConductor*%
G36*
X39746281Y-41690185D02*
G01*
X39766923Y-41706819D01*
X39768599Y-41708495D01*
X39865384Y-41776265D01*
X39962165Y-41844032D01*
X39962167Y-41844033D01*
X39962170Y-41844035D01*
X40176337Y-41943903D01*
X40334234Y-41986211D01*
X40393893Y-42022574D01*
X40424423Y-42085421D01*
X40416129Y-42154797D01*
X40371644Y-42208675D01*
X40345206Y-42222266D01*
X40197119Y-42277111D01*
X40197111Y-42277115D01*
X40024432Y-42384745D01*
X40024427Y-42384749D01*
X39876949Y-42524938D01*
X39876948Y-42524940D01*
X39760705Y-42691949D01*
X39680459Y-42878943D01*
X39639500Y-43078258D01*
X39639500Y-44842410D01*
X39619815Y-44909449D01*
X39617076Y-44913532D01*
X39509431Y-45067267D01*
X39482382Y-45125275D01*
X39436209Y-45177714D01*
X39369016Y-45196866D01*
X39302135Y-45176650D01*
X39257618Y-45125275D01*
X39230568Y-45067267D01*
X39230568Y-45067266D01*
X39122924Y-44913532D01*
X39100597Y-44847326D01*
X39100500Y-44842410D01*
X39100500Y-43192715D01*
X39102757Y-43103641D01*
X39102756Y-43103640D01*
X39102757Y-43103637D01*
X39091933Y-43043253D01*
X39091280Y-43038587D01*
X39088034Y-43006674D01*
X39085074Y-42977562D01*
X39074788Y-42944780D01*
X39072918Y-42937166D01*
X39066858Y-42903348D01*
X39044092Y-42846352D01*
X39042527Y-42841955D01*
X39024159Y-42783412D01*
X39007491Y-42753382D01*
X39004120Y-42746284D01*
X38991378Y-42714384D01*
X38991377Y-42714381D01*
X38976594Y-42691951D01*
X38957605Y-42663139D01*
X38955183Y-42659142D01*
X38925409Y-42605498D01*
X38903034Y-42579434D01*
X38898306Y-42573163D01*
X38879404Y-42544484D01*
X38879399Y-42544478D01*
X38857715Y-42522795D01*
X38836019Y-42501099D01*
X38832828Y-42497655D01*
X38792865Y-42451104D01*
X38765694Y-42430072D01*
X38759807Y-42424887D01*
X38217101Y-41882181D01*
X38183616Y-41820858D01*
X38188600Y-41751166D01*
X38230472Y-41695233D01*
X38295936Y-41670816D01*
X38304782Y-41670500D01*
X39679242Y-41670500D01*
X39746281Y-41690185D01*
G37*
%TD.AperFunction*%
%TA.AperFunction,NonConductor*%
G36*
X36765703Y-43261070D02*
G01*
X36772181Y-43267102D01*
X37063181Y-43558102D01*
X37096666Y-43619425D01*
X37099500Y-43645783D01*
X37099500Y-44842410D01*
X37079815Y-44909449D01*
X37077076Y-44913532D01*
X36969431Y-45067267D01*
X36942382Y-45125275D01*
X36896209Y-45177714D01*
X36829016Y-45196866D01*
X36762135Y-45176650D01*
X36717618Y-45125275D01*
X36690568Y-45067267D01*
X36690568Y-45067266D01*
X36582924Y-44913532D01*
X36560597Y-44847326D01*
X36560500Y-44842410D01*
X36560500Y-43354783D01*
X36580185Y-43287744D01*
X36632989Y-43241989D01*
X36702147Y-43232045D01*
X36765703Y-43261070D01*
G37*
%TD.AperFunction*%
%TA.AperFunction,NonConductor*%
G36*
X26605703Y-41667146D02*
G01*
X26640681Y-41717525D01*
X26643921Y-41726211D01*
X26646204Y-41732332D01*
X26646206Y-41732335D01*
X26732452Y-41847544D01*
X26732455Y-41847547D01*
X26847664Y-41933793D01*
X26847671Y-41933797D01*
X26982517Y-41984091D01*
X26982516Y-41984091D01*
X26989444Y-41984835D01*
X27042127Y-41990500D01*
X27579153Y-41990499D01*
X27646190Y-42010183D01*
X27691945Y-42062987D01*
X27701889Y-42132146D01*
X27672864Y-42195702D01*
X27622217Y-42230780D01*
X27497119Y-42277111D01*
X27497111Y-42277115D01*
X27324432Y-42384745D01*
X27324427Y-42384749D01*
X27176949Y-42524938D01*
X27176948Y-42524940D01*
X27060705Y-42691949D01*
X26980459Y-42878943D01*
X26939500Y-43078258D01*
X26939500Y-44842410D01*
X26919815Y-44909449D01*
X26917076Y-44913532D01*
X26809431Y-45067267D01*
X26782382Y-45125275D01*
X26736209Y-45177714D01*
X26669016Y-45196866D01*
X26602135Y-45176650D01*
X26557618Y-45125275D01*
X26530568Y-45067267D01*
X26530568Y-45067266D01*
X26422924Y-44913532D01*
X26400597Y-44847326D01*
X26400500Y-44842410D01*
X26400500Y-41760859D01*
X26420185Y-41693820D01*
X26472989Y-41648065D01*
X26542147Y-41638121D01*
X26605703Y-41667146D01*
G37*
%TD.AperFunction*%
%TA.AperFunction,NonConductor*%
G36*
X24318834Y-43238600D02*
G01*
X24374767Y-43280472D01*
X24399184Y-43345936D01*
X24399500Y-43354782D01*
X24399500Y-44842410D01*
X24379815Y-44909449D01*
X24377076Y-44913532D01*
X24269431Y-45067267D01*
X24242382Y-45125275D01*
X24196209Y-45177714D01*
X24129016Y-45196866D01*
X24062135Y-45176650D01*
X24017618Y-45125275D01*
X23990568Y-45067267D01*
X23990568Y-45067266D01*
X23882924Y-44913532D01*
X23860597Y-44847326D01*
X23860500Y-44842410D01*
X23860500Y-43645782D01*
X23880185Y-43578743D01*
X23896819Y-43558101D01*
X24187819Y-43267101D01*
X24249142Y-43233616D01*
X24318834Y-43238600D01*
G37*
%TD.AperFunction*%
%TA.AperFunction,NonConductor*%
G36*
X24197865Y-53883348D02*
G01*
X24242382Y-53934725D01*
X24269429Y-53992728D01*
X24269432Y-53992734D01*
X24377075Y-54146465D01*
X24399402Y-54212671D01*
X24399500Y-54217588D01*
X24399500Y-55414218D01*
X24379815Y-55481257D01*
X24363181Y-55501899D01*
X24106341Y-55758739D01*
X24045018Y-55792224D01*
X24018660Y-55795058D01*
X21701340Y-55795058D01*
X21634301Y-55775373D01*
X21613659Y-55758739D01*
X20407101Y-54552181D01*
X20373616Y-54490858D01*
X20378600Y-54421166D01*
X20420472Y-54365233D01*
X20485936Y-54340816D01*
X20494782Y-54340500D01*
X21982412Y-54340500D01*
X22049451Y-54360185D01*
X22053523Y-54362917D01*
X22207266Y-54470568D01*
X22413504Y-54566739D01*
X22633308Y-54625635D01*
X22795230Y-54639801D01*
X22859998Y-54645468D01*
X22860000Y-54645468D01*
X22860002Y-54645468D01*
X22916673Y-54640509D01*
X23086692Y-54625635D01*
X23306496Y-54566739D01*
X23512734Y-54470568D01*
X23699139Y-54340047D01*
X23860047Y-54179139D01*
X23990568Y-53992734D01*
X24017618Y-53934724D01*
X24063790Y-53882285D01*
X24130983Y-53863133D01*
X24197865Y-53883348D01*
G37*
%TD.AperFunction*%
%TA.AperFunction,NonConductor*%
G36*
X39437865Y-53883348D02*
G01*
X39482382Y-53934725D01*
X39509429Y-53992728D01*
X39509432Y-53992734D01*
X39617075Y-54146465D01*
X39639402Y-54212671D01*
X39639500Y-54217588D01*
X39639500Y-55414217D01*
X39619815Y-55481256D01*
X39603181Y-55501898D01*
X39312181Y-55792898D01*
X39250858Y-55826383D01*
X39181166Y-55821399D01*
X39125233Y-55779527D01*
X39100816Y-55714063D01*
X39100500Y-55705217D01*
X39100500Y-54217588D01*
X39120185Y-54150549D01*
X39122925Y-54146465D01*
X39230568Y-53992734D01*
X39257618Y-53934724D01*
X39303790Y-53882285D01*
X39370983Y-53863133D01*
X39437865Y-53883348D01*
G37*
%TD.AperFunction*%
%TA.AperFunction,NonConductor*%
G36*
X36897865Y-53883348D02*
G01*
X36942382Y-53934725D01*
X36969429Y-53992728D01*
X36969432Y-53992734D01*
X37077075Y-54146465D01*
X37099402Y-54212671D01*
X37099500Y-54217588D01*
X37099500Y-55832897D01*
X37079815Y-55899936D01*
X37063181Y-55920578D01*
X36738673Y-56245085D01*
X36677350Y-56278570D01*
X36607658Y-56273586D01*
X36551725Y-56231714D01*
X36527308Y-56166250D01*
X36529530Y-56132443D01*
X36531889Y-56120968D01*
X36560500Y-55981741D01*
X36560500Y-54217588D01*
X36580185Y-54150549D01*
X36582925Y-54146465D01*
X36690568Y-53992734D01*
X36717618Y-53934724D01*
X36763790Y-53882285D01*
X36830983Y-53863133D01*
X36897865Y-53883348D01*
G37*
%TD.AperFunction*%
%TA.AperFunction,NonConductor*%
G36*
X29294855Y-59086546D02*
G01*
X29311575Y-59105842D01*
X29441501Y-59291396D01*
X29441506Y-59291402D01*
X29479243Y-59329139D01*
X29512728Y-59390462D01*
X29507744Y-59460154D01*
X29465872Y-59516087D01*
X29400408Y-59540504D01*
X29391562Y-59540820D01*
X29028438Y-59540820D01*
X28961399Y-59521135D01*
X28915644Y-59468331D01*
X28905700Y-59399173D01*
X28934725Y-59335617D01*
X28940757Y-59329139D01*
X28978495Y-59291401D01*
X29108425Y-59105842D01*
X29163002Y-59062217D01*
X29232500Y-59055023D01*
X29294855Y-59086546D01*
G37*
%TD.AperFunction*%
%TA.AperFunction,NonConductor*%
G36*
X26737865Y-53883348D02*
G01*
X26782382Y-53934725D01*
X26809429Y-53992728D01*
X26809432Y-53992734D01*
X26917075Y-54146465D01*
X26939402Y-54212671D01*
X26939500Y-54217588D01*
X26939500Y-55930743D01*
X26954925Y-56082439D01*
X27015837Y-56276579D01*
X27015844Y-56276594D01*
X27114589Y-56454499D01*
X27114592Y-56454504D01*
X27247132Y-56608893D01*
X27247134Y-56608895D01*
X27408037Y-56733445D01*
X27408038Y-56733445D01*
X27408042Y-56733448D01*
X27590729Y-56823060D01*
X27689994Y-56848761D01*
X27749958Y-56884620D01*
X27781017Y-56947207D01*
X27773309Y-57016650D01*
X27729280Y-57070902D01*
X27691005Y-57088577D01*
X27476344Y-57146094D01*
X27476335Y-57146098D01*
X27262171Y-57245964D01*
X27262169Y-57245965D01*
X27068597Y-57381505D01*
X26901505Y-57548597D01*
X26765965Y-57742169D01*
X26765964Y-57742171D01*
X26666098Y-57956335D01*
X26666094Y-57956344D01*
X26604938Y-58184586D01*
X26604936Y-58184596D01*
X26584341Y-58419999D01*
X26584341Y-58420000D01*
X26604936Y-58655403D01*
X26604938Y-58655413D01*
X26666094Y-58883655D01*
X26666096Y-58883659D01*
X26666097Y-58883663D01*
X26670000Y-58892032D01*
X26765965Y-59097830D01*
X26765967Y-59097834D01*
X26856394Y-59226976D01*
X26901501Y-59291396D01*
X26901506Y-59291402D01*
X26939243Y-59329139D01*
X26972728Y-59390462D01*
X26967744Y-59460154D01*
X26925872Y-59516087D01*
X26860408Y-59540504D01*
X26851562Y-59540820D01*
X23325783Y-59540820D01*
X23258744Y-59521135D01*
X23238102Y-59504501D01*
X21741340Y-58007739D01*
X21707855Y-57946416D01*
X21712839Y-57876724D01*
X21754711Y-57820791D01*
X21820175Y-57796374D01*
X21829021Y-57796058D01*
X24471726Y-57796058D01*
X24560800Y-57798315D01*
X24560800Y-57798314D01*
X24560805Y-57798315D01*
X24621195Y-57787490D01*
X24625854Y-57786838D01*
X24668049Y-57782546D01*
X24686880Y-57780632D01*
X24719669Y-57770344D01*
X24727282Y-57768476D01*
X24761095Y-57762416D01*
X24818063Y-57739659D01*
X24822495Y-57738082D01*
X24835002Y-57734158D01*
X24881030Y-57719717D01*
X24911069Y-57703042D01*
X24918150Y-57699680D01*
X24950059Y-57686935D01*
X25001296Y-57653166D01*
X25005293Y-57650745D01*
X25058944Y-57620967D01*
X25085010Y-57598588D01*
X25091285Y-57593858D01*
X25119961Y-57574960D01*
X25163359Y-57531560D01*
X25166778Y-57528392D01*
X25213337Y-57488424D01*
X25234373Y-57461246D01*
X25239543Y-57455376D01*
X26098487Y-56596433D01*
X26163053Y-56535059D01*
X26198112Y-56484686D01*
X26200925Y-56480957D01*
X26239698Y-56433407D01*
X26255607Y-56402948D01*
X26259667Y-56396248D01*
X26279295Y-56368049D01*
X26303492Y-56311660D01*
X26305498Y-56307435D01*
X26333909Y-56253049D01*
X26343360Y-56220015D01*
X26345991Y-56212628D01*
X26345994Y-56212621D01*
X26359540Y-56181058D01*
X26371893Y-56120940D01*
X26373006Y-56116412D01*
X26389887Y-56057418D01*
X26392495Y-56023155D01*
X26393587Y-56015376D01*
X26400500Y-55981743D01*
X26400500Y-55981741D01*
X26400500Y-55920398D01*
X26400679Y-55915692D01*
X26405337Y-55854525D01*
X26400997Y-55820441D01*
X26400500Y-55812602D01*
X26400500Y-54217588D01*
X26420185Y-54150549D01*
X26422925Y-54146465D01*
X26530568Y-53992734D01*
X26557618Y-53934724D01*
X26603790Y-53882285D01*
X26670983Y-53863133D01*
X26737865Y-53883348D01*
G37*
%TD.AperFunction*%
M02*
