M48
; DRILL file {KiCad 7.0.7} date Sun Oct 15 14:52:38 2023
; FORMAT={-:-/ absolute / metric / decimal}
; #@! TF.CreationDate,2023-10-15T14:52:38+02:00
; #@! TF.GenerationSoftware,Kicad,Pcbnew,7.0.7
; #@! TF.FileFunction,Plated,1,2,PTH
FMAT,2
METRIC
; #@! TA.AperFunction,Plated,PTH,ViaDrill
T1C0.400
; #@! TA.AperFunction,Plated,PTH,ComponentDrill
T2C0.800
; #@! TA.AperFunction,Plated,PTH,ComponentDrill
T3C0.900
; #@! TA.AperFunction,Plated,PTH,ComponentDrill
T4C1.000
%
G90
G05
T1
X17.78Y-38.1
X20.32Y-22.86
X22.86Y-35.56
X25.4Y-35.56
X29.21Y-36.83
X31.75Y-36.83
X34.29Y-36.83
X43.18Y-22.86
X45.72Y-27.94
X45.72Y-35.56
X53.34Y-45.72
X58.42Y-27.94
X58.42Y-35.56
T2
X48.26Y-22.86
X48.26Y-25.4
X48.26Y-27.94
X48.26Y-30.48
X48.26Y-33.02
X48.26Y-35.56
X48.26Y-38.1
X48.26Y-40.64
X55.88Y-22.86
X55.88Y-25.4
X55.88Y-27.94
X55.88Y-30.48
X55.88Y-33.02
X55.88Y-35.56
X55.88Y-38.1
X55.88Y-40.64
T3
X20.32Y-20.32
X20.32Y-43.18
X22.86Y-20.32
X22.86Y-43.18
X25.4Y-20.32
X25.4Y-43.18
X27.94Y-20.32
X27.94Y-43.18
X30.48Y-20.32
X30.48Y-43.18
X33.02Y-20.32
X33.02Y-43.18
X35.56Y-20.32
X35.56Y-43.18
X38.1Y-20.32
X38.1Y-43.18
T4
X17.78Y-25.4
X20.32Y-25.4
X20.32Y-30.48
X22.86Y-30.48
X25.4Y-30.48
X27.94Y-30.48
X30.48Y-30.48
X33.02Y-30.48
X43.18Y-27.94
X43.18Y-30.48
X60.96Y-27.94
X60.96Y-30.48
T0
M30
