%TF.GenerationSoftware,KiCad,Pcbnew,7.0.7*%
%TF.CreationDate,2023-10-15T14:52:50+02:00*%
%TF.ProjectId,bot_pcb_2,626f745f-7063-4625-9f32-2e6b69636164,rev?*%
%TF.SameCoordinates,Original*%
%TF.FileFunction,Copper,L2,Bot*%
%TF.FilePolarity,Positive*%
%FSLAX46Y46*%
G04 Gerber Fmt 4.6, Leading zero omitted, Abs format (unit mm)*
G04 Created by KiCad (PCBNEW 7.0.7) date 2023-10-15 14:52:50*
%MOMM*%
%LPD*%
G01*
G04 APERTURE LIST*
%TA.AperFunction,ComponentPad*%
%ADD10R,1.700000X1.700000*%
%TD*%
%TA.AperFunction,ComponentPad*%
%ADD11O,1.700000X1.700000*%
%TD*%
%TA.AperFunction,ComponentPad*%
%ADD12C,1.665000*%
%TD*%
%TA.AperFunction,ComponentPad*%
%ADD13R,1.665000X1.665000*%
%TD*%
%TA.AperFunction,ComponentPad*%
%ADD14R,1.600000X1.600000*%
%TD*%
%TA.AperFunction,ComponentPad*%
%ADD15O,1.600000X1.600000*%
%TD*%
%TA.AperFunction,ViaPad*%
%ADD16C,0.800000*%
%TD*%
%TA.AperFunction,Conductor*%
%ADD17C,0.800000*%
%TD*%
G04 APERTURE END LIST*
D10*
%TO.P,J1,1,Pin_1*%
%TO.N,Net-(BT1-+)*%
X20320000Y-25400000D03*
D11*
%TO.P,J1,2,Pin_2*%
%TO.N,Net-(BT1--)*%
X17780000Y-25400000D03*
%TD*%
D10*
%TO.P,J3,1,Pin_1*%
%TO.N,Net-(J3-Pin_1)*%
X43180000Y-30480000D03*
D11*
%TO.P,J3,2,Pin_2*%
%TO.N,Net-(J3-Pin_2)*%
X43180000Y-27940000D03*
%TD*%
D10*
%TO.P,J2,1,Pin_1*%
%TO.N,Net-(J2-Pin_1)*%
X60960000Y-30480000D03*
D11*
%TO.P,J2,2,Pin_2*%
%TO.N,Net-(J2-Pin_2)*%
X60960000Y-27940000D03*
%TD*%
D10*
%TO.P,J4,1,Pin_1*%
%TO.N,Net-(BT1-+)*%
X33020000Y-30480000D03*
D11*
%TO.P,J4,2,Pin_2*%
%TO.N,Net-(J4-Pin_2)*%
X30480000Y-30480000D03*
%TO.P,J4,3,Pin_3*%
%TO.N,Net-(J4-Pin_3)*%
X27940000Y-30480000D03*
%TO.P,J4,4,Pin_4*%
%TO.N,Net-(J4-Pin_4)*%
X25400000Y-30480000D03*
%TO.P,J4,5,Pin_5*%
%TO.N,Net-(J4-Pin_5)*%
X22860000Y-30480000D03*
%TO.P,J4,6,Pin_6*%
%TO.N,Net-(J4-Pin_6)*%
X20320000Y-30480000D03*
%TD*%
D12*
%TO.P,U1,1,IO4*%
%TO.N,unconnected-(U1-IO4-Pad1)*%
X38100000Y-20320000D03*
%TO.P,U1,2,IO2*%
%TO.N,Net-(U1-IO2)*%
X35560000Y-20320000D03*
%TO.P,U1,3,IO14*%
%TO.N,Net-(U1-IO14)*%
X33020000Y-20320000D03*
%TO.P,U1,4,IO15*%
%TO.N,Net-(U1-IO15)*%
X30480000Y-20320000D03*
%TO.P,U1,5,IO13*%
%TO.N,Net-(U1-IO13)*%
X27940000Y-20320000D03*
%TO.P,U1,6,IO12*%
%TO.N,Net-(U1-IO12)*%
X25400000Y-20320000D03*
%TO.P,U1,7,GND_1*%
%TO.N,Net-(BT1--)*%
X22860000Y-20320000D03*
D13*
%TO.P,U1,8,5V*%
%TO.N,Net-(BT1-+)*%
X20320000Y-20320000D03*
%TO.P,U1,9,3V3*%
%TO.N,unconnected-(U1-3V3-Pad9)*%
X20320000Y-43180000D03*
D12*
%TO.P,U1,10,IO16*%
%TO.N,unconnected-(U1-IO16-Pad10)*%
X22860000Y-43180000D03*
%TO.P,U1,11,IO0*%
%TO.N,Net-(J4-Pin_6)*%
X25400000Y-43180000D03*
%TO.P,U1,12,GND_2*%
%TO.N,Net-(J4-Pin_5)*%
X27940000Y-43180000D03*
%TO.P,U1,13,VCC*%
%TO.N,unconnected-(U1-VCC-Pad13)*%
X30480000Y-43180000D03*
%TO.P,U1,14,U0R*%
%TO.N,Net-(J4-Pin_4)*%
X33020000Y-43180000D03*
%TO.P,U1,15,U0T*%
%TO.N,Net-(J4-Pin_3)*%
X35560000Y-43180000D03*
%TO.P,U1,16,GND_3*%
%TO.N,Net-(J4-Pin_2)*%
X38100000Y-43180000D03*
%TD*%
D14*
%TO.P,U2,1,EN1\u002C2*%
%TO.N,Net-(U1-IO15)*%
X48260000Y-40640000D03*
D15*
%TO.P,U2,2,1A*%
%TO.N,Net-(U1-IO14)*%
X48260000Y-38100000D03*
%TO.P,U2,3,1Y*%
%TO.N,Net-(J3-Pin_1)*%
X48260000Y-35560000D03*
%TO.P,U2,4,GND*%
%TO.N,Net-(BT1--)*%
X48260000Y-33020000D03*
%TO.P,U2,5,GND*%
X48260000Y-30480000D03*
%TO.P,U2,6,2Y*%
%TO.N,Net-(J3-Pin_2)*%
X48260000Y-27940000D03*
%TO.P,U2,7,2A*%
%TO.N,Net-(U1-IO2)*%
X48260000Y-25400000D03*
%TO.P,U2,8,VCC2*%
%TO.N,Net-(BT1-+)*%
X48260000Y-22860000D03*
%TO.P,U2,9,EN3\u002C4*%
%TO.N,Net-(U1-IO15)*%
X55880000Y-22860000D03*
%TO.P,U2,10,3A*%
%TO.N,Net-(U1-IO13)*%
X55880000Y-25400000D03*
%TO.P,U2,11,3Y*%
%TO.N,Net-(J2-Pin_2)*%
X55880000Y-27940000D03*
%TO.P,U2,12,GND*%
%TO.N,Net-(BT1--)*%
X55880000Y-30480000D03*
%TO.P,U2,13,GND*%
X55880000Y-33020000D03*
%TO.P,U2,14,4Y*%
%TO.N,Net-(J2-Pin_1)*%
X55880000Y-35560000D03*
%TO.P,U2,15,4A*%
%TO.N,Net-(U1-IO12)*%
X55880000Y-38100000D03*
%TO.P,U2,16,VCC1*%
%TO.N,Net-(BT1-+)*%
X55880000Y-40640000D03*
%TD*%
D16*
%TO.N,Net-(BT1-+)*%
X43180000Y-22860000D03*
X20320000Y-22860000D03*
X53340000Y-45720000D03*
%TO.N,Net-(BT1--)*%
X17780000Y-38100000D03*
%TO.N,Net-(J2-Pin_1)*%
X58420000Y-35560000D03*
%TO.N,Net-(J2-Pin_2)*%
X58420000Y-27940000D03*
%TO.N,Net-(J3-Pin_1)*%
X45720000Y-35560000D03*
%TO.N,Net-(J3-Pin_2)*%
X45720000Y-27940000D03*
%TO.N,Net-(J4-Pin_2)*%
X34290000Y-36830000D03*
%TO.N,Net-(J4-Pin_3)*%
X31750000Y-36830000D03*
%TO.N,Net-(J4-Pin_5)*%
X25400000Y-35560000D03*
%TO.N,Net-(J4-Pin_4)*%
X29210000Y-36830000D03*
%TO.N,Net-(J4-Pin_6)*%
X22860000Y-35560000D03*
%TD*%
D17*
%TO.N,Net-(BT1-+)*%
X35560000Y-30480000D02*
X33020000Y-30480000D01*
X33020000Y-27940000D02*
X30480000Y-25400000D01*
X45720000Y-45720000D02*
X33020000Y-33020000D01*
X33020000Y-30480000D02*
X33020000Y-27940000D01*
X43180000Y-22860000D02*
X35560000Y-30480000D01*
X20320000Y-25400000D02*
X20320000Y-22860000D01*
X33020000Y-33020000D02*
X33020000Y-30480000D01*
X30480000Y-25400000D02*
X20320000Y-25400000D01*
X53340000Y-45720000D02*
X45720000Y-45720000D01*
%TO.N,Net-(J2-Pin_1)*%
X60960000Y-33020000D02*
X58420000Y-35560000D01*
X60960000Y-30480000D02*
X60960000Y-33020000D01*
%TO.N,Net-(J2-Pin_2)*%
X60960000Y-27940000D02*
X58420000Y-27940000D01*
%TO.N,Net-(J3-Pin_1)*%
X43180000Y-33020000D02*
X43180000Y-30480000D01*
X45720000Y-35560000D02*
X43180000Y-33020000D01*
%TO.N,Net-(J3-Pin_2)*%
X45720000Y-27940000D02*
X43180000Y-27940000D01*
%TO.N,Net-(J4-Pin_2)*%
X30480000Y-33020000D02*
X30480000Y-30480000D01*
X34290000Y-36830000D02*
X30480000Y-33020000D01*
%TO.N,Net-(J4-Pin_3)*%
X31750000Y-36830000D02*
X27940000Y-33020000D01*
X27940000Y-33020000D02*
X27940000Y-30480000D01*
%TO.N,Net-(J4-Pin_5)*%
X22860000Y-33020000D02*
X22860000Y-30480000D01*
X25400000Y-35560000D02*
X22860000Y-33020000D01*
%TO.N,Net-(J4-Pin_4)*%
X25400000Y-33020000D02*
X25400000Y-30480000D01*
X29210000Y-36830000D02*
X25400000Y-33020000D01*
%TO.N,Net-(J4-Pin_6)*%
X22860000Y-35560000D02*
X20320000Y-33020000D01*
X20320000Y-33020000D02*
X20320000Y-30480000D01*
%TD*%
%TA.AperFunction,Conductor*%
%TO.N,Net-(BT1--)*%
G36*
X57554016Y-28371410D02*
G01*
X57657510Y-28441215D01*
X57681903Y-28466038D01*
X57692919Y-28478271D01*
X57712224Y-28499711D01*
X57725368Y-28515943D01*
X57738149Y-28533535D01*
X57747113Y-28545872D01*
X57774601Y-28570623D01*
X57789374Y-28585396D01*
X57814126Y-28612885D01*
X57814129Y-28612888D01*
X57844060Y-28634633D01*
X57860288Y-28647775D01*
X57887784Y-28672533D01*
X57917068Y-28689441D01*
X57919821Y-28691030D01*
X57937341Y-28702407D01*
X57967270Y-28724151D01*
X57975084Y-28727630D01*
X58001065Y-28739198D01*
X58019684Y-28748685D01*
X58051716Y-28767179D01*
X58086894Y-28778608D01*
X58106402Y-28786097D01*
X58140197Y-28801144D01*
X58176381Y-28808834D01*
X58196555Y-28814239D01*
X58231744Y-28825674D01*
X58268533Y-28829540D01*
X58289162Y-28832807D01*
X58325354Y-28840500D01*
X58372808Y-28840500D01*
X59295618Y-28840500D01*
X59418916Y-28860028D01*
X59530144Y-28916702D01*
X59618416Y-29004974D01*
X59675090Y-29116202D01*
X59694618Y-29239500D01*
X59675090Y-29362798D01*
X59669462Y-29378935D01*
X59666204Y-29387667D01*
X59666204Y-29387669D01*
X59644602Y-29445586D01*
X59615908Y-29522519D01*
X59609500Y-29582127D01*
X59609500Y-31377863D01*
X59609500Y-31377869D01*
X59609501Y-31377872D01*
X59610183Y-31384219D01*
X59615908Y-31437480D01*
X59615908Y-31437481D01*
X59615909Y-31437483D01*
X59627241Y-31467865D01*
X59666202Y-31572327D01*
X59666203Y-31572329D01*
X59666204Y-31572331D01*
X59752454Y-31687546D01*
X59752457Y-31687548D01*
X59752458Y-31687549D01*
X59890515Y-31790899D01*
X59888566Y-31793501D01*
X59950556Y-31841294D01*
X60021026Y-31944337D01*
X60056205Y-32064112D01*
X60059499Y-32115280D01*
X60059499Y-32481728D01*
X60039971Y-32605026D01*
X59983297Y-32716254D01*
X59942635Y-32763864D01*
X57855561Y-34850938D01*
X57829634Y-34873082D01*
X57829669Y-34873120D01*
X57814130Y-34887110D01*
X57814129Y-34887112D01*
X57770470Y-34935600D01*
X57770068Y-34936046D01*
X57762883Y-34943617D01*
X57749889Y-34956611D01*
X57749868Y-34956634D01*
X57738299Y-34970919D01*
X57731527Y-34978848D01*
X57681912Y-35033952D01*
X57584898Y-35112513D01*
X57468355Y-35157251D01*
X57343692Y-35163786D01*
X57223110Y-35131477D01*
X57118414Y-35063488D01*
X57039853Y-34966474D01*
X57023780Y-34935600D01*
X57010568Y-34907266D01*
X56880047Y-34720861D01*
X56880040Y-34720854D01*
X56730967Y-34571780D01*
X56657591Y-34470786D01*
X56619015Y-34352061D01*
X56619016Y-34227226D01*
X56657592Y-34108502D01*
X56730968Y-34007509D01*
X56879660Y-33858817D01*
X57010130Y-33672488D01*
X57010133Y-33672482D01*
X57106264Y-33466330D01*
X57106265Y-33466329D01*
X57118680Y-33420000D01*
X56683986Y-33420000D01*
X56560688Y-33400472D01*
X56449460Y-33343798D01*
X56361188Y-33255526D01*
X56304514Y-33144298D01*
X56284986Y-33021000D01*
X56284986Y-33019000D01*
X56304514Y-32895702D01*
X56361188Y-32784474D01*
X56449460Y-32696202D01*
X56560688Y-32639528D01*
X56683986Y-32620000D01*
X57118679Y-32620000D01*
X57106265Y-32573670D01*
X57106264Y-32573669D01*
X57010133Y-32367517D01*
X57010130Y-32367511D01*
X56879662Y-32181185D01*
X56730613Y-32032136D01*
X56657237Y-31931142D01*
X56618661Y-31812417D01*
X56618661Y-31687583D01*
X56657237Y-31568858D01*
X56730613Y-31467864D01*
X56879662Y-31318814D01*
X57010130Y-31132488D01*
X57010133Y-31132482D01*
X57106264Y-30926330D01*
X57106265Y-30926329D01*
X57118680Y-30880000D01*
X56683986Y-30880000D01*
X56560688Y-30860472D01*
X56449460Y-30803798D01*
X56361188Y-30715526D01*
X56304514Y-30604298D01*
X56284986Y-30481000D01*
X56284986Y-30479000D01*
X56304514Y-30355702D01*
X56361188Y-30244474D01*
X56449460Y-30156202D01*
X56560688Y-30099528D01*
X56683986Y-30080000D01*
X57118679Y-30080000D01*
X57106265Y-30033670D01*
X57106264Y-30033669D01*
X57010133Y-29827517D01*
X57010130Y-29827511D01*
X56879662Y-29641185D01*
X56730967Y-29492490D01*
X56657591Y-29391496D01*
X56619015Y-29272771D01*
X56619015Y-29147937D01*
X56657591Y-29029212D01*
X56730964Y-28928221D01*
X56880047Y-28779139D01*
X57010568Y-28592734D01*
X57023780Y-28564402D01*
X57093582Y-28460913D01*
X57191953Y-28384057D01*
X57309259Y-28341359D01*
X57434017Y-28337002D01*
X57554016Y-28371410D01*
G37*
%TD.AperFunction*%
%TA.AperFunction,Conductor*%
G36*
X56004298Y-30899528D02*
G01*
X56115526Y-30956202D01*
X56203798Y-31044474D01*
X56260472Y-31155702D01*
X56280000Y-31279000D01*
X56280000Y-32221000D01*
X56260472Y-32344298D01*
X56203798Y-32455526D01*
X56115526Y-32543798D01*
X56004298Y-32600472D01*
X55881000Y-32620000D01*
X55879000Y-32620000D01*
X55755702Y-32600472D01*
X55644474Y-32543798D01*
X55556202Y-32455526D01*
X55499528Y-32344298D01*
X55480000Y-32221000D01*
X55480000Y-31279000D01*
X55499528Y-31155702D01*
X55556202Y-31044474D01*
X55644474Y-30956202D01*
X55755702Y-30899528D01*
X55879000Y-30880000D01*
X55881000Y-30880000D01*
X56004298Y-30899528D01*
G37*
%TD.AperFunction*%
%TA.AperFunction,Conductor*%
G36*
X46916901Y-28368526D02*
G01*
X47021594Y-28436519D01*
X47100153Y-28533535D01*
X47116216Y-28564392D01*
X47122386Y-28577623D01*
X47129433Y-28592736D01*
X47259581Y-28778609D01*
X47259953Y-28779139D01*
X47409035Y-28928221D01*
X47482409Y-29029212D01*
X47520985Y-29147937D01*
X47520985Y-29272771D01*
X47482409Y-29391496D01*
X47409033Y-29492490D01*
X47260337Y-29641185D01*
X47129869Y-29827511D01*
X47129866Y-29827517D01*
X47033735Y-30033669D01*
X47033734Y-30033670D01*
X47021320Y-30080000D01*
X47456014Y-30080000D01*
X47579312Y-30099528D01*
X47690540Y-30156202D01*
X47778812Y-30244474D01*
X47835486Y-30355702D01*
X47855014Y-30479000D01*
X47855014Y-30481000D01*
X47835486Y-30604298D01*
X47778812Y-30715526D01*
X47690540Y-30803798D01*
X47579312Y-30860472D01*
X47456014Y-30880000D01*
X47021320Y-30880000D01*
X47033734Y-30926329D01*
X47033735Y-30926330D01*
X47129866Y-31132482D01*
X47129869Y-31132488D01*
X47260337Y-31318814D01*
X47409386Y-31467863D01*
X47482762Y-31568857D01*
X47521338Y-31687582D01*
X47521338Y-31812416D01*
X47482762Y-31931141D01*
X47409387Y-32032133D01*
X47260340Y-32181181D01*
X47129869Y-32367511D01*
X47129866Y-32367517D01*
X47033735Y-32573669D01*
X47033734Y-32573670D01*
X47021320Y-32620000D01*
X47456014Y-32620000D01*
X47579312Y-32639528D01*
X47690540Y-32696202D01*
X47778812Y-32784474D01*
X47835486Y-32895702D01*
X47855014Y-33019000D01*
X47855014Y-33021000D01*
X47835486Y-33144298D01*
X47778812Y-33255526D01*
X47690540Y-33343798D01*
X47579312Y-33400472D01*
X47456014Y-33420000D01*
X47021320Y-33420000D01*
X47033734Y-33466329D01*
X47033735Y-33466330D01*
X47129866Y-33672482D01*
X47129869Y-33672488D01*
X47260339Y-33858817D01*
X47409032Y-34007509D01*
X47482408Y-34108502D01*
X47520984Y-34227226D01*
X47520985Y-34352061D01*
X47482409Y-34470786D01*
X47409033Y-34571780D01*
X47259958Y-34720855D01*
X47259949Y-34720865D01*
X47129433Y-34907263D01*
X47129429Y-34907270D01*
X47116219Y-34935600D01*
X47046412Y-35039092D01*
X46948040Y-35115947D01*
X46830733Y-35158642D01*
X46705974Y-35162997D01*
X46585976Y-35128587D01*
X46482484Y-35058780D01*
X46458091Y-35033957D01*
X46452533Y-35027784D01*
X46408434Y-34978807D01*
X46401711Y-34970934D01*
X46390119Y-34956620D01*
X46390110Y-34956611D01*
X46390105Y-34956605D01*
X46377110Y-34943610D01*
X46369923Y-34936037D01*
X46325868Y-34887108D01*
X46310334Y-34873122D01*
X46310368Y-34873084D01*
X46284434Y-34850935D01*
X44197364Y-32763864D01*
X44123988Y-32662870D01*
X44085412Y-32544145D01*
X44080500Y-32481728D01*
X44080500Y-32115281D01*
X44100028Y-31991983D01*
X44156702Y-31880755D01*
X44244974Y-31792483D01*
X44260430Y-31782705D01*
X44272331Y-31773796D01*
X44387546Y-31687546D01*
X44473796Y-31572331D01*
X44524091Y-31437483D01*
X44530500Y-31377873D01*
X44530499Y-29582128D01*
X44524091Y-29522517D01*
X44483333Y-29413240D01*
X44470538Y-29378933D01*
X44445748Y-29256585D01*
X44459979Y-29132564D01*
X44511838Y-29019010D01*
X44596249Y-28927040D01*
X44704949Y-28865656D01*
X44827297Y-28840866D01*
X44844382Y-28840500D01*
X45814642Y-28840500D01*
X45814646Y-28840500D01*
X45850826Y-28832809D01*
X45871460Y-28829541D01*
X45908256Y-28825674D01*
X45943439Y-28814241D01*
X45963610Y-28808836D01*
X45999803Y-28801144D01*
X46033597Y-28786096D01*
X46053092Y-28778612D01*
X46088284Y-28767179D01*
X46120337Y-28748671D01*
X46138930Y-28739198D01*
X46172730Y-28724151D01*
X46202670Y-28702397D01*
X46220156Y-28691042D01*
X46252216Y-28672533D01*
X46279720Y-28647766D01*
X46295936Y-28634635D01*
X46325871Y-28612888D01*
X46350621Y-28585400D01*
X46365400Y-28570621D01*
X46373186Y-28563609D01*
X46392888Y-28545871D01*
X46414637Y-28515934D01*
X46427769Y-28499717D01*
X46452533Y-28472216D01*
X46452534Y-28472213D01*
X46458096Y-28466037D01*
X46555112Y-28387478D01*
X46671657Y-28342744D01*
X46796320Y-28336214D01*
X46916901Y-28368526D01*
G37*
%TD.AperFunction*%
%TA.AperFunction,Conductor*%
G36*
X48384298Y-30899528D02*
G01*
X48495526Y-30956202D01*
X48583798Y-31044474D01*
X48640472Y-31155702D01*
X48660000Y-31279000D01*
X48660000Y-32221000D01*
X48640472Y-32344298D01*
X48583798Y-32455526D01*
X48495526Y-32543798D01*
X48384298Y-32600472D01*
X48261000Y-32620000D01*
X48259000Y-32620000D01*
X48135702Y-32600472D01*
X48024474Y-32543798D01*
X47936202Y-32455526D01*
X47879528Y-32344298D01*
X47860000Y-32221000D01*
X47860000Y-31279000D01*
X47879528Y-31155702D01*
X47936202Y-31044474D01*
X48024474Y-30956202D01*
X48135702Y-30899528D01*
X48259000Y-30880000D01*
X48261000Y-30880000D01*
X48384298Y-30899528D01*
G37*
%TD.AperFunction*%
%TA.AperFunction,Conductor*%
G36*
X15169445Y-12719528D02*
G01*
X15237249Y-12754076D01*
X15339257Y-12711376D01*
X15433853Y-12700000D01*
X63306147Y-12700000D01*
X63429445Y-12719528D01*
X63497249Y-12754076D01*
X63599257Y-12711376D01*
X63693853Y-12700000D01*
X65641000Y-12700000D01*
X65764298Y-12719528D01*
X65875526Y-12776202D01*
X65963798Y-12864474D01*
X66020472Y-12975702D01*
X66040000Y-13099000D01*
X66040000Y-15022521D01*
X66020472Y-15145819D01*
X65971587Y-15241759D01*
X65995148Y-15273683D01*
X66034610Y-15392117D01*
X66040000Y-15457478D01*
X66040000Y-48042521D01*
X66020472Y-48165819D01*
X65971587Y-48261759D01*
X65995148Y-48293683D01*
X66034610Y-48412117D01*
X66040000Y-48477478D01*
X66040000Y-50401000D01*
X66020472Y-50524298D01*
X65963798Y-50635526D01*
X65875526Y-50723798D01*
X65764298Y-50780472D01*
X65641000Y-50800000D01*
X63693853Y-50800000D01*
X63570555Y-50780472D01*
X63502750Y-50745923D01*
X63400743Y-50788624D01*
X63306147Y-50800000D01*
X15433853Y-50800000D01*
X15310555Y-50780472D01*
X15242750Y-50745923D01*
X15140743Y-50788624D01*
X15046147Y-50800000D01*
X13099000Y-50800000D01*
X12975702Y-50780472D01*
X12864474Y-50723798D01*
X12776202Y-50635526D01*
X12719528Y-50524298D01*
X12700000Y-50401000D01*
X12700000Y-48477478D01*
X12719528Y-48354180D01*
X12768412Y-48258239D01*
X12768193Y-48257942D01*
X13429435Y-48257942D01*
X13478472Y-48354180D01*
X13493543Y-48418008D01*
X13528603Y-48650608D01*
X13528604Y-48650615D01*
X13605937Y-48901322D01*
X13719771Y-49137704D01*
X13867571Y-49354485D01*
X14046016Y-49546802D01*
X14046019Y-49546805D01*
X14251143Y-49710386D01*
X14478357Y-49841568D01*
X14722584Y-49937420D01*
X14722587Y-49937421D01*
X14803226Y-49955826D01*
X14978370Y-49995802D01*
X14978374Y-49995802D01*
X14978377Y-49995803D01*
X15075963Y-50003116D01*
X15197457Y-50031803D01*
X15239841Y-50057558D01*
X15310555Y-50021528D01*
X15404037Y-50003116D01*
X15501622Y-49995803D01*
X15501624Y-49995802D01*
X15501630Y-49995802D01*
X15757416Y-49937420D01*
X16001643Y-49841568D01*
X16228857Y-49710386D01*
X16433981Y-49546805D01*
X16537500Y-49435237D01*
X16612428Y-49354485D01*
X16612429Y-49354482D01*
X16612433Y-49354479D01*
X16760228Y-49137704D01*
X16874063Y-48901323D01*
X16951396Y-48650615D01*
X16986457Y-48418008D01*
X16990499Y-48391190D01*
X61749500Y-48391190D01*
X61788603Y-48650608D01*
X61788604Y-48650615D01*
X61865937Y-48901322D01*
X61979771Y-49137704D01*
X62127571Y-49354485D01*
X62306016Y-49546802D01*
X62306019Y-49546805D01*
X62511143Y-49710386D01*
X62738357Y-49841568D01*
X62982584Y-49937420D01*
X62982587Y-49937421D01*
X63063227Y-49955826D01*
X63238370Y-49995802D01*
X63238374Y-49995802D01*
X63238377Y-49995803D01*
X63335963Y-50003116D01*
X63457457Y-50031803D01*
X63499841Y-50057558D01*
X63570555Y-50021528D01*
X63664037Y-50003116D01*
X63761622Y-49995803D01*
X63761624Y-49995802D01*
X63761630Y-49995802D01*
X64017416Y-49937420D01*
X64261643Y-49841568D01*
X64488857Y-49710386D01*
X64693981Y-49546805D01*
X64797500Y-49435237D01*
X64872428Y-49354485D01*
X64872429Y-49354482D01*
X64872433Y-49354479D01*
X65020228Y-49137704D01*
X65134063Y-48901323D01*
X65211396Y-48650615D01*
X65246457Y-48418008D01*
X65284144Y-48298998D01*
X65310563Y-48262056D01*
X65261528Y-48165819D01*
X65246457Y-48101991D01*
X65232487Y-48009318D01*
X65211396Y-47869385D01*
X65134063Y-47618677D01*
X65020228Y-47382296D01*
X65020228Y-47382295D01*
X64872428Y-47165514D01*
X64693983Y-46973197D01*
X64693982Y-46973196D01*
X64693981Y-46973195D01*
X64488857Y-46809614D01*
X64416835Y-46768032D01*
X64261644Y-46678432D01*
X64017412Y-46582578D01*
X63761626Y-46524197D01*
X63761622Y-46524196D01*
X63565494Y-46509500D01*
X63434506Y-46509500D01*
X63238377Y-46524196D01*
X63238373Y-46524197D01*
X62982587Y-46582578D01*
X62738355Y-46678432D01*
X62511139Y-46809616D01*
X62511138Y-46809617D01*
X62306016Y-46973197D01*
X62127571Y-47165514D01*
X61979771Y-47382295D01*
X61865937Y-47618677D01*
X61788604Y-47869384D01*
X61788603Y-47869391D01*
X61749500Y-48128809D01*
X61749500Y-48391190D01*
X16990499Y-48391190D01*
X16990500Y-48391181D01*
X16990500Y-48128818D01*
X16990499Y-48128809D01*
X16977493Y-48042521D01*
X16951396Y-47869385D01*
X16874063Y-47618677D01*
X16760228Y-47382296D01*
X16760228Y-47382295D01*
X16612428Y-47165514D01*
X16433983Y-46973197D01*
X16433982Y-46973196D01*
X16433981Y-46973195D01*
X16228857Y-46809614D01*
X16156835Y-46768032D01*
X16001644Y-46678432D01*
X15757412Y-46582578D01*
X15501626Y-46524197D01*
X15501622Y-46524196D01*
X15305494Y-46509500D01*
X15174506Y-46509500D01*
X14978377Y-46524196D01*
X14978373Y-46524197D01*
X14722587Y-46582578D01*
X14478355Y-46678432D01*
X14251139Y-46809616D01*
X14251138Y-46809617D01*
X14046016Y-46973197D01*
X13867571Y-47165514D01*
X13719771Y-47382295D01*
X13605937Y-47618677D01*
X13528604Y-47869384D01*
X13528603Y-47869391D01*
X13493543Y-48101991D01*
X13455856Y-48221001D01*
X13429435Y-48257942D01*
X12768193Y-48257942D01*
X12744852Y-48226315D01*
X12705390Y-48107882D01*
X12700000Y-48042521D01*
X12700000Y-44060363D01*
X18987000Y-44060363D01*
X18987001Y-44060370D01*
X18993408Y-44119980D01*
X18993409Y-44119982D01*
X19043702Y-44254827D01*
X19043706Y-44254834D01*
X19106579Y-44338822D01*
X19129954Y-44370046D01*
X19245169Y-44456296D01*
X19380017Y-44506591D01*
X19439627Y-44513000D01*
X21200372Y-44512999D01*
X21259983Y-44506591D01*
X21394831Y-44456296D01*
X21510046Y-44370046D01*
X21527909Y-44346183D01*
X21617428Y-44259185D01*
X21729454Y-44204104D01*
X21853018Y-44186338D01*
X21976025Y-44207624D01*
X22076178Y-44258455D01*
X22190954Y-44338822D01*
X22402346Y-44437395D01*
X22627643Y-44497763D01*
X22860000Y-44518092D01*
X23092357Y-44497763D01*
X23317654Y-44437395D01*
X23529046Y-44338822D01*
X23720109Y-44205038D01*
X23847867Y-44077279D01*
X23948858Y-44003906D01*
X24067583Y-43965330D01*
X24192417Y-43965330D01*
X24311142Y-44003906D01*
X24412132Y-44077279D01*
X24539891Y-44205038D01*
X24610997Y-44254827D01*
X24730952Y-44338821D01*
X24730953Y-44338821D01*
X24730954Y-44338822D01*
X24942346Y-44437395D01*
X25167643Y-44497763D01*
X25400000Y-44518092D01*
X25632357Y-44497763D01*
X25857654Y-44437395D01*
X26069046Y-44338822D01*
X26260109Y-44205038D01*
X26387867Y-44077279D01*
X26488858Y-44003906D01*
X26607583Y-43965330D01*
X26732417Y-43965330D01*
X26851142Y-44003906D01*
X26952132Y-44077279D01*
X27079891Y-44205038D01*
X27150997Y-44254827D01*
X27270952Y-44338821D01*
X27270953Y-44338821D01*
X27270954Y-44338822D01*
X27482346Y-44437395D01*
X27707643Y-44497763D01*
X27940000Y-44518092D01*
X28172357Y-44497763D01*
X28397654Y-44437395D01*
X28609046Y-44338822D01*
X28800109Y-44205038D01*
X28927867Y-44077279D01*
X29028858Y-44003906D01*
X29147583Y-43965330D01*
X29272417Y-43965330D01*
X29391142Y-44003906D01*
X29492132Y-44077279D01*
X29619891Y-44205038D01*
X29690997Y-44254827D01*
X29810952Y-44338821D01*
X29810953Y-44338821D01*
X29810954Y-44338822D01*
X30022346Y-44437395D01*
X30247643Y-44497763D01*
X30480000Y-44518092D01*
X30712357Y-44497763D01*
X30937654Y-44437395D01*
X31149046Y-44338822D01*
X31340109Y-44205038D01*
X31467867Y-44077279D01*
X31568858Y-44003906D01*
X31687583Y-43965330D01*
X31812417Y-43965330D01*
X31931142Y-44003906D01*
X32032132Y-44077279D01*
X32159891Y-44205038D01*
X32230997Y-44254827D01*
X32350952Y-44338821D01*
X32350953Y-44338821D01*
X32350954Y-44338822D01*
X32562346Y-44437395D01*
X32787643Y-44497763D01*
X33020000Y-44518092D01*
X33252357Y-44497763D01*
X33477654Y-44437395D01*
X33689046Y-44338822D01*
X33880109Y-44205038D01*
X34007867Y-44077279D01*
X34108858Y-44003906D01*
X34227583Y-43965330D01*
X34352417Y-43965330D01*
X34471142Y-44003906D01*
X34572132Y-44077279D01*
X34699891Y-44205038D01*
X34770997Y-44254827D01*
X34890952Y-44338821D01*
X34890953Y-44338821D01*
X34890954Y-44338822D01*
X35102346Y-44437395D01*
X35327643Y-44497763D01*
X35560000Y-44518092D01*
X35792357Y-44497763D01*
X36017654Y-44437395D01*
X36229046Y-44338822D01*
X36420109Y-44205038D01*
X36547869Y-44077277D01*
X36648856Y-44003907D01*
X36767580Y-43965331D01*
X36892415Y-43965330D01*
X37011140Y-44003906D01*
X37112133Y-44077281D01*
X37239891Y-44205038D01*
X37317221Y-44259185D01*
X37430952Y-44338821D01*
X37430953Y-44338821D01*
X37430954Y-44338822D01*
X37642346Y-44437395D01*
X37867643Y-44497763D01*
X38100000Y-44518092D01*
X38332357Y-44497763D01*
X38557654Y-44437395D01*
X38769046Y-44338822D01*
X38960109Y-44205038D01*
X39125038Y-44040109D01*
X39258822Y-43849046D01*
X39357395Y-43637654D01*
X39417763Y-43412357D01*
X39438092Y-43180000D01*
X39417763Y-42947643D01*
X39357395Y-42722346D01*
X39258822Y-42510954D01*
X39125038Y-42319891D01*
X38960109Y-42154962D01*
X38872130Y-42093358D01*
X38769047Y-42021178D01*
X38695014Y-41986656D01*
X38557654Y-41922605D01*
X38487107Y-41903702D01*
X38332358Y-41862237D01*
X38100000Y-41841908D01*
X37867642Y-41862237D01*
X37867641Y-41862237D01*
X37642349Y-41922604D01*
X37642348Y-41922604D01*
X37642346Y-41922605D01*
X37603974Y-41940498D01*
X37430952Y-42021178D01*
X37239892Y-42154961D01*
X37239891Y-42154962D01*
X37112132Y-42282720D01*
X37011142Y-42356094D01*
X36892417Y-42394670D01*
X36767583Y-42394670D01*
X36648858Y-42356094D01*
X36547867Y-42282720D01*
X36420109Y-42154962D01*
X36332130Y-42093358D01*
X36229047Y-42021178D01*
X36155014Y-41986656D01*
X36017654Y-41922605D01*
X35947107Y-41903702D01*
X35792358Y-41862237D01*
X35560000Y-41841908D01*
X35327642Y-41862237D01*
X35327641Y-41862237D01*
X35102349Y-41922604D01*
X35102348Y-41922604D01*
X35102346Y-41922605D01*
X35063974Y-41940498D01*
X34890952Y-42021178D01*
X34699892Y-42154961D01*
X34699891Y-42154962D01*
X34572132Y-42282720D01*
X34471142Y-42356094D01*
X34352417Y-42394670D01*
X34227583Y-42394670D01*
X34108858Y-42356094D01*
X34007867Y-42282720D01*
X33880109Y-42154962D01*
X33792130Y-42093358D01*
X33689047Y-42021178D01*
X33615014Y-41986656D01*
X33477654Y-41922605D01*
X33407107Y-41903702D01*
X33252358Y-41862237D01*
X33078212Y-41847001D01*
X33020000Y-41841908D01*
X33019999Y-41841908D01*
X32787642Y-41862237D01*
X32787641Y-41862237D01*
X32562349Y-41922604D01*
X32562348Y-41922604D01*
X32562346Y-41922605D01*
X32523974Y-41940498D01*
X32350952Y-42021178D01*
X32159892Y-42154961D01*
X32159891Y-42154962D01*
X32032132Y-42282720D01*
X31931142Y-42356094D01*
X31812417Y-42394670D01*
X31687583Y-42394670D01*
X31568858Y-42356094D01*
X31467867Y-42282720D01*
X31340109Y-42154962D01*
X31252130Y-42093358D01*
X31149047Y-42021178D01*
X31075014Y-41986656D01*
X30937654Y-41922605D01*
X30867107Y-41903702D01*
X30712358Y-41862237D01*
X30480000Y-41841908D01*
X30247642Y-41862237D01*
X30247641Y-41862237D01*
X30022349Y-41922604D01*
X30022348Y-41922604D01*
X30022346Y-41922605D01*
X29983974Y-41940498D01*
X29810952Y-42021178D01*
X29619892Y-42154961D01*
X29619891Y-42154962D01*
X29492132Y-42282720D01*
X29391142Y-42356094D01*
X29272417Y-42394670D01*
X29147583Y-42394670D01*
X29028858Y-42356094D01*
X28927867Y-42282720D01*
X28800109Y-42154962D01*
X28712130Y-42093358D01*
X28609047Y-42021178D01*
X28535014Y-41986656D01*
X28397654Y-41922605D01*
X28327107Y-41903702D01*
X28172358Y-41862237D01*
X27940000Y-41841908D01*
X27707642Y-41862237D01*
X27707641Y-41862237D01*
X27482349Y-41922604D01*
X27482348Y-41922604D01*
X27482346Y-41922605D01*
X27443974Y-41940498D01*
X27270952Y-42021178D01*
X27079892Y-42154961D01*
X27079891Y-42154962D01*
X26952132Y-42282720D01*
X26851142Y-42356094D01*
X26732417Y-42394670D01*
X26607583Y-42394670D01*
X26488858Y-42356094D01*
X26387867Y-42282720D01*
X26260109Y-42154962D01*
X26172130Y-42093358D01*
X26069047Y-42021178D01*
X25995014Y-41986656D01*
X25857654Y-41922605D01*
X25787107Y-41903702D01*
X25632358Y-41862237D01*
X25400000Y-41841908D01*
X25167642Y-41862237D01*
X25167641Y-41862237D01*
X24942349Y-41922604D01*
X24942348Y-41922604D01*
X24942346Y-41922605D01*
X24903974Y-41940498D01*
X24730952Y-42021178D01*
X24539892Y-42154961D01*
X24539891Y-42154962D01*
X24412132Y-42282720D01*
X24311142Y-42356094D01*
X24192417Y-42394670D01*
X24067583Y-42394670D01*
X23948858Y-42356094D01*
X23847867Y-42282720D01*
X23720109Y-42154962D01*
X23632130Y-42093358D01*
X23529047Y-42021178D01*
X23455014Y-41986656D01*
X23317654Y-41922605D01*
X23247107Y-41903702D01*
X23092358Y-41862237D01*
X22918212Y-41847001D01*
X22860000Y-41841908D01*
X22859999Y-41841908D01*
X22627642Y-41862237D01*
X22627641Y-41862237D01*
X22402349Y-41922604D01*
X22402348Y-41922604D01*
X22402346Y-41922605D01*
X22363974Y-41940498D01*
X22190952Y-42021178D01*
X22076181Y-42101543D01*
X21963980Y-42156267D01*
X21840360Y-42173641D01*
X21717422Y-42151964D01*
X21607199Y-42093358D01*
X21527908Y-42013815D01*
X21510046Y-41989954D01*
X21450620Y-41945468D01*
X21394834Y-41903706D01*
X21394829Y-41903703D01*
X21259982Y-41853408D01*
X21206780Y-41847688D01*
X21200373Y-41847000D01*
X21200372Y-41847000D01*
X19439636Y-41847000D01*
X19439629Y-41847000D01*
X19439628Y-41847001D01*
X19432449Y-41847772D01*
X19380019Y-41853408D01*
X19380017Y-41853409D01*
X19245172Y-41903702D01*
X19245165Y-41903706D01*
X19129958Y-41989950D01*
X19129950Y-41989958D01*
X19043706Y-42105165D01*
X19043703Y-42105170D01*
X18993408Y-42240017D01*
X18987000Y-42299627D01*
X18987000Y-44060363D01*
X12700000Y-44060363D01*
X12700000Y-24999999D01*
X16489556Y-24999999D01*
X16489557Y-25000000D01*
X16881000Y-25000000D01*
X17004298Y-25019528D01*
X17115526Y-25076202D01*
X17203798Y-25164474D01*
X17260472Y-25275702D01*
X17280000Y-25399000D01*
X17280000Y-25401000D01*
X17260472Y-25524298D01*
X17203798Y-25635526D01*
X17115526Y-25723798D01*
X17004298Y-25780472D01*
X16881000Y-25800000D01*
X16489557Y-25800000D01*
X16506568Y-25863489D01*
X16506569Y-25863490D01*
X16606399Y-26077576D01*
X16741888Y-26271075D01*
X16908924Y-26438111D01*
X17102423Y-26573600D01*
X17316509Y-26673430D01*
X17316510Y-26673431D01*
X17379999Y-26690442D01*
X17380000Y-26690442D01*
X17380000Y-26299000D01*
X17399528Y-26175702D01*
X17456202Y-26064474D01*
X17544474Y-25976202D01*
X17655702Y-25919528D01*
X17779000Y-25900000D01*
X17781000Y-25900000D01*
X17904298Y-25919528D01*
X18015526Y-25976202D01*
X18103798Y-26064474D01*
X18160472Y-26175702D01*
X18180000Y-26299000D01*
X18180000Y-26690442D01*
X18243489Y-26673431D01*
X18243490Y-26673430D01*
X18457578Y-26573599D01*
X18553933Y-26506131D01*
X18666134Y-26451406D01*
X18789753Y-26434032D01*
X18912692Y-26455708D01*
X19022915Y-26514314D01*
X19102204Y-26593854D01*
X19112454Y-26607546D01*
X19227669Y-26693796D01*
X19362517Y-26744091D01*
X19422127Y-26750500D01*
X21217872Y-26750499D01*
X21277483Y-26744091D01*
X21412331Y-26693796D01*
X21527546Y-26607546D01*
X21613796Y-26492331D01*
X21613795Y-26492331D01*
X21630899Y-26469485D01*
X21633500Y-26471432D01*
X21681307Y-26409433D01*
X21784352Y-26338967D01*
X21904128Y-26303793D01*
X21955281Y-26300500D01*
X29941729Y-26300500D01*
X30065027Y-26320028D01*
X30176255Y-26376702D01*
X30223865Y-26417364D01*
X32002636Y-28196135D01*
X32076012Y-28297129D01*
X32114588Y-28415854D01*
X32119500Y-28478271D01*
X32119500Y-28844718D01*
X32099972Y-28968016D01*
X32043298Y-29079244D01*
X31955026Y-29167516D01*
X31939571Y-29177293D01*
X31812458Y-29272450D01*
X31812448Y-29272460D01*
X31802501Y-29285748D01*
X31712975Y-29372748D01*
X31600947Y-29427824D01*
X31477383Y-29445586D01*
X31354377Y-29424295D01*
X31254234Y-29373468D01*
X31157833Y-29305966D01*
X31028094Y-29245468D01*
X30943663Y-29206097D01*
X30943660Y-29206096D01*
X30715409Y-29144937D01*
X30480000Y-29124341D01*
X30244590Y-29144937D01*
X30016338Y-29206096D01*
X30016331Y-29206099D01*
X29802172Y-29305964D01*
X29802170Y-29305965D01*
X29608602Y-29441502D01*
X29608599Y-29441504D01*
X29608599Y-29441505D01*
X29492132Y-29557971D01*
X29391142Y-29631345D01*
X29272417Y-29669921D01*
X29147583Y-29669921D01*
X29028858Y-29631345D01*
X28927867Y-29557971D01*
X28811401Y-29441505D01*
X28734517Y-29387670D01*
X28617833Y-29305966D01*
X28488094Y-29245468D01*
X28403663Y-29206097D01*
X28403660Y-29206096D01*
X28175409Y-29144937D01*
X28033987Y-29132564D01*
X27940000Y-29124341D01*
X27939999Y-29124341D01*
X27704590Y-29144937D01*
X27476338Y-29206096D01*
X27476331Y-29206099D01*
X27262172Y-29305964D01*
X27262170Y-29305965D01*
X27068602Y-29441502D01*
X27068599Y-29441504D01*
X27068599Y-29441505D01*
X26952132Y-29557971D01*
X26851142Y-29631345D01*
X26732417Y-29669921D01*
X26607583Y-29669921D01*
X26488858Y-29631345D01*
X26387867Y-29557971D01*
X26271401Y-29441505D01*
X26194517Y-29387670D01*
X26077833Y-29305966D01*
X25948094Y-29245468D01*
X25863663Y-29206097D01*
X25863660Y-29206096D01*
X25635409Y-29144937D01*
X25400000Y-29124341D01*
X25164590Y-29144937D01*
X24936338Y-29206096D01*
X24936331Y-29206099D01*
X24722172Y-29305964D01*
X24722170Y-29305965D01*
X24528601Y-29441503D01*
X24412134Y-29557970D01*
X24311140Y-29631345D01*
X24192415Y-29669921D01*
X24067580Y-29669920D01*
X23948855Y-29631344D01*
X23847869Y-29557973D01*
X23731401Y-29441505D01*
X23654517Y-29387670D01*
X23537833Y-29305966D01*
X23408094Y-29245468D01*
X23323663Y-29206097D01*
X23323660Y-29206096D01*
X23095409Y-29144937D01*
X22953987Y-29132564D01*
X22860000Y-29124341D01*
X22859999Y-29124341D01*
X22624590Y-29144937D01*
X22396338Y-29206096D01*
X22396331Y-29206099D01*
X22182172Y-29305964D01*
X22182170Y-29305965D01*
X21988602Y-29441502D01*
X21988599Y-29441504D01*
X21988599Y-29441505D01*
X21872132Y-29557971D01*
X21771142Y-29631345D01*
X21652417Y-29669921D01*
X21527583Y-29669921D01*
X21408858Y-29631345D01*
X21307867Y-29557971D01*
X21191401Y-29441505D01*
X21114517Y-29387670D01*
X20997833Y-29305966D01*
X20868094Y-29245468D01*
X20783663Y-29206097D01*
X20783660Y-29206096D01*
X20555409Y-29144937D01*
X20320000Y-29124341D01*
X20084590Y-29144937D01*
X19856338Y-29206096D01*
X19856331Y-29206099D01*
X19642172Y-29305964D01*
X19642170Y-29305965D01*
X19448602Y-29441502D01*
X19281502Y-29608602D01*
X19145965Y-29802170D01*
X19145964Y-29802172D01*
X19046099Y-30016331D01*
X19046096Y-30016338D01*
X18984937Y-30244590D01*
X18964341Y-30480000D01*
X18984937Y-30715409D01*
X19046096Y-30943660D01*
X19046097Y-30943663D01*
X19142369Y-31150119D01*
X19145967Y-31157834D01*
X19145969Y-31157838D01*
X19281500Y-31351395D01*
X19281502Y-31351397D01*
X19281505Y-31351401D01*
X19302638Y-31372534D01*
X19376012Y-31473525D01*
X19414588Y-31592250D01*
X19419500Y-31654667D01*
X19419500Y-32917727D01*
X19416823Y-32951730D01*
X19416875Y-32951733D01*
X19415780Y-32972610D01*
X19417707Y-33009377D01*
X19419227Y-33038383D01*
X19419500Y-33048800D01*
X19419500Y-33067182D01*
X19419501Y-33067211D01*
X19421422Y-33085495D01*
X19422240Y-33095893D01*
X19425686Y-33161644D01*
X19428957Y-33182291D01*
X19428906Y-33182298D01*
X19429928Y-33187810D01*
X19429978Y-33187800D01*
X19434327Y-33208262D01*
X19454670Y-33270873D01*
X19457635Y-33280883D01*
X19474676Y-33344477D01*
X19482172Y-33364003D01*
X19482123Y-33364021D01*
X19484268Y-33369199D01*
X19484315Y-33369179D01*
X19492820Y-33388282D01*
X19525745Y-33445311D01*
X19530720Y-33454473D01*
X19536762Y-33466330D01*
X19560616Y-33513148D01*
X19572005Y-33530684D01*
X19571962Y-33530711D01*
X19575137Y-33535332D01*
X19575179Y-33535302D01*
X19587464Y-33552211D01*
X19587467Y-33552216D01*
X19587470Y-33552219D01*
X19587472Y-33552222D01*
X19631530Y-33601155D01*
X19638305Y-33609087D01*
X19649882Y-33623382D01*
X19662886Y-33636386D01*
X19670077Y-33643963D01*
X19714128Y-33692887D01*
X19729669Y-33706880D01*
X19729634Y-33706918D01*
X19755566Y-33729065D01*
X22202886Y-36176386D01*
X22210068Y-36183953D01*
X22254129Y-36232888D01*
X22307410Y-36271598D01*
X22315684Y-36277948D01*
X22366852Y-36319384D01*
X22384395Y-36330777D01*
X22384367Y-36330819D01*
X22389133Y-36333740D01*
X22389160Y-36333695D01*
X22407270Y-36344151D01*
X22467421Y-36370932D01*
X22476835Y-36375422D01*
X22535512Y-36405320D01*
X22535517Y-36405321D01*
X22555033Y-36412813D01*
X22555014Y-36412861D01*
X22560298Y-36414733D01*
X22560315Y-36414683D01*
X22580186Y-36421139D01*
X22580197Y-36421144D01*
X22644632Y-36434839D01*
X22654739Y-36437266D01*
X22683236Y-36444902D01*
X22718348Y-36454311D01*
X22739003Y-36457582D01*
X22738994Y-36457634D01*
X22744553Y-36458365D01*
X22744559Y-36458314D01*
X22765352Y-36460499D01*
X22765354Y-36460500D01*
X22831204Y-36460500D01*
X22841648Y-36460774D01*
X22907387Y-36464219D01*
X22907387Y-36464218D01*
X22907388Y-36464219D01*
X22907388Y-36464218D01*
X22928268Y-36463125D01*
X22928270Y-36463175D01*
X22933854Y-36462736D01*
X22933849Y-36462686D01*
X22954636Y-36460500D01*
X22954646Y-36460500D01*
X23019074Y-36446804D01*
X23029319Y-36444906D01*
X23094350Y-36434607D01*
X23094355Y-36434604D01*
X23114554Y-36429194D01*
X23114567Y-36429244D01*
X23119927Y-36427656D01*
X23119911Y-36427607D01*
X23139793Y-36421145D01*
X23139803Y-36421144D01*
X23199965Y-36394356D01*
X23209586Y-36390371D01*
X23271070Y-36366771D01*
X23271073Y-36366768D01*
X23289700Y-36357278D01*
X23289724Y-36357325D01*
X23294646Y-36354652D01*
X23294620Y-36354606D01*
X23312721Y-36344154D01*
X23312730Y-36344151D01*
X23366012Y-36305438D01*
X23374598Y-36299538D01*
X23429825Y-36263674D01*
X23429829Y-36263669D01*
X23446074Y-36250515D01*
X23446108Y-36250557D01*
X23450364Y-36246921D01*
X23450329Y-36246882D01*
X23465868Y-36232890D01*
X23465867Y-36232890D01*
X23465871Y-36232888D01*
X23509959Y-36183922D01*
X23517088Y-36176409D01*
X23563674Y-36129825D01*
X23563675Y-36129822D01*
X23576835Y-36113572D01*
X23576877Y-36113606D01*
X23580283Y-36109166D01*
X23580240Y-36109135D01*
X23592530Y-36092220D01*
X23592531Y-36092218D01*
X23592533Y-36092216D01*
X23625474Y-36035159D01*
X23630886Y-36026326D01*
X23666771Y-35971070D01*
X23666772Y-35971065D01*
X23676268Y-35952430D01*
X23676315Y-35952454D01*
X23678722Y-35947408D01*
X23678673Y-35947386D01*
X23695689Y-35909171D01*
X23698150Y-35910267D01*
X23740679Y-35826779D01*
X23828941Y-35738499D01*
X23940163Y-35681813D01*
X24063459Y-35662272D01*
X24186759Y-35681788D01*
X24297994Y-35738450D01*
X24345637Y-35779136D01*
X24742886Y-36176386D01*
X24750068Y-36183953D01*
X24794129Y-36232888D01*
X24847410Y-36271598D01*
X24855684Y-36277948D01*
X24906852Y-36319384D01*
X24924395Y-36330777D01*
X24924367Y-36330819D01*
X24929133Y-36333740D01*
X24929160Y-36333695D01*
X24947270Y-36344151D01*
X25007421Y-36370932D01*
X25016835Y-36375422D01*
X25075512Y-36405320D01*
X25075517Y-36405321D01*
X25095033Y-36412813D01*
X25095014Y-36412861D01*
X25100298Y-36414733D01*
X25100315Y-36414683D01*
X25120186Y-36421139D01*
X25120197Y-36421144D01*
X25184632Y-36434839D01*
X25194739Y-36437266D01*
X25223236Y-36444902D01*
X25258348Y-36454311D01*
X25279003Y-36457582D01*
X25278994Y-36457634D01*
X25284553Y-36458365D01*
X25284559Y-36458314D01*
X25305352Y-36460499D01*
X25305354Y-36460500D01*
X25371204Y-36460500D01*
X25381648Y-36460774D01*
X25447387Y-36464219D01*
X25447387Y-36464218D01*
X25447388Y-36464219D01*
X25447388Y-36464218D01*
X25468268Y-36463125D01*
X25468270Y-36463175D01*
X25473854Y-36462736D01*
X25473849Y-36462686D01*
X25494636Y-36460500D01*
X25494646Y-36460500D01*
X25559074Y-36446804D01*
X25569319Y-36444906D01*
X25634350Y-36434607D01*
X25634355Y-36434604D01*
X25654554Y-36429194D01*
X25654567Y-36429244D01*
X25659927Y-36427656D01*
X25659911Y-36427607D01*
X25679793Y-36421145D01*
X25679803Y-36421144D01*
X25739965Y-36394356D01*
X25749586Y-36390371D01*
X25811070Y-36366771D01*
X25811073Y-36366768D01*
X25829700Y-36357278D01*
X25829724Y-36357325D01*
X25834646Y-36354652D01*
X25834620Y-36354606D01*
X25852721Y-36344154D01*
X25852730Y-36344151D01*
X25906012Y-36305438D01*
X25914598Y-36299538D01*
X25969825Y-36263674D01*
X25969829Y-36263669D01*
X25986074Y-36250515D01*
X25986108Y-36250557D01*
X25990364Y-36246921D01*
X25990329Y-36246882D01*
X26005868Y-36232890D01*
X26005867Y-36232890D01*
X26005871Y-36232888D01*
X26049959Y-36183922D01*
X26057088Y-36176409D01*
X26103674Y-36129825D01*
X26103675Y-36129822D01*
X26116835Y-36113572D01*
X26116877Y-36113606D01*
X26120283Y-36109166D01*
X26120240Y-36109135D01*
X26132530Y-36092220D01*
X26132531Y-36092218D01*
X26132533Y-36092216D01*
X26165474Y-36035159D01*
X26170886Y-36026326D01*
X26206771Y-35971070D01*
X26206772Y-35971065D01*
X26216268Y-35952430D01*
X26216315Y-35952454D01*
X26218722Y-35947408D01*
X26218673Y-35947386D01*
X26235689Y-35909171D01*
X26238150Y-35910266D01*
X26280685Y-35826771D01*
X26368950Y-35738493D01*
X26480174Y-35681811D01*
X26603471Y-35662273D01*
X26726770Y-35681792D01*
X26838003Y-35738457D01*
X26885637Y-35779137D01*
X28552895Y-37446396D01*
X28560085Y-37453973D01*
X28604130Y-37502889D01*
X28623360Y-37516860D01*
X28657398Y-37541590D01*
X28665666Y-37547934D01*
X28716851Y-37589383D01*
X28716853Y-37589384D01*
X28734387Y-37600771D01*
X28734359Y-37600814D01*
X28739133Y-37603740D01*
X28739160Y-37603695D01*
X28757270Y-37614151D01*
X28817421Y-37640932D01*
X28826835Y-37645422D01*
X28885512Y-37675320D01*
X28885517Y-37675321D01*
X28905033Y-37682813D01*
X28905014Y-37682861D01*
X28910298Y-37684733D01*
X28910315Y-37684683D01*
X28930186Y-37691139D01*
X28930197Y-37691144D01*
X28968066Y-37699193D01*
X28994594Y-37704832D01*
X29004749Y-37707269D01*
X29068355Y-37724313D01*
X29068359Y-37724313D01*
X29089003Y-37727583D01*
X29088994Y-37727634D01*
X29094552Y-37728365D01*
X29094558Y-37728314D01*
X29115353Y-37730499D01*
X29115354Y-37730500D01*
X29181200Y-37730500D01*
X29191616Y-37730772D01*
X29257388Y-37734219D01*
X29257388Y-37734218D01*
X29257389Y-37734219D01*
X29278267Y-37733125D01*
X29278269Y-37733175D01*
X29283854Y-37732736D01*
X29283849Y-37732686D01*
X29304644Y-37730500D01*
X29304646Y-37730500D01*
X29369088Y-37716801D01*
X29379282Y-37714911D01*
X29444350Y-37704607D01*
X29444352Y-37704606D01*
X29464555Y-37699193D01*
X29464568Y-37699244D01*
X29469922Y-37697658D01*
X29469906Y-37697609D01*
X29489796Y-37691146D01*
X29489798Y-37691145D01*
X29489803Y-37691144D01*
X29549968Y-37664355D01*
X29559561Y-37660381D01*
X29621070Y-37636772D01*
X29621073Y-37636769D01*
X29639698Y-37627280D01*
X29639722Y-37627327D01*
X29644638Y-37624658D01*
X29644612Y-37624612D01*
X29662719Y-37614157D01*
X29662722Y-37614154D01*
X29662730Y-37614151D01*
X29716013Y-37575437D01*
X29724582Y-37569548D01*
X29779825Y-37533675D01*
X29779835Y-37533664D01*
X29796079Y-37520512D01*
X29796111Y-37520552D01*
X29800365Y-37516919D01*
X29800330Y-37516881D01*
X29815865Y-37502892D01*
X29815871Y-37502888D01*
X29859950Y-37453932D01*
X29867079Y-37446419D01*
X29913675Y-37399825D01*
X29913679Y-37399817D01*
X29926831Y-37383577D01*
X29926872Y-37383610D01*
X29930278Y-37379172D01*
X29930236Y-37379142D01*
X29942528Y-37362222D01*
X29942528Y-37362220D01*
X29942533Y-37362216D01*
X29975453Y-37305195D01*
X29980889Y-37296323D01*
X30016772Y-37241070D01*
X30016775Y-37241061D01*
X30026269Y-37222431D01*
X30026315Y-37222454D01*
X30028721Y-37217411D01*
X30028673Y-37217390D01*
X30045686Y-37179179D01*
X30048147Y-37180274D01*
X30090678Y-37096781D01*
X30178940Y-37008500D01*
X30290163Y-36951815D01*
X30413458Y-36932273D01*
X30536758Y-36951788D01*
X30647993Y-37008450D01*
X30695637Y-37049137D01*
X31092895Y-37446396D01*
X31100085Y-37453973D01*
X31144130Y-37502889D01*
X31163360Y-37516860D01*
X31197398Y-37541590D01*
X31205666Y-37547934D01*
X31256851Y-37589383D01*
X31256853Y-37589384D01*
X31274387Y-37600771D01*
X31274359Y-37600814D01*
X31279133Y-37603740D01*
X31279160Y-37603695D01*
X31297270Y-37614151D01*
X31357421Y-37640932D01*
X31366835Y-37645422D01*
X31425512Y-37675320D01*
X31425517Y-37675321D01*
X31445033Y-37682813D01*
X31445014Y-37682861D01*
X31450298Y-37684733D01*
X31450315Y-37684683D01*
X31470186Y-37691139D01*
X31470197Y-37691144D01*
X31508066Y-37699193D01*
X31534594Y-37704832D01*
X31544749Y-37707269D01*
X31608355Y-37724313D01*
X31608359Y-37724313D01*
X31629003Y-37727583D01*
X31628994Y-37727634D01*
X31634552Y-37728365D01*
X31634558Y-37728314D01*
X31655353Y-37730499D01*
X31655354Y-37730500D01*
X31721200Y-37730500D01*
X31731616Y-37730772D01*
X31797388Y-37734219D01*
X31797388Y-37734218D01*
X31797389Y-37734219D01*
X31818267Y-37733125D01*
X31818269Y-37733175D01*
X31823854Y-37732736D01*
X31823849Y-37732686D01*
X31844644Y-37730500D01*
X31844646Y-37730500D01*
X31909088Y-37716801D01*
X31919282Y-37714911D01*
X31984350Y-37704607D01*
X31984352Y-37704606D01*
X32004555Y-37699193D01*
X32004568Y-37699244D01*
X32009922Y-37697658D01*
X32009906Y-37697609D01*
X32029796Y-37691146D01*
X32029798Y-37691145D01*
X32029803Y-37691144D01*
X32089968Y-37664355D01*
X32099561Y-37660381D01*
X32161070Y-37636772D01*
X32161073Y-37636769D01*
X32179698Y-37627280D01*
X32179722Y-37627327D01*
X32184638Y-37624658D01*
X32184612Y-37624612D01*
X32202719Y-37614157D01*
X32202722Y-37614154D01*
X32202730Y-37614151D01*
X32256013Y-37575437D01*
X32264582Y-37569548D01*
X32319825Y-37533675D01*
X32319835Y-37533664D01*
X32336079Y-37520512D01*
X32336111Y-37520552D01*
X32340365Y-37516919D01*
X32340330Y-37516881D01*
X32355865Y-37502892D01*
X32355871Y-37502888D01*
X32399950Y-37453932D01*
X32407079Y-37446419D01*
X32453675Y-37399825D01*
X32453679Y-37399817D01*
X32466831Y-37383577D01*
X32466872Y-37383610D01*
X32470278Y-37379172D01*
X32470236Y-37379142D01*
X32482528Y-37362222D01*
X32482528Y-37362220D01*
X32482533Y-37362216D01*
X32515453Y-37305195D01*
X32520889Y-37296323D01*
X32556772Y-37241070D01*
X32556775Y-37241061D01*
X32566269Y-37222431D01*
X32566315Y-37222454D01*
X32568721Y-37217411D01*
X32568673Y-37217390D01*
X32585686Y-37179179D01*
X32588147Y-37180274D01*
X32630678Y-37096781D01*
X32718940Y-37008500D01*
X32830163Y-36951815D01*
X32953458Y-36932273D01*
X33076758Y-36951788D01*
X33187993Y-37008450D01*
X33235637Y-37049137D01*
X33632895Y-37446396D01*
X33640085Y-37453973D01*
X33684130Y-37502889D01*
X33703360Y-37516860D01*
X33737398Y-37541590D01*
X33745666Y-37547934D01*
X33796851Y-37589383D01*
X33796853Y-37589384D01*
X33814387Y-37600771D01*
X33814359Y-37600814D01*
X33819133Y-37603740D01*
X33819160Y-37603695D01*
X33837270Y-37614151D01*
X33897421Y-37640932D01*
X33906835Y-37645422D01*
X33965512Y-37675320D01*
X33965517Y-37675321D01*
X33985033Y-37682813D01*
X33985014Y-37682861D01*
X33990298Y-37684733D01*
X33990315Y-37684683D01*
X34010186Y-37691139D01*
X34010197Y-37691144D01*
X34048066Y-37699193D01*
X34074594Y-37704832D01*
X34084749Y-37707269D01*
X34148355Y-37724313D01*
X34148359Y-37724313D01*
X34169003Y-37727583D01*
X34168994Y-37727634D01*
X34174552Y-37728365D01*
X34174558Y-37728314D01*
X34195353Y-37730499D01*
X34195354Y-37730500D01*
X34261200Y-37730500D01*
X34271616Y-37730772D01*
X34337388Y-37734219D01*
X34337388Y-37734218D01*
X34337389Y-37734219D01*
X34358267Y-37733125D01*
X34358269Y-37733175D01*
X34363854Y-37732736D01*
X34363849Y-37732686D01*
X34384644Y-37730500D01*
X34384646Y-37730500D01*
X34449088Y-37716801D01*
X34459282Y-37714911D01*
X34524350Y-37704607D01*
X34524352Y-37704606D01*
X34544555Y-37699193D01*
X34544568Y-37699244D01*
X34549922Y-37697658D01*
X34549906Y-37697609D01*
X34569796Y-37691146D01*
X34569798Y-37691145D01*
X34569803Y-37691144D01*
X34629968Y-37664355D01*
X34639561Y-37660381D01*
X34701070Y-37636772D01*
X34701073Y-37636769D01*
X34719698Y-37627280D01*
X34719722Y-37627327D01*
X34724638Y-37624658D01*
X34724612Y-37624612D01*
X34742719Y-37614157D01*
X34742722Y-37614154D01*
X34742730Y-37614151D01*
X34796013Y-37575437D01*
X34804582Y-37569548D01*
X34859825Y-37533675D01*
X34859835Y-37533664D01*
X34876079Y-37520512D01*
X34876111Y-37520552D01*
X34880365Y-37516919D01*
X34880330Y-37516881D01*
X34895865Y-37502892D01*
X34895871Y-37502888D01*
X34939950Y-37453932D01*
X34947079Y-37446419D01*
X34993675Y-37399825D01*
X34993679Y-37399817D01*
X35006831Y-37383577D01*
X35006872Y-37383610D01*
X35010278Y-37379172D01*
X35010236Y-37379142D01*
X35022528Y-37362222D01*
X35022528Y-37362220D01*
X35022533Y-37362216D01*
X35055453Y-37305195D01*
X35060889Y-37296323D01*
X35096772Y-37241070D01*
X35096775Y-37241061D01*
X35106269Y-37222431D01*
X35106315Y-37222454D01*
X35108721Y-37217411D01*
X35108673Y-37217390D01*
X35125686Y-37179179D01*
X35128146Y-37180274D01*
X35170693Y-37096761D01*
X35258960Y-37008485D01*
X35370186Y-36951806D01*
X35493483Y-36932272D01*
X35616782Y-36951795D01*
X35728013Y-37008463D01*
X35775631Y-37049130D01*
X40408828Y-41682327D01*
X45010935Y-46284434D01*
X45033084Y-46310368D01*
X45033122Y-46310334D01*
X45047108Y-46325868D01*
X45047114Y-46325873D01*
X45091013Y-46365400D01*
X45096037Y-46369923D01*
X45103610Y-46377110D01*
X45116605Y-46390105D01*
X45116613Y-46390112D01*
X45116620Y-46390119D01*
X45130934Y-46401711D01*
X45138822Y-46408448D01*
X45187784Y-46452533D01*
X45187786Y-46452534D01*
X45187787Y-46452535D01*
X45204707Y-46464828D01*
X45204675Y-46464870D01*
X45209279Y-46468034D01*
X45209308Y-46467990D01*
X45226847Y-46479379D01*
X45226851Y-46479383D01*
X45285529Y-46509280D01*
X45294683Y-46514250D01*
X45351716Y-46547179D01*
X45351719Y-46547180D01*
X45370823Y-46555686D01*
X45370801Y-46555733D01*
X45375971Y-46557875D01*
X45375990Y-46557826D01*
X45395509Y-46565319D01*
X45395511Y-46565319D01*
X45395512Y-46565320D01*
X45459128Y-46582365D01*
X45469103Y-46585320D01*
X45531744Y-46605674D01*
X45531745Y-46605674D01*
X45531748Y-46605675D01*
X45552196Y-46610021D01*
X45552185Y-46610072D01*
X45557689Y-46611092D01*
X45557698Y-46611041D01*
X45578351Y-46614312D01*
X45593237Y-46615091D01*
X45644119Y-46617758D01*
X45654496Y-46618575D01*
X45672808Y-46620500D01*
X45691204Y-46620500D01*
X45701648Y-46620774D01*
X45767387Y-46624219D01*
X45767387Y-46624218D01*
X45767388Y-46624219D01*
X45767388Y-46624218D01*
X45788268Y-46623125D01*
X45788270Y-46623175D01*
X45822272Y-46620500D01*
X53434642Y-46620500D01*
X53434646Y-46620500D01*
X53470826Y-46612809D01*
X53491460Y-46609541D01*
X53528256Y-46605674D01*
X53563439Y-46594241D01*
X53583610Y-46588836D01*
X53619803Y-46581144D01*
X53653597Y-46566096D01*
X53673092Y-46558612D01*
X53708284Y-46547179D01*
X53740337Y-46528671D01*
X53758930Y-46519198D01*
X53792730Y-46504151D01*
X53822670Y-46482397D01*
X53840156Y-46471042D01*
X53872216Y-46452533D01*
X53899720Y-46427766D01*
X53915936Y-46414635D01*
X53945871Y-46392888D01*
X53970621Y-46365400D01*
X53985400Y-46350621D01*
X53993186Y-46343609D01*
X54012888Y-46325871D01*
X54034635Y-46295936D01*
X54047766Y-46279720D01*
X54072533Y-46252216D01*
X54091042Y-46220156D01*
X54102397Y-46202670D01*
X54124151Y-46172730D01*
X54139198Y-46138930D01*
X54148671Y-46120337D01*
X54167179Y-46088284D01*
X54178612Y-46053092D01*
X54186096Y-46033597D01*
X54201144Y-45999803D01*
X54208836Y-45963610D01*
X54214241Y-45943439D01*
X54225674Y-45908256D01*
X54229541Y-45871460D01*
X54232810Y-45850823D01*
X54240499Y-45814649D01*
X54240500Y-45814646D01*
X54240500Y-45777651D01*
X54241594Y-45756783D01*
X54245460Y-45720000D01*
X54245460Y-45719998D01*
X54241594Y-45683215D01*
X54240500Y-45662347D01*
X54240500Y-45625359D01*
X54240500Y-45625354D01*
X54232807Y-45589162D01*
X54229540Y-45568533D01*
X54225674Y-45531744D01*
X54214239Y-45496555D01*
X54208834Y-45476381D01*
X54201144Y-45440197D01*
X54186097Y-45406402D01*
X54178607Y-45386890D01*
X54167179Y-45351716D01*
X54148685Y-45319684D01*
X54139198Y-45301065D01*
X54124153Y-45267275D01*
X54124151Y-45267270D01*
X54102407Y-45237341D01*
X54091030Y-45219821D01*
X54089441Y-45217068D01*
X54072533Y-45187784D01*
X54047775Y-45160288D01*
X54034633Y-45144060D01*
X54012888Y-45114129D01*
X53985396Y-45089374D01*
X53970623Y-45074601D01*
X53945872Y-45047112D01*
X53915945Y-45025369D01*
X53899702Y-45012216D01*
X53872216Y-44987467D01*
X53840168Y-44968963D01*
X53822658Y-44957592D01*
X53792730Y-44935849D01*
X53792729Y-44935848D01*
X53792727Y-44935847D01*
X53758936Y-44920802D01*
X53740319Y-44911316D01*
X53708287Y-44892823D01*
X53708289Y-44892823D01*
X53708284Y-44892821D01*
X53708279Y-44892819D01*
X53708276Y-44892818D01*
X53696176Y-44888886D01*
X53673097Y-44881388D01*
X53653601Y-44873904D01*
X53619806Y-44858857D01*
X53619800Y-44858855D01*
X53583615Y-44851164D01*
X53563438Y-44845757D01*
X53528256Y-44834326D01*
X53528254Y-44834325D01*
X53528252Y-44834325D01*
X53491453Y-44830456D01*
X53470826Y-44827189D01*
X53434647Y-44819500D01*
X53434646Y-44819500D01*
X53387192Y-44819500D01*
X46258271Y-44819500D01*
X46134973Y-44799972D01*
X46023745Y-44743298D01*
X45976135Y-44702636D01*
X34037364Y-32763864D01*
X33963988Y-32662870D01*
X33925412Y-32544145D01*
X33920500Y-32481728D01*
X33920500Y-32115281D01*
X33940028Y-31991983D01*
X33996702Y-31880755D01*
X34084974Y-31792483D01*
X34100430Y-31782705D01*
X34112331Y-31773796D01*
X34227546Y-31687546D01*
X34313796Y-31572331D01*
X34313795Y-31572331D01*
X34330899Y-31549485D01*
X34333500Y-31551432D01*
X34381307Y-31489433D01*
X34484352Y-31418967D01*
X34604128Y-31383793D01*
X34655281Y-31380500D01*
X35457728Y-31380500D01*
X35491730Y-31383175D01*
X35491733Y-31383125D01*
X35512610Y-31384219D01*
X35512611Y-31384218D01*
X35512612Y-31384219D01*
X35578385Y-31380772D01*
X35588800Y-31380500D01*
X35607187Y-31380500D01*
X35607192Y-31380500D01*
X35625516Y-31378573D01*
X35635864Y-31377759D01*
X35701646Y-31374313D01*
X35701652Y-31374311D01*
X35722300Y-31371041D01*
X35722308Y-31371094D01*
X35727803Y-31370076D01*
X35727792Y-31370024D01*
X35748245Y-31365676D01*
X35748248Y-31365674D01*
X35748256Y-31365674D01*
X35810925Y-31345311D01*
X35820856Y-31342369D01*
X35884488Y-31325320D01*
X35884492Y-31325317D01*
X35904008Y-31317826D01*
X35904027Y-31317876D01*
X35909201Y-31315733D01*
X35909180Y-31315684D01*
X35928276Y-31307181D01*
X35928284Y-31307179D01*
X35985308Y-31274254D01*
X35994450Y-31269290D01*
X36053149Y-31239383D01*
X36053155Y-31239377D01*
X36070700Y-31227985D01*
X36070729Y-31228030D01*
X36075328Y-31224869D01*
X36075296Y-31224825D01*
X36092202Y-31212540D01*
X36092216Y-31212533D01*
X36141193Y-31168433D01*
X36149056Y-31161717D01*
X36163380Y-31150119D01*
X36176370Y-31137127D01*
X36183942Y-31129940D01*
X36232888Y-31085871D01*
X36232892Y-31085866D01*
X36246882Y-31070329D01*
X36246920Y-31070363D01*
X36269062Y-31044435D01*
X39373498Y-27939999D01*
X41824341Y-27939999D01*
X41844937Y-28175409D01*
X41906096Y-28403660D01*
X41906097Y-28403663D01*
X41950880Y-28499700D01*
X42005966Y-28617833D01*
X42065189Y-28702410D01*
X42073466Y-28714232D01*
X42073468Y-28714234D01*
X42128192Y-28826434D01*
X42145566Y-28950054D01*
X42123889Y-29072992D01*
X42065283Y-29183215D01*
X41985748Y-29262501D01*
X41972460Y-29272448D01*
X41972450Y-29272458D01*
X41886206Y-29387665D01*
X41886203Y-29387670D01*
X41835908Y-29522517D01*
X41829500Y-29582127D01*
X41829500Y-31377863D01*
X41829500Y-31377869D01*
X41829501Y-31377872D01*
X41830183Y-31384219D01*
X41835908Y-31437480D01*
X41835908Y-31437481D01*
X41835909Y-31437483D01*
X41847241Y-31467865D01*
X41886202Y-31572327D01*
X41886203Y-31572329D01*
X41886204Y-31572331D01*
X41972454Y-31687546D01*
X41972457Y-31687548D01*
X41972458Y-31687549D01*
X42110515Y-31790899D01*
X42108567Y-31793500D01*
X42170567Y-31841307D01*
X42241033Y-31944352D01*
X42276207Y-32064128D01*
X42279500Y-32115281D01*
X42279500Y-32917727D01*
X42276823Y-32951730D01*
X42276875Y-32951733D01*
X42275780Y-32972610D01*
X42277707Y-33009377D01*
X42279227Y-33038383D01*
X42279500Y-33048800D01*
X42279500Y-33067182D01*
X42279501Y-33067211D01*
X42281422Y-33085495D01*
X42282240Y-33095893D01*
X42285686Y-33161644D01*
X42288957Y-33182291D01*
X42288906Y-33182298D01*
X42289928Y-33187810D01*
X42289978Y-33187800D01*
X42294327Y-33208262D01*
X42314670Y-33270873D01*
X42317635Y-33280883D01*
X42334676Y-33344477D01*
X42342172Y-33364003D01*
X42342123Y-33364021D01*
X42344268Y-33369199D01*
X42344315Y-33369179D01*
X42352820Y-33388282D01*
X42385745Y-33445311D01*
X42390720Y-33454473D01*
X42396762Y-33466330D01*
X42420616Y-33513148D01*
X42432005Y-33530684D01*
X42431962Y-33530711D01*
X42435137Y-33535332D01*
X42435179Y-33535302D01*
X42447464Y-33552211D01*
X42447467Y-33552216D01*
X42447470Y-33552219D01*
X42447472Y-33552222D01*
X42491530Y-33601155D01*
X42498305Y-33609087D01*
X42509882Y-33623382D01*
X42522886Y-33636386D01*
X42530077Y-33643963D01*
X42574128Y-33692887D01*
X42589669Y-33706880D01*
X42589634Y-33706918D01*
X42615566Y-33729065D01*
X45062886Y-36176386D01*
X45070068Y-36183953D01*
X45114129Y-36232888D01*
X45167410Y-36271598D01*
X45175684Y-36277948D01*
X45226852Y-36319384D01*
X45244395Y-36330777D01*
X45244367Y-36330819D01*
X45249133Y-36333740D01*
X45249160Y-36333695D01*
X45267270Y-36344151D01*
X45327421Y-36370932D01*
X45336835Y-36375422D01*
X45395512Y-36405320D01*
X45395517Y-36405321D01*
X45415033Y-36412813D01*
X45415014Y-36412861D01*
X45420298Y-36414733D01*
X45420315Y-36414683D01*
X45440186Y-36421139D01*
X45440197Y-36421144D01*
X45504632Y-36434839D01*
X45514739Y-36437266D01*
X45543236Y-36444902D01*
X45578348Y-36454311D01*
X45599003Y-36457582D01*
X45598994Y-36457634D01*
X45604553Y-36458365D01*
X45604559Y-36458314D01*
X45625352Y-36460499D01*
X45625354Y-36460500D01*
X45691204Y-36460500D01*
X45701648Y-36460774D01*
X45767387Y-36464219D01*
X45767387Y-36464218D01*
X45767388Y-36464219D01*
X45767388Y-36464218D01*
X45788268Y-36463125D01*
X45788270Y-36463175D01*
X45793854Y-36462736D01*
X45793849Y-36462686D01*
X45814636Y-36460500D01*
X45814646Y-36460500D01*
X45879074Y-36446804D01*
X45889319Y-36444906D01*
X45954350Y-36434607D01*
X45954355Y-36434604D01*
X45974554Y-36429194D01*
X45974567Y-36429244D01*
X45979927Y-36427656D01*
X45979911Y-36427607D01*
X45999793Y-36421145D01*
X45999803Y-36421144D01*
X46059965Y-36394356D01*
X46069586Y-36390371D01*
X46131070Y-36366771D01*
X46131073Y-36366768D01*
X46149700Y-36357278D01*
X46149724Y-36357325D01*
X46154646Y-36354652D01*
X46154620Y-36354606D01*
X46172721Y-36344154D01*
X46172730Y-36344151D01*
X46226012Y-36305438D01*
X46234598Y-36299538D01*
X46289825Y-36263674D01*
X46289829Y-36263669D01*
X46306074Y-36250515D01*
X46306108Y-36250557D01*
X46310364Y-36246921D01*
X46310329Y-36246882D01*
X46325868Y-36232890D01*
X46325867Y-36232890D01*
X46325871Y-36232888D01*
X46369959Y-36183922D01*
X46377088Y-36176409D01*
X46423674Y-36129825D01*
X46423675Y-36129822D01*
X46436835Y-36113572D01*
X46436879Y-36113608D01*
X46457721Y-36086454D01*
X46458176Y-36085949D01*
X46555216Y-36007419D01*
X46671774Y-35962720D01*
X46796439Y-35956227D01*
X46917010Y-35988576D01*
X47021683Y-36056600D01*
X47100213Y-36153640D01*
X47116219Y-36184400D01*
X47129429Y-36212729D01*
X47129433Y-36212736D01*
X47255119Y-36392236D01*
X47259953Y-36399139D01*
X47408681Y-36547867D01*
X47482055Y-36648858D01*
X47520631Y-36767583D01*
X47520631Y-36892417D01*
X47482055Y-37011142D01*
X47408681Y-37112132D01*
X47322530Y-37198284D01*
X47259952Y-37260862D01*
X47259949Y-37260865D01*
X47129433Y-37447263D01*
X47129430Y-37447268D01*
X47033260Y-37653503D01*
X46974366Y-37873303D01*
X46974365Y-37873308D01*
X46954532Y-38100000D01*
X46974365Y-38326691D01*
X46974366Y-38326696D01*
X47033260Y-38546496D01*
X47129430Y-38752731D01*
X47129432Y-38752734D01*
X47233682Y-38901620D01*
X47288405Y-39013821D01*
X47305778Y-39137441D01*
X47284100Y-39260379D01*
X47225493Y-39370601D01*
X47145958Y-39449886D01*
X47102457Y-39482451D01*
X47102450Y-39482458D01*
X47016206Y-39597665D01*
X47016203Y-39597670D01*
X46965908Y-39732517D01*
X46959500Y-39792127D01*
X46959500Y-41487863D01*
X46959501Y-41487870D01*
X46965908Y-41547480D01*
X46965909Y-41547482D01*
X47016202Y-41682327D01*
X47016203Y-41682329D01*
X47016204Y-41682331D01*
X47102454Y-41797546D01*
X47217669Y-41883796D01*
X47352517Y-41934091D01*
X47412127Y-41940500D01*
X49107872Y-41940499D01*
X49167483Y-41934091D01*
X49302331Y-41883796D01*
X49417546Y-41797546D01*
X49503796Y-41682331D01*
X49554091Y-41547483D01*
X49560500Y-41487873D01*
X49560499Y-40640000D01*
X54574532Y-40640000D01*
X54594365Y-40866691D01*
X54594366Y-40866696D01*
X54653260Y-41086496D01*
X54749430Y-41292731D01*
X54749432Y-41292734D01*
X54879953Y-41479139D01*
X55040861Y-41640047D01*
X55040864Y-41640049D01*
X55040865Y-41640050D01*
X55227263Y-41770566D01*
X55227268Y-41770569D01*
X55433503Y-41866739D01*
X55496953Y-41883740D01*
X55653308Y-41925635D01*
X55880000Y-41945468D01*
X56106692Y-41925635D01*
X56326496Y-41866739D01*
X56532734Y-41770568D01*
X56719139Y-41640047D01*
X56880047Y-41479139D01*
X57010568Y-41292734D01*
X57106739Y-41086496D01*
X57165635Y-40866692D01*
X57185468Y-40640000D01*
X57165635Y-40413308D01*
X57106739Y-40193504D01*
X57010568Y-39987266D01*
X56880047Y-39800861D01*
X56731318Y-39652132D01*
X56657945Y-39551142D01*
X56619369Y-39432417D01*
X56619369Y-39307583D01*
X56657945Y-39188858D01*
X56731318Y-39087867D01*
X56880047Y-38939139D01*
X57010568Y-38752734D01*
X57106739Y-38546496D01*
X57165635Y-38326692D01*
X57185468Y-38100000D01*
X57165635Y-37873308D01*
X57106739Y-37653504D01*
X57094532Y-37627327D01*
X57010569Y-37447268D01*
X57010566Y-37447263D01*
X56880050Y-37260865D01*
X56880049Y-37260864D01*
X56880047Y-37260861D01*
X56731318Y-37112132D01*
X56657945Y-37011142D01*
X56619369Y-36892417D01*
X56619369Y-36767583D01*
X56657945Y-36648858D01*
X56731318Y-36547867D01*
X56880047Y-36399139D01*
X57010568Y-36212734D01*
X57023779Y-36184402D01*
X57093580Y-36080915D01*
X57191950Y-36004057D01*
X57309255Y-35961359D01*
X57434014Y-35957000D01*
X57554013Y-35991407D01*
X57657507Y-36061212D01*
X57682115Y-36086272D01*
X57682569Y-36086777D01*
X57703132Y-36113596D01*
X57703164Y-36113571D01*
X57716327Y-36129826D01*
X57762887Y-36176387D01*
X57770076Y-36183963D01*
X57814127Y-36232886D01*
X57829669Y-36246880D01*
X57829634Y-36246918D01*
X57833888Y-36250551D01*
X57833920Y-36250512D01*
X57850170Y-36263670D01*
X57850172Y-36263671D01*
X57850175Y-36263674D01*
X57905401Y-36299538D01*
X57914009Y-36305455D01*
X57933177Y-36319381D01*
X57967270Y-36344151D01*
X57967273Y-36344152D01*
X57985383Y-36354608D01*
X57985356Y-36354653D01*
X57990274Y-36357323D01*
X57990298Y-36357277D01*
X58008926Y-36366768D01*
X58008930Y-36366771D01*
X58070429Y-36390377D01*
X58079998Y-36394341D01*
X58140197Y-36421144D01*
X58140209Y-36421146D01*
X58160087Y-36427606D01*
X58160071Y-36427653D01*
X58165434Y-36429242D01*
X58165448Y-36429194D01*
X58185644Y-36434604D01*
X58185650Y-36434607D01*
X58250690Y-36444907D01*
X58260927Y-36446805D01*
X58325354Y-36460500D01*
X58325357Y-36460500D01*
X58346152Y-36462686D01*
X58346146Y-36462736D01*
X58351730Y-36463175D01*
X58351733Y-36463125D01*
X58372610Y-36464219D01*
X58372611Y-36464218D01*
X58372612Y-36464219D01*
X58438385Y-36460772D01*
X58448800Y-36460500D01*
X58514648Y-36460500D01*
X58535446Y-36458314D01*
X58535451Y-36458367D01*
X58540996Y-36457637D01*
X58540988Y-36457585D01*
X58561641Y-36454313D01*
X58561646Y-36454313D01*
X58625260Y-36437267D01*
X58635365Y-36434840D01*
X58699803Y-36421144D01*
X58699811Y-36421140D01*
X58719692Y-36414681D01*
X58719708Y-36414732D01*
X58724979Y-36412865D01*
X58724961Y-36412816D01*
X58744482Y-36405322D01*
X58744483Y-36405321D01*
X58744488Y-36405320D01*
X58803167Y-36375420D01*
X58812585Y-36370929D01*
X58819784Y-36367723D01*
X58872730Y-36344151D01*
X58872743Y-36344141D01*
X58890838Y-36333695D01*
X58890865Y-36333741D01*
X58895642Y-36330814D01*
X58895613Y-36330770D01*
X58913139Y-36319387D01*
X58913149Y-36319383D01*
X58964344Y-36277924D01*
X58972592Y-36271596D01*
X59025871Y-36232888D01*
X59069931Y-36183952D01*
X59077115Y-36176383D01*
X60296893Y-34956605D01*
X61524435Y-33729062D01*
X61550363Y-33706920D01*
X61550329Y-33706882D01*
X61565866Y-33692892D01*
X61565866Y-33692890D01*
X61565871Y-33692888D01*
X61609940Y-33643942D01*
X61617132Y-33636366D01*
X61630119Y-33623380D01*
X61641717Y-33609056D01*
X61648433Y-33601193D01*
X61692533Y-33552216D01*
X61692540Y-33552202D01*
X61704825Y-33535296D01*
X61704869Y-33535328D01*
X61708030Y-33530729D01*
X61707985Y-33530700D01*
X61719377Y-33513155D01*
X61719383Y-33513149D01*
X61749290Y-33454450D01*
X61754260Y-33445299D01*
X61787179Y-33388284D01*
X61787181Y-33388276D01*
X61795684Y-33369180D01*
X61795733Y-33369202D01*
X61797874Y-33364033D01*
X61797824Y-33364014D01*
X61805315Y-33344495D01*
X61805320Y-33344488D01*
X61822364Y-33280873D01*
X61825327Y-33270873D01*
X61845674Y-33208256D01*
X61845674Y-33208248D01*
X61850023Y-33187796D01*
X61850074Y-33187807D01*
X61851094Y-33182307D01*
X61851041Y-33182299D01*
X61854312Y-33161647D01*
X61857757Y-33095903D01*
X61858577Y-33085486D01*
X61860500Y-33067192D01*
X61860500Y-33048796D01*
X61860774Y-33038352D01*
X61864219Y-32972611D01*
X61863125Y-32951732D01*
X61863176Y-32951729D01*
X61860500Y-32917727D01*
X61860500Y-32115281D01*
X61880028Y-31991983D01*
X61936702Y-31880755D01*
X62024974Y-31792483D01*
X62040430Y-31782705D01*
X62052331Y-31773796D01*
X62167546Y-31687546D01*
X62253796Y-31572331D01*
X62304091Y-31437483D01*
X62310500Y-31377873D01*
X62310499Y-29582128D01*
X62304091Y-29522517D01*
X62253796Y-29387669D01*
X62167546Y-29272454D01*
X62154255Y-29262504D01*
X62067254Y-29172980D01*
X62012177Y-29060952D01*
X61994413Y-28937388D01*
X62015702Y-28814382D01*
X62066527Y-28714239D01*
X62134035Y-28617830D01*
X62233903Y-28403663D01*
X62295063Y-28175408D01*
X62315659Y-27940000D01*
X62295063Y-27704592D01*
X62233903Y-27476337D01*
X62134035Y-27262171D01*
X61998495Y-27068599D01*
X61831401Y-26901505D01*
X61759475Y-26851142D01*
X61637833Y-26765966D01*
X61524806Y-26713261D01*
X61423663Y-26666097D01*
X61423660Y-26666096D01*
X61195409Y-26604937D01*
X60960000Y-26584341D01*
X60724590Y-26604937D01*
X60496338Y-26666096D01*
X60496331Y-26666099D01*
X60282172Y-26765964D01*
X60282170Y-26765965D01*
X60088602Y-26901502D01*
X60088599Y-26901504D01*
X60088599Y-26901505D01*
X60067465Y-26922638D01*
X59966475Y-26996012D01*
X59847750Y-27034588D01*
X59785333Y-27039500D01*
X58325354Y-27039500D01*
X58289165Y-27047191D01*
X58268538Y-27050458D01*
X58231747Y-27054325D01*
X58196561Y-27065757D01*
X58176387Y-27071162D01*
X58140202Y-27078854D01*
X58140186Y-27078860D01*
X58106402Y-27093901D01*
X58086905Y-27101385D01*
X58051726Y-27112816D01*
X58051711Y-27112823D01*
X58019675Y-27131318D01*
X58001068Y-27140800D01*
X57967274Y-27155846D01*
X57967267Y-27155850D01*
X57937343Y-27177590D01*
X57919832Y-27188962D01*
X57887785Y-27207465D01*
X57887782Y-27207467D01*
X57860285Y-27232225D01*
X57844057Y-27245366D01*
X57814134Y-27267106D01*
X57814126Y-27267114D01*
X57789371Y-27294606D01*
X57774606Y-27309371D01*
X57747114Y-27334126D01*
X57747105Y-27334137D01*
X57725365Y-27364057D01*
X57712223Y-27380286D01*
X57681918Y-27413946D01*
X57584906Y-27492510D01*
X57468364Y-27537250D01*
X57343701Y-27543788D01*
X57223118Y-27511482D01*
X57118421Y-27443495D01*
X57039857Y-27346483D01*
X57023777Y-27315593D01*
X57017614Y-27302376D01*
X57010568Y-27287266D01*
X56992997Y-27262172D01*
X56880050Y-27100865D01*
X56880049Y-27100864D01*
X56880047Y-27100861D01*
X56731318Y-26952132D01*
X56657945Y-26851142D01*
X56619369Y-26732417D01*
X56619369Y-26607583D01*
X56657945Y-26488858D01*
X56731318Y-26387867D01*
X56880047Y-26239139D01*
X57010568Y-26052734D01*
X57106739Y-25846496D01*
X57165635Y-25626692D01*
X57185468Y-25400000D01*
X57165635Y-25173308D01*
X57106739Y-24953504D01*
X57098815Y-24936512D01*
X57010569Y-24747268D01*
X57010566Y-24747263D01*
X56880050Y-24560865D01*
X56880049Y-24560864D01*
X56880047Y-24560861D01*
X56814966Y-24495780D01*
X56731321Y-24412134D01*
X56657945Y-24311140D01*
X56619369Y-24192415D01*
X56619370Y-24067580D01*
X56657946Y-23948856D01*
X56731319Y-23847866D01*
X56880047Y-23699139D01*
X57010568Y-23512734D01*
X57106739Y-23306496D01*
X57165635Y-23086692D01*
X57185468Y-22860000D01*
X57165635Y-22633308D01*
X57116231Y-22448930D01*
X57106739Y-22413503D01*
X57010569Y-22207268D01*
X57010566Y-22207263D01*
X56880050Y-22020865D01*
X56880049Y-22020864D01*
X56880047Y-22020861D01*
X56719139Y-21859953D01*
X56719135Y-21859950D01*
X56719134Y-21859949D01*
X56532736Y-21729433D01*
X56532731Y-21729430D01*
X56326496Y-21633260D01*
X56106696Y-21574366D01*
X56106694Y-21574365D01*
X56106692Y-21574365D01*
X55880000Y-21554532D01*
X55653308Y-21574365D01*
X55653303Y-21574366D01*
X55433503Y-21633260D01*
X55227268Y-21729430D01*
X55227263Y-21729433D01*
X55040865Y-21859949D01*
X54879949Y-22020865D01*
X54749433Y-22207263D01*
X54749430Y-22207268D01*
X54653260Y-22413503D01*
X54594366Y-22633303D01*
X54594365Y-22633308D01*
X54574532Y-22860000D01*
X54594365Y-23086691D01*
X54594366Y-23086696D01*
X54653260Y-23306496D01*
X54749430Y-23512731D01*
X54749433Y-23512736D01*
X54763546Y-23532892D01*
X54879953Y-23699139D01*
X55028681Y-23847867D01*
X55102055Y-23948858D01*
X55140631Y-24067583D01*
X55140631Y-24192417D01*
X55102055Y-24311142D01*
X55028681Y-24412132D01*
X54945034Y-24495780D01*
X54879952Y-24560862D01*
X54879949Y-24560865D01*
X54749433Y-24747263D01*
X54749430Y-24747268D01*
X54653260Y-24953503D01*
X54620384Y-25076202D01*
X54594365Y-25173308D01*
X54574532Y-25400000D01*
X54580821Y-25471889D01*
X54594365Y-25626691D01*
X54594366Y-25626696D01*
X54653260Y-25846496D01*
X54749430Y-26052731D01*
X54749432Y-26052734D01*
X54879953Y-26239139D01*
X55028681Y-26387867D01*
X55102055Y-26488858D01*
X55140631Y-26607583D01*
X55140631Y-26732417D01*
X55102055Y-26851142D01*
X55028681Y-26952132D01*
X54946226Y-27034588D01*
X54879952Y-27100862D01*
X54879949Y-27100865D01*
X54749433Y-27287263D01*
X54749430Y-27287268D01*
X54653260Y-27493503D01*
X54594366Y-27713303D01*
X54594365Y-27713308D01*
X54574532Y-27940000D01*
X54594365Y-28166691D01*
X54594366Y-28166696D01*
X54653260Y-28386496D01*
X54749430Y-28592731D01*
X54749433Y-28592736D01*
X54879581Y-28778609D01*
X54879953Y-28779139D01*
X55029035Y-28928221D01*
X55102409Y-29029212D01*
X55140985Y-29147937D01*
X55140985Y-29272771D01*
X55102409Y-29391496D01*
X55029033Y-29492490D01*
X54880337Y-29641185D01*
X54749869Y-29827511D01*
X54749866Y-29827517D01*
X54653735Y-30033669D01*
X54653734Y-30033670D01*
X54641320Y-30080000D01*
X55076014Y-30080000D01*
X55199312Y-30099528D01*
X55310540Y-30156202D01*
X55398812Y-30244474D01*
X55455486Y-30355702D01*
X55475014Y-30479000D01*
X55475014Y-30481000D01*
X55455486Y-30604298D01*
X55398812Y-30715526D01*
X55310540Y-30803798D01*
X55199312Y-30860472D01*
X55076014Y-30880000D01*
X54641320Y-30880000D01*
X54653734Y-30926329D01*
X54653735Y-30926330D01*
X54749866Y-31132482D01*
X54749869Y-31132488D01*
X54880337Y-31318814D01*
X55029387Y-31467864D01*
X55102763Y-31568858D01*
X55141339Y-31687583D01*
X55141339Y-31812417D01*
X55102763Y-31931142D01*
X55029387Y-32032136D01*
X54880337Y-32181185D01*
X54749869Y-32367511D01*
X54749866Y-32367517D01*
X54653735Y-32573669D01*
X54653734Y-32573670D01*
X54641320Y-32620000D01*
X55076014Y-32620000D01*
X55199312Y-32639528D01*
X55310540Y-32696202D01*
X55398812Y-32784474D01*
X55455486Y-32895702D01*
X55475014Y-33019000D01*
X55475014Y-33021000D01*
X55455486Y-33144298D01*
X55398812Y-33255526D01*
X55310540Y-33343798D01*
X55199312Y-33400472D01*
X55076014Y-33420000D01*
X54641320Y-33420000D01*
X54653734Y-33466329D01*
X54653735Y-33466330D01*
X54749866Y-33672482D01*
X54749869Y-33672488D01*
X54880337Y-33858814D01*
X55029033Y-34007510D01*
X55102409Y-34108504D01*
X55140985Y-34227229D01*
X55140985Y-34352063D01*
X55102409Y-34470788D01*
X55029035Y-34571778D01*
X54879959Y-34720855D01*
X54879952Y-34720862D01*
X54879949Y-34720865D01*
X54749433Y-34907263D01*
X54749430Y-34907268D01*
X54653260Y-35113503D01*
X54594366Y-35333303D01*
X54594365Y-35333308D01*
X54574532Y-35560000D01*
X54594365Y-35786691D01*
X54594366Y-35786696D01*
X54653260Y-36006496D01*
X54749430Y-36212731D01*
X54749433Y-36212736D01*
X54875119Y-36392236D01*
X54879953Y-36399139D01*
X55028681Y-36547867D01*
X55102055Y-36648858D01*
X55140631Y-36767583D01*
X55140631Y-36892417D01*
X55102055Y-37011142D01*
X55028681Y-37112132D01*
X54942530Y-37198284D01*
X54879952Y-37260862D01*
X54879949Y-37260865D01*
X54749433Y-37447263D01*
X54749430Y-37447268D01*
X54653260Y-37653503D01*
X54594366Y-37873303D01*
X54594365Y-37873308D01*
X54574532Y-38100000D01*
X54594365Y-38326691D01*
X54594366Y-38326696D01*
X54653260Y-38546496D01*
X54749430Y-38752731D01*
X54749433Y-38752736D01*
X54853680Y-38901618D01*
X54879953Y-38939139D01*
X54879958Y-38939144D01*
X55028678Y-39087865D01*
X55102054Y-39188859D01*
X55140630Y-39307584D01*
X55140629Y-39432419D01*
X55102053Y-39551143D01*
X55028678Y-39652135D01*
X54879958Y-39800855D01*
X54879949Y-39800865D01*
X54749433Y-39987263D01*
X54749430Y-39987268D01*
X54653260Y-40193503D01*
X54594366Y-40413303D01*
X54594365Y-40413308D01*
X54574532Y-40640000D01*
X49560499Y-40640000D01*
X49560499Y-39792128D01*
X49554091Y-39732517D01*
X49503796Y-39597669D01*
X49417546Y-39482454D01*
X49417542Y-39482451D01*
X49417538Y-39482447D01*
X49374044Y-39449887D01*
X49287043Y-39360363D01*
X49231965Y-39248336D01*
X49214201Y-39124772D01*
X49235490Y-39001766D01*
X49286314Y-38901624D01*
X49390568Y-38752734D01*
X49486739Y-38546496D01*
X49545635Y-38326692D01*
X49565468Y-38100000D01*
X49545635Y-37873308D01*
X49486739Y-37653504D01*
X49474532Y-37627327D01*
X49390569Y-37447268D01*
X49390566Y-37447263D01*
X49260050Y-37260865D01*
X49260049Y-37260864D01*
X49260047Y-37260861D01*
X49111318Y-37112132D01*
X49037945Y-37011142D01*
X48999369Y-36892417D01*
X48999369Y-36767583D01*
X49037945Y-36648858D01*
X49111318Y-36547867D01*
X49260047Y-36399139D01*
X49390568Y-36212734D01*
X49486739Y-36006496D01*
X49545635Y-35786692D01*
X49565468Y-35560000D01*
X49545635Y-35333308D01*
X49491205Y-35130172D01*
X49486739Y-35113503D01*
X49390569Y-34907268D01*
X49390566Y-34907263D01*
X49260050Y-34720865D01*
X49260049Y-34720864D01*
X49260047Y-34720861D01*
X49110964Y-34571778D01*
X49037591Y-34470788D01*
X48999015Y-34352063D01*
X48999015Y-34227229D01*
X49037591Y-34108504D01*
X49110967Y-34007510D01*
X49259662Y-33858814D01*
X49390130Y-33672488D01*
X49390133Y-33672482D01*
X49486264Y-33466330D01*
X49486265Y-33466329D01*
X49498680Y-33420000D01*
X49063986Y-33420000D01*
X48940688Y-33400472D01*
X48829460Y-33343798D01*
X48741188Y-33255526D01*
X48684514Y-33144298D01*
X48664986Y-33021000D01*
X48664986Y-33019000D01*
X48684514Y-32895702D01*
X48741188Y-32784474D01*
X48829460Y-32696202D01*
X48940688Y-32639528D01*
X49063986Y-32620000D01*
X49498679Y-32620000D01*
X49486265Y-32573670D01*
X49486264Y-32573669D01*
X49390133Y-32367517D01*
X49390130Y-32367511D01*
X49259660Y-32181182D01*
X49110613Y-32032136D01*
X49037237Y-31931143D01*
X48998661Y-31812419D01*
X48998660Y-31687584D01*
X49037236Y-31568859D01*
X49110612Y-31467865D01*
X49259660Y-31318817D01*
X49390130Y-31132488D01*
X49390133Y-31132482D01*
X49486264Y-30926330D01*
X49486265Y-30926329D01*
X49498680Y-30880000D01*
X49063986Y-30880000D01*
X48940688Y-30860472D01*
X48829460Y-30803798D01*
X48741188Y-30715526D01*
X48684514Y-30604298D01*
X48664986Y-30481000D01*
X48664986Y-30479000D01*
X48684514Y-30355702D01*
X48741188Y-30244474D01*
X48829460Y-30156202D01*
X48940688Y-30099528D01*
X49063986Y-30080000D01*
X49498679Y-30080000D01*
X49486265Y-30033670D01*
X49486264Y-30033669D01*
X49390133Y-29827517D01*
X49390130Y-29827511D01*
X49259662Y-29641185D01*
X49110967Y-29492490D01*
X49037591Y-29391496D01*
X48999015Y-29272771D01*
X48999015Y-29147937D01*
X49037591Y-29029212D01*
X49110964Y-28928221D01*
X49260047Y-28779139D01*
X49390568Y-28592734D01*
X49486739Y-28386496D01*
X49545635Y-28166692D01*
X49565468Y-27940000D01*
X49545635Y-27713308D01*
X49503740Y-27556953D01*
X49486739Y-27493503D01*
X49390569Y-27287268D01*
X49390566Y-27287263D01*
X49260050Y-27100865D01*
X49260049Y-27100864D01*
X49260047Y-27100861D01*
X49193774Y-27034588D01*
X49111321Y-26952134D01*
X49037945Y-26851140D01*
X48999369Y-26732415D01*
X48999370Y-26607580D01*
X49037946Y-26488856D01*
X49111319Y-26387866D01*
X49260047Y-26239139D01*
X49390568Y-26052734D01*
X49486739Y-25846496D01*
X49545635Y-25626692D01*
X49565468Y-25400000D01*
X49545635Y-25173308D01*
X49486739Y-24953504D01*
X49478815Y-24936512D01*
X49390569Y-24747268D01*
X49390566Y-24747263D01*
X49260050Y-24560865D01*
X49260049Y-24560864D01*
X49260047Y-24560861D01*
X49194966Y-24495780D01*
X49111321Y-24412134D01*
X49037945Y-24311140D01*
X48999369Y-24192415D01*
X48999370Y-24067580D01*
X49037946Y-23948856D01*
X49111319Y-23847866D01*
X49260047Y-23699139D01*
X49390568Y-23512734D01*
X49486739Y-23306496D01*
X49545635Y-23086692D01*
X49565468Y-22860000D01*
X49545635Y-22633308D01*
X49496231Y-22448930D01*
X49486739Y-22413503D01*
X49390569Y-22207268D01*
X49390566Y-22207263D01*
X49260050Y-22020865D01*
X49260049Y-22020864D01*
X49260047Y-22020861D01*
X49099139Y-21859953D01*
X49099135Y-21859950D01*
X49099134Y-21859949D01*
X48912736Y-21729433D01*
X48912731Y-21729430D01*
X48706496Y-21633260D01*
X48486696Y-21574366D01*
X48486694Y-21574365D01*
X48486692Y-21574365D01*
X48260000Y-21554532D01*
X48033308Y-21574365D01*
X48033303Y-21574366D01*
X47813503Y-21633260D01*
X47607268Y-21729430D01*
X47607263Y-21729433D01*
X47420865Y-21859949D01*
X47259949Y-22020865D01*
X47129433Y-22207263D01*
X47129430Y-22207268D01*
X47033260Y-22413503D01*
X46974366Y-22633303D01*
X46974365Y-22633308D01*
X46954532Y-22860000D01*
X46974365Y-23086691D01*
X46974366Y-23086696D01*
X47033260Y-23306496D01*
X47129430Y-23512731D01*
X47129433Y-23512736D01*
X47143546Y-23532892D01*
X47259953Y-23699139D01*
X47408681Y-23847867D01*
X47482055Y-23948858D01*
X47520631Y-24067583D01*
X47520631Y-24192417D01*
X47482055Y-24311142D01*
X47408681Y-24412132D01*
X47325034Y-24495780D01*
X47259952Y-24560862D01*
X47259949Y-24560865D01*
X47129433Y-24747263D01*
X47129430Y-24747268D01*
X47033260Y-24953503D01*
X47000384Y-25076202D01*
X46974365Y-25173308D01*
X46954532Y-25400000D01*
X46960821Y-25471889D01*
X46974365Y-25626691D01*
X46974366Y-25626696D01*
X47033260Y-25846496D01*
X47129430Y-26052731D01*
X47129432Y-26052734D01*
X47259953Y-26239139D01*
X47408681Y-26387867D01*
X47482055Y-26488858D01*
X47520631Y-26607583D01*
X47520631Y-26732417D01*
X47482055Y-26851142D01*
X47408681Y-26952132D01*
X47326226Y-27034588D01*
X47259952Y-27100862D01*
X47259949Y-27100865D01*
X47129433Y-27287263D01*
X47129430Y-27287268D01*
X47116218Y-27315602D01*
X47046409Y-27419094D01*
X46948037Y-27495948D01*
X46830730Y-27538642D01*
X46705971Y-27542996D01*
X46585973Y-27508585D01*
X46482481Y-27438776D01*
X46458097Y-27413963D01*
X46427782Y-27380296D01*
X46414632Y-27364058D01*
X46392888Y-27334129D01*
X46381206Y-27323610D01*
X46365396Y-27309374D01*
X46350623Y-27294601D01*
X46325872Y-27267112D01*
X46295945Y-27245369D01*
X46279702Y-27232216D01*
X46252216Y-27207467D01*
X46220166Y-27188962D01*
X46202655Y-27177590D01*
X46172730Y-27155849D01*
X46172729Y-27155848D01*
X46172727Y-27155847D01*
X46138936Y-27140802D01*
X46120319Y-27131316D01*
X46088287Y-27112823D01*
X46088289Y-27112823D01*
X46088284Y-27112821D01*
X46088279Y-27112819D01*
X46088276Y-27112818D01*
X46076176Y-27108886D01*
X46053097Y-27101388D01*
X46033601Y-27093904D01*
X45999806Y-27078857D01*
X45999800Y-27078855D01*
X45963615Y-27071164D01*
X45943438Y-27065757D01*
X45908256Y-27054326D01*
X45908254Y-27054325D01*
X45908252Y-27054325D01*
X45871453Y-27050456D01*
X45850826Y-27047189D01*
X45814647Y-27039500D01*
X45814646Y-27039500D01*
X45767192Y-27039500D01*
X44354667Y-27039500D01*
X44231369Y-27019972D01*
X44120141Y-26963298D01*
X44072537Y-26922641D01*
X44051401Y-26901505D01*
X43979475Y-26851142D01*
X43857833Y-26765966D01*
X43744806Y-26713261D01*
X43643663Y-26666097D01*
X43643660Y-26666096D01*
X43415409Y-26604937D01*
X43288743Y-26593855D01*
X43180000Y-26584341D01*
X43179999Y-26584341D01*
X42944590Y-26604937D01*
X42716338Y-26666096D01*
X42716331Y-26666099D01*
X42502172Y-26765964D01*
X42502170Y-26765965D01*
X42308602Y-26901502D01*
X42141502Y-27068602D01*
X42005965Y-27262170D01*
X42005964Y-27262172D01*
X41906099Y-27476331D01*
X41906096Y-27476338D01*
X41844937Y-27704590D01*
X41824341Y-27939999D01*
X39373498Y-27939999D01*
X43744435Y-23569062D01*
X43770363Y-23546920D01*
X43770329Y-23546882D01*
X43785866Y-23532892D01*
X43785866Y-23532890D01*
X43785871Y-23532888D01*
X43829940Y-23483942D01*
X43837132Y-23476366D01*
X43850119Y-23463380D01*
X43861717Y-23449056D01*
X43868433Y-23441193D01*
X43912533Y-23392216D01*
X43912540Y-23392202D01*
X43924825Y-23375296D01*
X43924869Y-23375328D01*
X43928030Y-23370729D01*
X43927985Y-23370700D01*
X43939377Y-23353155D01*
X43939383Y-23353149D01*
X43969290Y-23294450D01*
X43974260Y-23285299D01*
X44007179Y-23228284D01*
X44007181Y-23228276D01*
X44015684Y-23209180D01*
X44015733Y-23209202D01*
X44017874Y-23204033D01*
X44017824Y-23204014D01*
X44025315Y-23184495D01*
X44025320Y-23184488D01*
X44042364Y-23120873D01*
X44045327Y-23110873D01*
X44053183Y-23086696D01*
X44065674Y-23048256D01*
X44065674Y-23048248D01*
X44070023Y-23027796D01*
X44070074Y-23027807D01*
X44071094Y-23022306D01*
X44071041Y-23022298D01*
X44074312Y-23001645D01*
X44077758Y-22935874D01*
X44078574Y-22925509D01*
X44085460Y-22860000D01*
X44085460Y-22859996D01*
X44085460Y-22839082D01*
X44085513Y-22839082D01*
X44085367Y-22833500D01*
X44085314Y-22833503D01*
X44084219Y-22812618D01*
X44084218Y-22812616D01*
X44084219Y-22812612D01*
X44073918Y-22747574D01*
X44072558Y-22737247D01*
X44065674Y-22671744D01*
X44061326Y-22651288D01*
X44061377Y-22651277D01*
X44060071Y-22645837D01*
X44060020Y-22645851D01*
X44054607Y-22625652D01*
X44054607Y-22625650D01*
X44031003Y-22564161D01*
X44027532Y-22554357D01*
X44007179Y-22491716D01*
X44007178Y-22491714D01*
X43998672Y-22472609D01*
X43998720Y-22472587D01*
X43996312Y-22467539D01*
X43996264Y-22467564D01*
X43986775Y-22448941D01*
X43986771Y-22448930D01*
X43950900Y-22393694D01*
X43945451Y-22384800D01*
X43912533Y-22327784D01*
X43912531Y-22327781D01*
X43912530Y-22327780D01*
X43900239Y-22310863D01*
X43900281Y-22310832D01*
X43896876Y-22306394D01*
X43896835Y-22306428D01*
X43883672Y-22290173D01*
X43837112Y-22243612D01*
X43829922Y-22236036D01*
X43829921Y-22236035D01*
X43799509Y-22202258D01*
X43785868Y-22187108D01*
X43770334Y-22173122D01*
X43770367Y-22173084D01*
X43766107Y-22169445D01*
X43766075Y-22169485D01*
X43749827Y-22156328D01*
X43749825Y-22156326D01*
X43694603Y-22120464D01*
X43685998Y-22114550D01*
X43666822Y-22100618D01*
X43632730Y-22075849D01*
X43632723Y-22075846D01*
X43614620Y-22065394D01*
X43614645Y-22065349D01*
X43609728Y-22062679D01*
X43609706Y-22062724D01*
X43591076Y-22053232D01*
X43591072Y-22053230D01*
X43591070Y-22053229D01*
X43529612Y-22029637D01*
X43519963Y-22025641D01*
X43459805Y-21998856D01*
X43439917Y-21992394D01*
X43439932Y-21992347D01*
X43434559Y-21990755D01*
X43434547Y-21990804D01*
X43414348Y-21985392D01*
X43349317Y-21975092D01*
X43339064Y-21973192D01*
X43274646Y-21959500D01*
X43253854Y-21957315D01*
X43253859Y-21957264D01*
X43248270Y-21956824D01*
X43248268Y-21956875D01*
X43227387Y-21955780D01*
X43161648Y-21959226D01*
X43151204Y-21959500D01*
X43085353Y-21959500D01*
X43064560Y-21961685D01*
X43064554Y-21961636D01*
X43059000Y-21962367D01*
X43059008Y-21962416D01*
X43038351Y-21965688D01*
X42974758Y-21982727D01*
X42964608Y-21985164D01*
X42900194Y-21998856D01*
X42880306Y-22005318D01*
X42880291Y-22005272D01*
X42875012Y-22007142D01*
X42875030Y-22007188D01*
X42855509Y-22014681D01*
X42796850Y-22044569D01*
X42787429Y-22049063D01*
X42727265Y-22075851D01*
X42709160Y-22086304D01*
X42709135Y-22086261D01*
X42704357Y-22089189D01*
X42704384Y-22089231D01*
X42686849Y-22100618D01*
X42635682Y-22142052D01*
X42627399Y-22148407D01*
X42574127Y-22187113D01*
X42530077Y-22236035D01*
X42522888Y-22243610D01*
X35303865Y-29462636D01*
X35202871Y-29536012D01*
X35084146Y-29574588D01*
X35021729Y-29579500D01*
X34655281Y-29579500D01*
X34531983Y-29559972D01*
X34420755Y-29503298D01*
X34332483Y-29415026D01*
X34322705Y-29399569D01*
X34227549Y-29272458D01*
X34227548Y-29272457D01*
X34227546Y-29272454D01*
X34206348Y-29256585D01*
X34089485Y-29169101D01*
X34091432Y-29166499D01*
X34029410Y-29118668D01*
X33958952Y-29015617D01*
X33923788Y-28895837D01*
X33920500Y-28844718D01*
X33920500Y-28042272D01*
X33923176Y-28008273D01*
X33923125Y-28008271D01*
X33924219Y-27987388D01*
X33920774Y-27921647D01*
X33920500Y-27911203D01*
X33920500Y-27892815D01*
X33920500Y-27892808D01*
X33918575Y-27874496D01*
X33917758Y-27864119D01*
X33914312Y-27798354D01*
X33914312Y-27798351D01*
X33911041Y-27777698D01*
X33911092Y-27777689D01*
X33910072Y-27772185D01*
X33910021Y-27772196D01*
X33905675Y-27751748D01*
X33905674Y-27751744D01*
X33885320Y-27689103D01*
X33882365Y-27679128D01*
X33865320Y-27615512D01*
X33865319Y-27615511D01*
X33865319Y-27615509D01*
X33857826Y-27595990D01*
X33857875Y-27595971D01*
X33855733Y-27590801D01*
X33855686Y-27590823D01*
X33847179Y-27571717D01*
X33847179Y-27571716D01*
X33814250Y-27514683D01*
X33809280Y-27505529D01*
X33779383Y-27446851D01*
X33779379Y-27446847D01*
X33767990Y-27429308D01*
X33768034Y-27429279D01*
X33764870Y-27424675D01*
X33764828Y-27424707D01*
X33752535Y-27407787D01*
X33752534Y-27407786D01*
X33752533Y-27407784D01*
X33708448Y-27358822D01*
X33701711Y-27350934D01*
X33690119Y-27336620D01*
X33690112Y-27336613D01*
X33690105Y-27336605D01*
X33677110Y-27323610D01*
X33669923Y-27316037D01*
X33669531Y-27315602D01*
X33650622Y-27294601D01*
X33625868Y-27267108D01*
X33610334Y-27253122D01*
X33610368Y-27253084D01*
X33584434Y-27230935D01*
X31189065Y-24835566D01*
X31166918Y-24809634D01*
X31166880Y-24809669D01*
X31152887Y-24794128D01*
X31103963Y-24750077D01*
X31096386Y-24742886D01*
X31083382Y-24729882D01*
X31069087Y-24718305D01*
X31061155Y-24711530D01*
X31012222Y-24667472D01*
X31012219Y-24667470D01*
X31012216Y-24667467D01*
X31012211Y-24667464D01*
X30995302Y-24655179D01*
X30995332Y-24655137D01*
X30990711Y-24651962D01*
X30990684Y-24652005D01*
X30973148Y-24640616D01*
X30941121Y-24624298D01*
X30914473Y-24610720D01*
X30905311Y-24605745D01*
X30848282Y-24572820D01*
X30829179Y-24564315D01*
X30829199Y-24564268D01*
X30824021Y-24562123D01*
X30824003Y-24562172D01*
X30804489Y-24554680D01*
X30804488Y-24554680D01*
X30804486Y-24554679D01*
X30804477Y-24554676D01*
X30740883Y-24537635D01*
X30730873Y-24534670D01*
X30668262Y-24514327D01*
X30647800Y-24509978D01*
X30647810Y-24509928D01*
X30642298Y-24508906D01*
X30642291Y-24508957D01*
X30621644Y-24505686D01*
X30555893Y-24502240D01*
X30545495Y-24501422D01*
X30527211Y-24499501D01*
X30527196Y-24499500D01*
X30527192Y-24499500D01*
X30527182Y-24499500D01*
X30508800Y-24499500D01*
X30498385Y-24499227D01*
X30468295Y-24497650D01*
X30432610Y-24495780D01*
X30411733Y-24496875D01*
X30411730Y-24496824D01*
X30377728Y-24499500D01*
X21955281Y-24499500D01*
X21831983Y-24479972D01*
X21720755Y-24423298D01*
X21632483Y-24335026D01*
X21622705Y-24319569D01*
X21527549Y-24192458D01*
X21527548Y-24192457D01*
X21527546Y-24192454D01*
X21527494Y-24192415D01*
X21389485Y-24089101D01*
X21391432Y-24086499D01*
X21329410Y-24038668D01*
X21258952Y-23935617D01*
X21223788Y-23815837D01*
X21220500Y-23764718D01*
X21220500Y-23353149D01*
X21220500Y-22917630D01*
X21221591Y-22896808D01*
X21225460Y-22860000D01*
X21225460Y-22859996D01*
X21225460Y-22859995D01*
X21205675Y-22671752D01*
X21205674Y-22671748D01*
X21205674Y-22671744D01*
X21147179Y-22491716D01*
X21147178Y-22491714D01*
X21147177Y-22491711D01*
X21052532Y-22327782D01*
X21033776Y-22306952D01*
X20965785Y-22202258D01*
X20933474Y-22081677D01*
X20940006Y-21957013D01*
X20984742Y-21840470D01*
X21063302Y-21743454D01*
X21167996Y-21675463D01*
X21238530Y-21651660D01*
X21259975Y-21646591D01*
X21259983Y-21646591D01*
X21394831Y-21596296D01*
X21510046Y-21510046D01*
X21528207Y-21485785D01*
X21617731Y-21398783D01*
X21729757Y-21343703D01*
X21853321Y-21325938D01*
X21976328Y-21347225D01*
X22076481Y-21398056D01*
X22191206Y-21478388D01*
X22191208Y-21478389D01*
X22402507Y-21576918D01*
X22402518Y-21576922D01*
X22627724Y-21637267D01*
X22627729Y-21637268D01*
X22860000Y-21657589D01*
X23092270Y-21637268D01*
X23092276Y-21637267D01*
X23317483Y-21576922D01*
X23476899Y-21502585D01*
X23177884Y-21203570D01*
X23104508Y-21102576D01*
X23065932Y-20983851D01*
X23065932Y-20859017D01*
X23104508Y-20740292D01*
X23177884Y-20639298D01*
X23188650Y-20628929D01*
X23190117Y-20627568D01*
X23293788Y-20558026D01*
X23413874Y-20523924D01*
X23538622Y-20528600D01*
X23655818Y-20571596D01*
X23743622Y-20637937D01*
X24059144Y-20953459D01*
X24061336Y-20953421D01*
X24180717Y-20989918D01*
X24282976Y-21061519D01*
X24332644Y-21119673D01*
X24374962Y-21180109D01*
X24539891Y-21345038D01*
X24616647Y-21398783D01*
X24730952Y-21478821D01*
X24730953Y-21478821D01*
X24730954Y-21478822D01*
X24942346Y-21577395D01*
X25167643Y-21637763D01*
X25400000Y-21658092D01*
X25632357Y-21637763D01*
X25857654Y-21577395D01*
X26069046Y-21478822D01*
X26260109Y-21345038D01*
X26387867Y-21217279D01*
X26488858Y-21143906D01*
X26607583Y-21105330D01*
X26732417Y-21105330D01*
X26851142Y-21143906D01*
X26952132Y-21217279D01*
X27079891Y-21345038D01*
X27156647Y-21398783D01*
X27270952Y-21478821D01*
X27270953Y-21478821D01*
X27270954Y-21478822D01*
X27482346Y-21577395D01*
X27707643Y-21637763D01*
X27940000Y-21658092D01*
X28172357Y-21637763D01*
X28397654Y-21577395D01*
X28609046Y-21478822D01*
X28800109Y-21345038D01*
X28927867Y-21217279D01*
X29028858Y-21143906D01*
X29147583Y-21105330D01*
X29272417Y-21105330D01*
X29391142Y-21143906D01*
X29492132Y-21217279D01*
X29619891Y-21345038D01*
X29696647Y-21398783D01*
X29810952Y-21478821D01*
X29810953Y-21478821D01*
X29810954Y-21478822D01*
X30022346Y-21577395D01*
X30247643Y-21637763D01*
X30480000Y-21658092D01*
X30712357Y-21637763D01*
X30937654Y-21577395D01*
X31149046Y-21478822D01*
X31340109Y-21345038D01*
X31467867Y-21217279D01*
X31568858Y-21143906D01*
X31687583Y-21105330D01*
X31812417Y-21105330D01*
X31931142Y-21143906D01*
X32032132Y-21217279D01*
X32159891Y-21345038D01*
X32236647Y-21398783D01*
X32350952Y-21478821D01*
X32350953Y-21478821D01*
X32350954Y-21478822D01*
X32562346Y-21577395D01*
X32787643Y-21637763D01*
X33020000Y-21658092D01*
X33252357Y-21637763D01*
X33477654Y-21577395D01*
X33689046Y-21478822D01*
X33880109Y-21345038D01*
X34007867Y-21217279D01*
X34108858Y-21143906D01*
X34227583Y-21105330D01*
X34352417Y-21105330D01*
X34471142Y-21143906D01*
X34572132Y-21217279D01*
X34699891Y-21345038D01*
X34776647Y-21398783D01*
X34890952Y-21478821D01*
X34890953Y-21478821D01*
X34890954Y-21478822D01*
X35102346Y-21577395D01*
X35327643Y-21637763D01*
X35560000Y-21658092D01*
X35792357Y-21637763D01*
X36017654Y-21577395D01*
X36229046Y-21478822D01*
X36420109Y-21345038D01*
X36547867Y-21217279D01*
X36648858Y-21143906D01*
X36767583Y-21105330D01*
X36892417Y-21105330D01*
X37011142Y-21143906D01*
X37112132Y-21217279D01*
X37239891Y-21345038D01*
X37316647Y-21398783D01*
X37430952Y-21478821D01*
X37430953Y-21478821D01*
X37430954Y-21478822D01*
X37642346Y-21577395D01*
X37867643Y-21637763D01*
X38100000Y-21658092D01*
X38332357Y-21637763D01*
X38557654Y-21577395D01*
X38769046Y-21478822D01*
X38960109Y-21345038D01*
X39125038Y-21180109D01*
X39258822Y-20989046D01*
X39357395Y-20777654D01*
X39417763Y-20552357D01*
X39438092Y-20320000D01*
X39417763Y-20087643D01*
X39357395Y-19862346D01*
X39258822Y-19650954D01*
X39125038Y-19459891D01*
X38960109Y-19294962D01*
X38884392Y-19241944D01*
X38769047Y-19161178D01*
X38695014Y-19126656D01*
X38557654Y-19062605D01*
X38487107Y-19043702D01*
X38332358Y-19002237D01*
X38158212Y-18987001D01*
X38100000Y-18981908D01*
X38099999Y-18981908D01*
X37867642Y-19002237D01*
X37867641Y-19002237D01*
X37642349Y-19062604D01*
X37642348Y-19062604D01*
X37642346Y-19062605D01*
X37579016Y-19092135D01*
X37430952Y-19161178D01*
X37239891Y-19294962D01*
X37112134Y-19422719D01*
X37011140Y-19496094D01*
X36892415Y-19534670D01*
X36767580Y-19534669D01*
X36648856Y-19496093D01*
X36547869Y-19422722D01*
X36420109Y-19294962D01*
X36344392Y-19241944D01*
X36229047Y-19161178D01*
X36155014Y-19126656D01*
X36017654Y-19062605D01*
X35947107Y-19043702D01*
X35792358Y-19002237D01*
X35560000Y-18981908D01*
X35327642Y-19002237D01*
X35327641Y-19002237D01*
X35102349Y-19062604D01*
X35102348Y-19062604D01*
X35102346Y-19062605D01*
X35039016Y-19092135D01*
X34890952Y-19161178D01*
X34703601Y-19292364D01*
X34699891Y-19294962D01*
X34572132Y-19422720D01*
X34471142Y-19496094D01*
X34352417Y-19534670D01*
X34227583Y-19534670D01*
X34108858Y-19496094D01*
X34007867Y-19422720D01*
X33880109Y-19294962D01*
X33804392Y-19241944D01*
X33689047Y-19161178D01*
X33615014Y-19126656D01*
X33477654Y-19062605D01*
X33407107Y-19043702D01*
X33252358Y-19002237D01*
X33078212Y-18987001D01*
X33020000Y-18981908D01*
X33019999Y-18981908D01*
X32787642Y-19002237D01*
X32787641Y-19002237D01*
X32562349Y-19062604D01*
X32562348Y-19062604D01*
X32562346Y-19062605D01*
X32499016Y-19092135D01*
X32350952Y-19161178D01*
X32163601Y-19292364D01*
X32159891Y-19294962D01*
X32032132Y-19422720D01*
X31931142Y-19496094D01*
X31812417Y-19534670D01*
X31687583Y-19534670D01*
X31568858Y-19496094D01*
X31467867Y-19422720D01*
X31340109Y-19294962D01*
X31264392Y-19241944D01*
X31149047Y-19161178D01*
X31075014Y-19126656D01*
X30937654Y-19062605D01*
X30867107Y-19043702D01*
X30712358Y-19002237D01*
X30480000Y-18981908D01*
X30247642Y-19002237D01*
X30247641Y-19002237D01*
X30022349Y-19062604D01*
X30022348Y-19062604D01*
X30022346Y-19062605D01*
X29959016Y-19092135D01*
X29810952Y-19161178D01*
X29623601Y-19292364D01*
X29619891Y-19294962D01*
X29492132Y-19422720D01*
X29391142Y-19496094D01*
X29272417Y-19534670D01*
X29147583Y-19534670D01*
X29028858Y-19496094D01*
X28927867Y-19422720D01*
X28800109Y-19294962D01*
X28724392Y-19241944D01*
X28609047Y-19161178D01*
X28535014Y-19126656D01*
X28397654Y-19062605D01*
X28327107Y-19043702D01*
X28172358Y-19002237D01*
X27940000Y-18981908D01*
X27707642Y-19002237D01*
X27707641Y-19002237D01*
X27482349Y-19062604D01*
X27482348Y-19062604D01*
X27482346Y-19062605D01*
X27419016Y-19092135D01*
X27270952Y-19161178D01*
X27083601Y-19292364D01*
X27079891Y-19294962D01*
X26952132Y-19422720D01*
X26851142Y-19496094D01*
X26732417Y-19534670D01*
X26607583Y-19534670D01*
X26488858Y-19496094D01*
X26387867Y-19422720D01*
X26260109Y-19294962D01*
X26184392Y-19241944D01*
X26069047Y-19161178D01*
X25995014Y-19126656D01*
X25857654Y-19062605D01*
X25787107Y-19043702D01*
X25632358Y-19002237D01*
X25400000Y-18981908D01*
X25167642Y-19002237D01*
X25167641Y-19002237D01*
X24942349Y-19062604D01*
X24942348Y-19062604D01*
X24942346Y-19062605D01*
X24879016Y-19092135D01*
X24730952Y-19161178D01*
X24539892Y-19294961D01*
X24374961Y-19459892D01*
X24332648Y-19520321D01*
X24245929Y-19610118D01*
X24135706Y-19668723D01*
X24064386Y-19681297D01*
X23746894Y-19998790D01*
X23645901Y-20072166D01*
X23527176Y-20110742D01*
X23402341Y-20110742D01*
X23283616Y-20072165D01*
X23182623Y-19998789D01*
X23152787Y-19965399D01*
X23151532Y-19963825D01*
X23089934Y-19855246D01*
X23064904Y-19732947D01*
X23078892Y-19608898D01*
X23130528Y-19495243D01*
X23181368Y-19432944D01*
X23476897Y-19137414D01*
X23317482Y-19063077D01*
X23092275Y-19002732D01*
X23092270Y-19002731D01*
X22860000Y-18982410D01*
X22627729Y-19002731D01*
X22627724Y-19002732D01*
X22402518Y-19063077D01*
X22402507Y-19063081D01*
X22191208Y-19161610D01*
X22076480Y-19241944D01*
X21964279Y-19296668D01*
X21840659Y-19314041D01*
X21717721Y-19292364D01*
X21607498Y-19233757D01*
X21528210Y-19154218D01*
X21510046Y-19129954D01*
X21420715Y-19063081D01*
X21394834Y-19043706D01*
X21394829Y-19043703D01*
X21259982Y-18993408D01*
X21206780Y-18987688D01*
X21200373Y-18987000D01*
X21200372Y-18987000D01*
X19439636Y-18987000D01*
X19439629Y-18987000D01*
X19439628Y-18987001D01*
X19432449Y-18987772D01*
X19380019Y-18993408D01*
X19380017Y-18993409D01*
X19245172Y-19043702D01*
X19245165Y-19043706D01*
X19129958Y-19129950D01*
X19129950Y-19129958D01*
X19043706Y-19245165D01*
X19043703Y-19245170D01*
X18993408Y-19380017D01*
X18987000Y-19439627D01*
X18987000Y-21200363D01*
X18987001Y-21200370D01*
X18993408Y-21259980D01*
X18993409Y-21259982D01*
X19043702Y-21394827D01*
X19043706Y-21394834D01*
X19129949Y-21510040D01*
X19129954Y-21510046D01*
X19245169Y-21596296D01*
X19380017Y-21646591D01*
X19380020Y-21646592D01*
X19401467Y-21651660D01*
X19516970Y-21699019D01*
X19612184Y-21779753D01*
X19677790Y-21885958D01*
X19707366Y-22007238D01*
X19698017Y-22131722D01*
X19650658Y-22247225D01*
X19606227Y-22306948D01*
X19587467Y-22327782D01*
X19492822Y-22491711D01*
X19434325Y-22671748D01*
X19434324Y-22671752D01*
X19414540Y-22859995D01*
X19414540Y-22860000D01*
X19418406Y-22896783D01*
X19419500Y-22917652D01*
X19419500Y-23764718D01*
X19399972Y-23888016D01*
X19343298Y-23999244D01*
X19255026Y-24087516D01*
X19239571Y-24097293D01*
X19112458Y-24192450D01*
X19112450Y-24192458D01*
X19102202Y-24206148D01*
X19012677Y-24293148D01*
X18900649Y-24348225D01*
X18777084Y-24365987D01*
X18654078Y-24344697D01*
X18553935Y-24293870D01*
X18457576Y-24226399D01*
X18243490Y-24126569D01*
X18180000Y-24109556D01*
X18180000Y-24501000D01*
X18160472Y-24624298D01*
X18103798Y-24735526D01*
X18015526Y-24823798D01*
X17904298Y-24880472D01*
X17781000Y-24900000D01*
X17779000Y-24900000D01*
X17655702Y-24880472D01*
X17544474Y-24823798D01*
X17456202Y-24735526D01*
X17399528Y-24624298D01*
X17380000Y-24501000D01*
X17380000Y-24109556D01*
X17379999Y-24109556D01*
X17316511Y-24126568D01*
X17102419Y-24226401D01*
X16908925Y-24361887D01*
X16741887Y-24528925D01*
X16606401Y-24722419D01*
X16506567Y-24936512D01*
X16489556Y-24999999D01*
X12700000Y-24999999D01*
X12700000Y-15457478D01*
X12719528Y-15334180D01*
X12768412Y-15238239D01*
X12768193Y-15237942D01*
X13429435Y-15237942D01*
X13478472Y-15334180D01*
X13493543Y-15398008D01*
X13528603Y-15630608D01*
X13528604Y-15630615D01*
X13605937Y-15881322D01*
X13719771Y-16117704D01*
X13867571Y-16334485D01*
X14046016Y-16526802D01*
X14046019Y-16526805D01*
X14251143Y-16690386D01*
X14478357Y-16821568D01*
X14722584Y-16917420D01*
X14722587Y-16917421D01*
X14803227Y-16935826D01*
X14978370Y-16975802D01*
X14978374Y-16975802D01*
X14978377Y-16975803D01*
X15174506Y-16990500D01*
X15305494Y-16990500D01*
X15501622Y-16975803D01*
X15501624Y-16975802D01*
X15501630Y-16975802D01*
X15757416Y-16917420D01*
X16001643Y-16821568D01*
X16228857Y-16690386D01*
X16433981Y-16526805D01*
X16537500Y-16415237D01*
X16612428Y-16334485D01*
X16612429Y-16334482D01*
X16612433Y-16334479D01*
X16760228Y-16117704D01*
X16874063Y-15881323D01*
X16951396Y-15630615D01*
X16986457Y-15398008D01*
X16990499Y-15371190D01*
X61749500Y-15371190D01*
X61788603Y-15630608D01*
X61788604Y-15630615D01*
X61865937Y-15881322D01*
X61979771Y-16117704D01*
X62127571Y-16334485D01*
X62306016Y-16526802D01*
X62306019Y-16526805D01*
X62511143Y-16690386D01*
X62738357Y-16821568D01*
X62982584Y-16917420D01*
X62982587Y-16917421D01*
X63063227Y-16935826D01*
X63238370Y-16975802D01*
X63238374Y-16975802D01*
X63238377Y-16975803D01*
X63434506Y-16990500D01*
X63565494Y-16990500D01*
X63761622Y-16975803D01*
X63761624Y-16975802D01*
X63761630Y-16975802D01*
X64017416Y-16917420D01*
X64261643Y-16821568D01*
X64488857Y-16690386D01*
X64693981Y-16526805D01*
X64797500Y-16415237D01*
X64872428Y-16334485D01*
X64872429Y-16334482D01*
X64872433Y-16334479D01*
X65020228Y-16117704D01*
X65134063Y-15881323D01*
X65211396Y-15630615D01*
X65246457Y-15398008D01*
X65284144Y-15278998D01*
X65310563Y-15242056D01*
X65261528Y-15145819D01*
X65246457Y-15081991D01*
X65232487Y-14989318D01*
X65211396Y-14849385D01*
X65134063Y-14598677D01*
X65020228Y-14362296D01*
X65020228Y-14362295D01*
X64872428Y-14145514D01*
X64693983Y-13953197D01*
X64693982Y-13953196D01*
X64693981Y-13953195D01*
X64488857Y-13789614D01*
X64416835Y-13748032D01*
X64261644Y-13658432D01*
X64017412Y-13562578D01*
X63761626Y-13504197D01*
X63761622Y-13504196D01*
X63664037Y-13496884D01*
X63542543Y-13468197D01*
X63500158Y-13442441D01*
X63429445Y-13478472D01*
X63335963Y-13496884D01*
X63238377Y-13504196D01*
X63238373Y-13504197D01*
X62982587Y-13562578D01*
X62738355Y-13658432D01*
X62511139Y-13789616D01*
X62511138Y-13789617D01*
X62306016Y-13953197D01*
X62127571Y-14145514D01*
X61979771Y-14362295D01*
X61865937Y-14598677D01*
X61788604Y-14849384D01*
X61788603Y-14849391D01*
X61749500Y-15108809D01*
X61749500Y-15371190D01*
X16990499Y-15371190D01*
X16990500Y-15371181D01*
X16990500Y-15108818D01*
X16990499Y-15108809D01*
X16977493Y-15022521D01*
X16951396Y-14849385D01*
X16874063Y-14598677D01*
X16760228Y-14362296D01*
X16760228Y-14362295D01*
X16612428Y-14145514D01*
X16433983Y-13953197D01*
X16433982Y-13953196D01*
X16433981Y-13953195D01*
X16228857Y-13789614D01*
X16156835Y-13748032D01*
X16001644Y-13658432D01*
X15757412Y-13562578D01*
X15501626Y-13504197D01*
X15501622Y-13504196D01*
X15404037Y-13496884D01*
X15282543Y-13468197D01*
X15240158Y-13442441D01*
X15169445Y-13478472D01*
X15075963Y-13496884D01*
X14978377Y-13504196D01*
X14978373Y-13504197D01*
X14722587Y-13562578D01*
X14478355Y-13658432D01*
X14251139Y-13789616D01*
X14251138Y-13789617D01*
X14046016Y-13953197D01*
X13867571Y-14145514D01*
X13719771Y-14362295D01*
X13605937Y-14598677D01*
X13528604Y-14849384D01*
X13528603Y-14849391D01*
X13493543Y-15081991D01*
X13455856Y-15201001D01*
X13429435Y-15237942D01*
X12768193Y-15237942D01*
X12744852Y-15206315D01*
X12705390Y-15087882D01*
X12700000Y-15022521D01*
X12700000Y-13099000D01*
X12719528Y-12975702D01*
X12776202Y-12864474D01*
X12864474Y-12776202D01*
X12975702Y-12719528D01*
X13099000Y-12700000D01*
X15046147Y-12700000D01*
X15169445Y-12719528D01*
G37*
%TD.AperFunction*%
%TD*%
M02*
