%TF.GenerationSoftware,KiCad,Pcbnew,7.0.7*%
%TF.CreationDate,2023-10-15T14:52:50+02:00*%
%TF.ProjectId,bot_pcb_2,626f745f-7063-4625-9f32-2e6b69636164,rev?*%
%TF.SameCoordinates,Original*%
%TF.FileFunction,Copper,L1,Top*%
%TF.FilePolarity,Positive*%
%FSLAX46Y46*%
G04 Gerber Fmt 4.6, Leading zero omitted, Abs format (unit mm)*
G04 Created by KiCad (PCBNEW 7.0.7) date 2023-10-15 14:52:50*
%MOMM*%
%LPD*%
G01*
G04 APERTURE LIST*
%TA.AperFunction,ComponentPad*%
%ADD10R,1.700000X1.700000*%
%TD*%
%TA.AperFunction,ComponentPad*%
%ADD11O,1.700000X1.700000*%
%TD*%
%TA.AperFunction,ComponentPad*%
%ADD12C,1.665000*%
%TD*%
%TA.AperFunction,ComponentPad*%
%ADD13R,1.665000X1.665000*%
%TD*%
%TA.AperFunction,ComponentPad*%
%ADD14R,1.600000X1.600000*%
%TD*%
%TA.AperFunction,ComponentPad*%
%ADD15O,1.600000X1.600000*%
%TD*%
%TA.AperFunction,ViaPad*%
%ADD16C,0.800000*%
%TD*%
%TA.AperFunction,Conductor*%
%ADD17C,0.800000*%
%TD*%
G04 APERTURE END LIST*
D10*
%TO.P,J1,1,Pin_1*%
%TO.N,Net-(BT1-+)*%
X20320000Y-25400000D03*
D11*
%TO.P,J1,2,Pin_2*%
%TO.N,Net-(BT1--)*%
X17780000Y-25400000D03*
%TD*%
D10*
%TO.P,J3,1,Pin_1*%
%TO.N,Net-(J3-Pin_1)*%
X43180000Y-30480000D03*
D11*
%TO.P,J3,2,Pin_2*%
%TO.N,Net-(J3-Pin_2)*%
X43180000Y-27940000D03*
%TD*%
D10*
%TO.P,J2,1,Pin_1*%
%TO.N,Net-(J2-Pin_1)*%
X60960000Y-30480000D03*
D11*
%TO.P,J2,2,Pin_2*%
%TO.N,Net-(J2-Pin_2)*%
X60960000Y-27940000D03*
%TD*%
D10*
%TO.P,J4,1,Pin_1*%
%TO.N,Net-(BT1-+)*%
X33020000Y-30480000D03*
D11*
%TO.P,J4,2,Pin_2*%
%TO.N,Net-(J4-Pin_2)*%
X30480000Y-30480000D03*
%TO.P,J4,3,Pin_3*%
%TO.N,Net-(J4-Pin_3)*%
X27940000Y-30480000D03*
%TO.P,J4,4,Pin_4*%
%TO.N,Net-(J4-Pin_4)*%
X25400000Y-30480000D03*
%TO.P,J4,5,Pin_5*%
%TO.N,Net-(J4-Pin_5)*%
X22860000Y-30480000D03*
%TO.P,J4,6,Pin_6*%
%TO.N,Net-(J4-Pin_6)*%
X20320000Y-30480000D03*
%TD*%
D12*
%TO.P,U1,1,IO4*%
%TO.N,unconnected-(U1-IO4-Pad1)*%
X38100000Y-20320000D03*
%TO.P,U1,2,IO2*%
%TO.N,Net-(U1-IO2)*%
X35560000Y-20320000D03*
%TO.P,U1,3,IO14*%
%TO.N,Net-(U1-IO14)*%
X33020000Y-20320000D03*
%TO.P,U1,4,IO15*%
%TO.N,Net-(U1-IO15)*%
X30480000Y-20320000D03*
%TO.P,U1,5,IO13*%
%TO.N,Net-(U1-IO13)*%
X27940000Y-20320000D03*
%TO.P,U1,6,IO12*%
%TO.N,Net-(U1-IO12)*%
X25400000Y-20320000D03*
%TO.P,U1,7,GND_1*%
%TO.N,Net-(BT1--)*%
X22860000Y-20320000D03*
D13*
%TO.P,U1,8,5V*%
%TO.N,Net-(BT1-+)*%
X20320000Y-20320000D03*
%TO.P,U1,9,3V3*%
%TO.N,unconnected-(U1-3V3-Pad9)*%
X20320000Y-43180000D03*
D12*
%TO.P,U1,10,IO16*%
%TO.N,unconnected-(U1-IO16-Pad10)*%
X22860000Y-43180000D03*
%TO.P,U1,11,IO0*%
%TO.N,Net-(J4-Pin_6)*%
X25400000Y-43180000D03*
%TO.P,U1,12,GND_2*%
%TO.N,Net-(J4-Pin_5)*%
X27940000Y-43180000D03*
%TO.P,U1,13,VCC*%
%TO.N,unconnected-(U1-VCC-Pad13)*%
X30480000Y-43180000D03*
%TO.P,U1,14,U0R*%
%TO.N,Net-(J4-Pin_4)*%
X33020000Y-43180000D03*
%TO.P,U1,15,U0T*%
%TO.N,Net-(J4-Pin_3)*%
X35560000Y-43180000D03*
%TO.P,U1,16,GND_3*%
%TO.N,Net-(J4-Pin_2)*%
X38100000Y-43180000D03*
%TD*%
D14*
%TO.P,U2,1,EN1\u002C2*%
%TO.N,Net-(U1-IO15)*%
X48260000Y-40640000D03*
D15*
%TO.P,U2,2,1A*%
%TO.N,Net-(U1-IO14)*%
X48260000Y-38100000D03*
%TO.P,U2,3,1Y*%
%TO.N,Net-(J3-Pin_1)*%
X48260000Y-35560000D03*
%TO.P,U2,4,GND*%
%TO.N,Net-(BT1--)*%
X48260000Y-33020000D03*
%TO.P,U2,5,GND*%
X48260000Y-30480000D03*
%TO.P,U2,6,2Y*%
%TO.N,Net-(J3-Pin_2)*%
X48260000Y-27940000D03*
%TO.P,U2,7,2A*%
%TO.N,Net-(U1-IO2)*%
X48260000Y-25400000D03*
%TO.P,U2,8,VCC2*%
%TO.N,Net-(BT1-+)*%
X48260000Y-22860000D03*
%TO.P,U2,9,EN3\u002C4*%
%TO.N,Net-(U1-IO15)*%
X55880000Y-22860000D03*
%TO.P,U2,10,3A*%
%TO.N,Net-(U1-IO13)*%
X55880000Y-25400000D03*
%TO.P,U2,11,3Y*%
%TO.N,Net-(J2-Pin_2)*%
X55880000Y-27940000D03*
%TO.P,U2,12,GND*%
%TO.N,Net-(BT1--)*%
X55880000Y-30480000D03*
%TO.P,U2,13,GND*%
X55880000Y-33020000D03*
%TO.P,U2,14,4Y*%
%TO.N,Net-(J2-Pin_1)*%
X55880000Y-35560000D03*
%TO.P,U2,15,4A*%
%TO.N,Net-(U1-IO12)*%
X55880000Y-38100000D03*
%TO.P,U2,16,VCC1*%
%TO.N,Net-(BT1-+)*%
X55880000Y-40640000D03*
%TD*%
D16*
%TO.N,Net-(BT1-+)*%
X43180000Y-22860000D03*
X20320000Y-22860000D03*
X53340000Y-45720000D03*
%TO.N,Net-(BT1--)*%
X17780000Y-38100000D03*
%TO.N,Net-(J2-Pin_1)*%
X58420000Y-35560000D03*
%TO.N,Net-(J2-Pin_2)*%
X58420000Y-27940000D03*
%TO.N,Net-(J3-Pin_1)*%
X45720000Y-35560000D03*
%TO.N,Net-(J3-Pin_2)*%
X45720000Y-27940000D03*
%TO.N,Net-(J4-Pin_2)*%
X34290000Y-36830000D03*
%TO.N,Net-(J4-Pin_3)*%
X31750000Y-36830000D03*
%TO.N,Net-(J4-Pin_5)*%
X25400000Y-35560000D03*
%TO.N,Net-(J4-Pin_4)*%
X29210000Y-36830000D03*
%TO.N,Net-(J4-Pin_6)*%
X22860000Y-35560000D03*
%TD*%
D17*
%TO.N,Net-(BT1-+)*%
X55880000Y-40640000D02*
X55880000Y-43180000D01*
X20320000Y-20320000D02*
X20320000Y-22860000D01*
X55880000Y-43180000D02*
X53340000Y-45720000D01*
X43180000Y-22860000D02*
X48260000Y-22860000D01*
%TO.N,Net-(J2-Pin_1)*%
X55880000Y-35560000D02*
X58420000Y-35560000D01*
%TO.N,Net-(J2-Pin_2)*%
X55880000Y-27940000D02*
X58420000Y-27940000D01*
%TO.N,Net-(J3-Pin_1)*%
X48260000Y-35560000D02*
X45720000Y-35560000D01*
%TO.N,Net-(J3-Pin_2)*%
X48260000Y-27940000D02*
X45720000Y-27940000D01*
%TO.N,Net-(U1-IO2)*%
X48260000Y-25400000D02*
X38100000Y-25400000D01*
X38100000Y-25400000D02*
X35560000Y-22860000D01*
X35560000Y-22860000D02*
X35560000Y-20320000D01*
%TO.N,Net-(U1-IO14)*%
X45720000Y-38100000D02*
X48260000Y-38100000D01*
X40640000Y-30480000D02*
X40640000Y-33020000D01*
X33020000Y-22860000D02*
X40640000Y-30480000D01*
X40640000Y-33020000D02*
X45720000Y-38100000D01*
X33020000Y-20320000D02*
X33020000Y-22860000D01*
%TO.N,Net-(U1-IO15)*%
X38100000Y-33020000D02*
X45720000Y-40640000D01*
X30480000Y-20320000D02*
X30480000Y-22860000D01*
X45720000Y-40640000D02*
X48260000Y-40640000D01*
X30480000Y-22860000D02*
X38100000Y-30480000D01*
X55880000Y-20320000D02*
X52456065Y-16896065D01*
X30480000Y-17780000D02*
X30480000Y-20320000D01*
X38100000Y-30480000D02*
X38100000Y-33020000D01*
X52456065Y-16896065D02*
X31363935Y-16896065D01*
X55880000Y-22860000D02*
X55880000Y-20320000D01*
X31363935Y-16896065D02*
X30480000Y-17780000D01*
%TO.N,Net-(U1-IO13)*%
X59046977Y-20946977D02*
X53696065Y-15596065D01*
X27940000Y-17780000D02*
X27940000Y-20320000D01*
X59046977Y-24773023D02*
X59046977Y-20946977D01*
X55880000Y-25400000D02*
X58420000Y-25400000D01*
X53696065Y-15596065D02*
X30123935Y-15596065D01*
X30123935Y-15596065D02*
X27940000Y-17780000D01*
X58420000Y-25400000D02*
X59046977Y-24773023D01*
%TO.N,Net-(U1-IO12)*%
X63500000Y-20320000D02*
X57476065Y-14296065D01*
X55880000Y-38100000D02*
X60960000Y-38100000D01*
X28883935Y-14296065D02*
X25400000Y-17780000D01*
X57476065Y-14296065D02*
X28883935Y-14296065D01*
X60960000Y-38100000D02*
X63500000Y-35560000D01*
X63500000Y-35560000D02*
X63500000Y-20320000D01*
X25400000Y-17780000D02*
X25400000Y-20320000D01*
%TO.N,Net-(J4-Pin_2)*%
X38100000Y-43180000D02*
X38100000Y-40640000D01*
X38100000Y-40640000D02*
X34290000Y-36830000D01*
%TO.N,Net-(J4-Pin_3)*%
X35560000Y-43180000D02*
X35560000Y-40640000D01*
X35560000Y-40640000D02*
X31750000Y-36830000D01*
%TO.N,Net-(J4-Pin_5)*%
X27940000Y-38100000D02*
X25400000Y-35560000D01*
X27940000Y-43180000D02*
X27940000Y-38100000D01*
%TO.N,Net-(J4-Pin_4)*%
X33020000Y-40640000D02*
X29210000Y-36830000D01*
X33020000Y-43180000D02*
X33020000Y-40640000D01*
%TO.N,Net-(J4-Pin_6)*%
X25400000Y-43180000D02*
X25400000Y-38100000D01*
X25400000Y-38100000D02*
X22860000Y-35560000D01*
%TD*%
%TA.AperFunction,Conductor*%
%TO.N,Net-(BT1--)*%
G36*
X15169445Y-12719528D02*
G01*
X15237249Y-12754076D01*
X15339257Y-12711376D01*
X15433853Y-12700000D01*
X28365450Y-12700000D01*
X28488748Y-12719528D01*
X28599976Y-12776202D01*
X28688248Y-12864474D01*
X28744922Y-12975702D01*
X28764450Y-13099000D01*
X28744922Y-13222298D01*
X28688248Y-13333526D01*
X28599976Y-13421798D01*
X28527736Y-13463506D01*
X28515644Y-13468889D01*
X28458637Y-13501802D01*
X28449463Y-13506783D01*
X28390782Y-13536684D01*
X28373249Y-13548070D01*
X28373222Y-13548028D01*
X28368598Y-13551206D01*
X28368628Y-13551247D01*
X28351720Y-13563530D01*
X28302780Y-13607594D01*
X28294853Y-13614365D01*
X28280569Y-13625933D01*
X28280546Y-13625954D01*
X28267552Y-13638948D01*
X28259988Y-13646126D01*
X28233430Y-13670038D01*
X28211050Y-13690191D01*
X28197055Y-13705734D01*
X28197017Y-13705699D01*
X28174873Y-13731626D01*
X24835561Y-17070938D01*
X24809634Y-17093082D01*
X24809669Y-17093120D01*
X24794126Y-17107115D01*
X24750068Y-17156046D01*
X24742883Y-17163617D01*
X24729889Y-17176611D01*
X24729868Y-17176634D01*
X24718300Y-17190918D01*
X24711529Y-17198845D01*
X24667465Y-17247785D01*
X24655182Y-17264693D01*
X24655141Y-17264663D01*
X24651963Y-17269287D01*
X24652005Y-17269314D01*
X24640619Y-17286847D01*
X24610718Y-17345528D01*
X24605737Y-17354702D01*
X24572821Y-17411714D01*
X24564317Y-17430816D01*
X24564271Y-17430795D01*
X24562124Y-17435979D01*
X24562171Y-17435998D01*
X24554679Y-17455513D01*
X24537639Y-17519107D01*
X24534673Y-17529118D01*
X24514328Y-17591736D01*
X24509980Y-17612194D01*
X24509930Y-17612183D01*
X24508908Y-17617698D01*
X24508957Y-17617706D01*
X24505686Y-17638354D01*
X24502240Y-17704107D01*
X24501422Y-17714505D01*
X24499500Y-17732802D01*
X24499500Y-17751198D01*
X24499227Y-17761615D01*
X24497712Y-17790533D01*
X24495780Y-17827390D01*
X24496875Y-17848270D01*
X24496823Y-17848272D01*
X24499500Y-17882272D01*
X24499500Y-19170081D01*
X24479972Y-19293379D01*
X24423298Y-19404607D01*
X24382643Y-19452209D01*
X24374962Y-19459891D01*
X24370269Y-19466593D01*
X24332648Y-19520321D01*
X24245929Y-19610118D01*
X24135706Y-19668723D01*
X24064386Y-19681297D01*
X23746894Y-19998790D01*
X23645901Y-20072166D01*
X23527176Y-20110742D01*
X23402341Y-20110742D01*
X23283616Y-20072165D01*
X23182623Y-19998789D01*
X23152787Y-19965399D01*
X23151532Y-19963825D01*
X23089934Y-19855246D01*
X23064904Y-19732947D01*
X23078892Y-19608898D01*
X23130528Y-19495243D01*
X23181368Y-19432944D01*
X23476897Y-19137414D01*
X23317482Y-19063077D01*
X23092275Y-19002732D01*
X23092270Y-19002731D01*
X22860000Y-18982410D01*
X22627729Y-19002731D01*
X22627724Y-19002732D01*
X22402518Y-19063077D01*
X22402507Y-19063081D01*
X22191208Y-19161610D01*
X22076480Y-19241944D01*
X21964279Y-19296668D01*
X21840659Y-19314041D01*
X21717721Y-19292364D01*
X21607498Y-19233757D01*
X21528210Y-19154218D01*
X21510046Y-19129954D01*
X21484836Y-19111082D01*
X21394834Y-19043706D01*
X21394829Y-19043703D01*
X21259982Y-18993408D01*
X21206780Y-18987688D01*
X21200373Y-18987000D01*
X21200372Y-18987000D01*
X19439636Y-18987000D01*
X19439629Y-18987000D01*
X19439628Y-18987001D01*
X19432449Y-18987772D01*
X19380019Y-18993408D01*
X19380017Y-18993409D01*
X19245172Y-19043702D01*
X19245165Y-19043706D01*
X19129958Y-19129950D01*
X19129950Y-19129958D01*
X19043706Y-19245165D01*
X19043703Y-19245170D01*
X18993408Y-19380017D01*
X18987000Y-19439627D01*
X18987000Y-21200363D01*
X18987000Y-21200369D01*
X18987001Y-21200372D01*
X18987345Y-21203570D01*
X18993408Y-21259980D01*
X18993409Y-21259982D01*
X19043702Y-21394827D01*
X19043706Y-21394834D01*
X19129949Y-21510040D01*
X19129954Y-21510046D01*
X19245169Y-21596296D01*
X19245171Y-21596296D01*
X19259613Y-21607108D01*
X19346615Y-21696631D01*
X19401694Y-21808658D01*
X19419500Y-21926523D01*
X19419500Y-22802347D01*
X19418406Y-22823215D01*
X19414540Y-22859998D01*
X19414540Y-22860004D01*
X19434324Y-23048247D01*
X19434325Y-23048251D01*
X19434325Y-23048253D01*
X19434326Y-23048256D01*
X19454672Y-23110873D01*
X19492822Y-23228288D01*
X19587467Y-23392217D01*
X19590156Y-23395203D01*
X19594532Y-23401942D01*
X19599760Y-23409137D01*
X19599383Y-23409410D01*
X19658149Y-23499896D01*
X19690461Y-23620477D01*
X19683931Y-23745140D01*
X19639197Y-23861685D01*
X19560638Y-23958701D01*
X19455945Y-24026694D01*
X19385419Y-24050496D01*
X19362521Y-24055907D01*
X19227672Y-24106202D01*
X19227665Y-24106206D01*
X19112458Y-24192450D01*
X19112450Y-24192458D01*
X19102202Y-24206148D01*
X19012677Y-24293148D01*
X18900649Y-24348225D01*
X18777084Y-24365987D01*
X18654078Y-24344697D01*
X18553935Y-24293870D01*
X18457576Y-24226399D01*
X18243490Y-24126569D01*
X18180000Y-24109556D01*
X18180000Y-24501000D01*
X18160472Y-24624298D01*
X18103798Y-24735526D01*
X18015526Y-24823798D01*
X17904298Y-24880472D01*
X17781000Y-24900000D01*
X17779000Y-24900000D01*
X17655702Y-24880472D01*
X17544474Y-24823798D01*
X17456202Y-24735526D01*
X17399528Y-24624298D01*
X17380000Y-24501000D01*
X17380000Y-24109556D01*
X17379999Y-24109556D01*
X17316511Y-24126568D01*
X17102419Y-24226401D01*
X16908925Y-24361887D01*
X16741887Y-24528925D01*
X16606401Y-24722419D01*
X16506567Y-24936512D01*
X16489556Y-24999999D01*
X16489557Y-25000000D01*
X16881000Y-25000000D01*
X17004298Y-25019528D01*
X17115526Y-25076202D01*
X17203798Y-25164474D01*
X17260472Y-25275702D01*
X17280000Y-25399000D01*
X17280000Y-25401000D01*
X17260472Y-25524298D01*
X17203798Y-25635526D01*
X17115526Y-25723798D01*
X17004298Y-25780472D01*
X16881000Y-25800000D01*
X16489557Y-25800000D01*
X16506568Y-25863489D01*
X16506569Y-25863490D01*
X16606399Y-26077576D01*
X16741888Y-26271075D01*
X16908924Y-26438111D01*
X17102423Y-26573600D01*
X17316509Y-26673430D01*
X17316510Y-26673431D01*
X17379999Y-26690442D01*
X17380000Y-26690442D01*
X17380000Y-26299000D01*
X17399528Y-26175702D01*
X17456202Y-26064474D01*
X17544474Y-25976202D01*
X17655702Y-25919528D01*
X17779000Y-25900000D01*
X17781000Y-25900000D01*
X17904298Y-25919528D01*
X18015526Y-25976202D01*
X18103798Y-26064474D01*
X18160472Y-26175702D01*
X18180000Y-26299000D01*
X18180000Y-26690442D01*
X18243489Y-26673431D01*
X18243490Y-26673430D01*
X18457578Y-26573599D01*
X18553933Y-26506131D01*
X18666134Y-26451406D01*
X18789753Y-26434032D01*
X18912692Y-26455708D01*
X19022915Y-26514314D01*
X19102204Y-26593854D01*
X19112454Y-26607546D01*
X19227669Y-26693796D01*
X19362517Y-26744091D01*
X19422127Y-26750500D01*
X21217872Y-26750499D01*
X21277483Y-26744091D01*
X21412331Y-26693796D01*
X21527546Y-26607546D01*
X21613796Y-26492331D01*
X21664091Y-26357483D01*
X21670500Y-26297873D01*
X21670499Y-24502128D01*
X21664091Y-24442517D01*
X21613796Y-24307669D01*
X21527546Y-24192454D01*
X21501907Y-24173261D01*
X21412334Y-24106206D01*
X21412329Y-24106203D01*
X21342682Y-24080226D01*
X21277483Y-24055909D01*
X21277482Y-24055908D01*
X21277477Y-24055907D01*
X21254585Y-24050497D01*
X21139084Y-24003135D01*
X21043872Y-23922399D01*
X20978268Y-23816193D01*
X20948695Y-23694911D01*
X20958047Y-23570427D01*
X21005409Y-23454926D01*
X21049848Y-23395197D01*
X21052533Y-23392216D01*
X21102023Y-23306496D01*
X21147177Y-23228288D01*
X21147177Y-23228286D01*
X21147179Y-23228284D01*
X21205674Y-23048256D01*
X21211710Y-22990826D01*
X21225460Y-22860004D01*
X21225460Y-22859998D01*
X21221594Y-22823215D01*
X21220500Y-22802347D01*
X21220500Y-21926523D01*
X21240028Y-21803225D01*
X21296702Y-21691997D01*
X21380387Y-21607108D01*
X21394828Y-21596296D01*
X21394831Y-21596296D01*
X21510046Y-21510046D01*
X21528207Y-21485785D01*
X21617731Y-21398783D01*
X21729757Y-21343703D01*
X21853321Y-21325938D01*
X21976328Y-21347225D01*
X22076481Y-21398056D01*
X22191206Y-21478388D01*
X22191208Y-21478389D01*
X22402507Y-21576918D01*
X22402518Y-21576922D01*
X22627724Y-21637267D01*
X22627729Y-21637268D01*
X22860000Y-21657589D01*
X23092270Y-21637268D01*
X23092276Y-21637267D01*
X23317483Y-21576922D01*
X23476899Y-21502585D01*
X23177884Y-21203570D01*
X23104508Y-21102576D01*
X23065932Y-20983851D01*
X23065932Y-20859017D01*
X23104508Y-20740292D01*
X23177884Y-20639298D01*
X23188650Y-20628929D01*
X23190117Y-20627568D01*
X23293788Y-20558026D01*
X23413874Y-20523924D01*
X23538622Y-20528600D01*
X23655818Y-20571596D01*
X23743622Y-20637937D01*
X24059144Y-20953459D01*
X24061336Y-20953421D01*
X24180717Y-20989918D01*
X24282976Y-21061519D01*
X24332644Y-21119673D01*
X24374962Y-21180109D01*
X24539891Y-21345038D01*
X24616647Y-21398783D01*
X24730952Y-21478821D01*
X24730953Y-21478821D01*
X24730954Y-21478822D01*
X24942346Y-21577395D01*
X25167643Y-21637763D01*
X25400000Y-21658092D01*
X25632357Y-21637763D01*
X25857654Y-21577395D01*
X26069046Y-21478822D01*
X26260109Y-21345038D01*
X26387867Y-21217279D01*
X26488858Y-21143906D01*
X26607583Y-21105330D01*
X26732417Y-21105330D01*
X26851142Y-21143906D01*
X26952132Y-21217279D01*
X27079891Y-21345038D01*
X27156647Y-21398783D01*
X27270952Y-21478821D01*
X27270953Y-21478821D01*
X27270954Y-21478822D01*
X27482346Y-21577395D01*
X27707643Y-21637763D01*
X27940000Y-21658092D01*
X28172357Y-21637763D01*
X28397654Y-21577395D01*
X28609046Y-21478822D01*
X28800109Y-21345038D01*
X28898365Y-21246781D01*
X28999355Y-21173407D01*
X29118080Y-21134831D01*
X29242915Y-21134830D01*
X29361640Y-21173406D01*
X29462633Y-21246781D01*
X29536010Y-21347774D01*
X29574586Y-21466499D01*
X29579499Y-21528918D01*
X29579499Y-22757737D01*
X29576824Y-22791727D01*
X29576875Y-22791730D01*
X29575781Y-22812612D01*
X29579227Y-22878383D01*
X29579500Y-22888799D01*
X29579500Y-22907182D01*
X29579501Y-22907211D01*
X29581422Y-22925495D01*
X29582240Y-22935893D01*
X29585686Y-23001644D01*
X29588957Y-23022291D01*
X29588906Y-23022298D01*
X29589928Y-23027810D01*
X29589978Y-23027800D01*
X29594327Y-23048262D01*
X29614670Y-23110873D01*
X29617635Y-23120883D01*
X29634676Y-23184477D01*
X29642172Y-23204003D01*
X29642123Y-23204021D01*
X29644268Y-23209199D01*
X29644315Y-23209179D01*
X29652820Y-23228282D01*
X29685745Y-23285311D01*
X29690720Y-23294473D01*
X29700021Y-23312727D01*
X29720616Y-23353148D01*
X29732005Y-23370684D01*
X29731962Y-23370711D01*
X29735137Y-23375332D01*
X29735179Y-23375302D01*
X29747464Y-23392211D01*
X29747467Y-23392216D01*
X29747468Y-23392217D01*
X29747472Y-23392222D01*
X29791530Y-23441155D01*
X29798305Y-23449087D01*
X29809882Y-23463382D01*
X29822886Y-23476386D01*
X29830068Y-23483954D01*
X29855982Y-23512734D01*
X29874128Y-23532887D01*
X29889669Y-23546880D01*
X29889634Y-23546918D01*
X29915566Y-23569065D01*
X37082636Y-30736135D01*
X37156012Y-30837129D01*
X37194588Y-30955854D01*
X37199500Y-31018271D01*
X37199500Y-32917727D01*
X37196823Y-32951730D01*
X37196875Y-32951733D01*
X37195780Y-32972610D01*
X37197707Y-33009377D01*
X37199227Y-33038383D01*
X37199500Y-33048800D01*
X37199500Y-33067182D01*
X37199501Y-33067211D01*
X37201422Y-33085495D01*
X37202240Y-33095893D01*
X37205686Y-33161644D01*
X37208957Y-33182291D01*
X37208906Y-33182298D01*
X37209928Y-33187810D01*
X37209978Y-33187800D01*
X37214327Y-33208262D01*
X37234670Y-33270873D01*
X37237635Y-33280883D01*
X37254676Y-33344477D01*
X37262172Y-33364003D01*
X37262123Y-33364021D01*
X37264268Y-33369199D01*
X37264315Y-33369179D01*
X37272820Y-33388282D01*
X37305745Y-33445311D01*
X37310720Y-33454473D01*
X37316762Y-33466330D01*
X37340616Y-33513148D01*
X37352005Y-33530684D01*
X37351962Y-33530711D01*
X37355137Y-33535332D01*
X37355179Y-33535302D01*
X37367464Y-33552211D01*
X37367467Y-33552216D01*
X37367470Y-33552219D01*
X37367472Y-33552222D01*
X37411530Y-33601155D01*
X37418305Y-33609087D01*
X37429882Y-33623382D01*
X37442886Y-33636386D01*
X37450077Y-33643963D01*
X37494128Y-33692887D01*
X37509669Y-33706880D01*
X37509634Y-33706918D01*
X37535566Y-33729065D01*
X45010935Y-41204434D01*
X45033084Y-41230368D01*
X45033122Y-41230334D01*
X45047108Y-41245868D01*
X45096037Y-41289923D01*
X45103610Y-41297110D01*
X45116605Y-41310105D01*
X45116613Y-41310112D01*
X45116620Y-41310119D01*
X45130934Y-41321711D01*
X45138822Y-41328448D01*
X45187784Y-41372533D01*
X45187786Y-41372534D01*
X45187787Y-41372535D01*
X45204707Y-41384828D01*
X45204675Y-41384870D01*
X45209279Y-41388034D01*
X45209308Y-41387990D01*
X45226847Y-41399379D01*
X45226851Y-41399383D01*
X45285529Y-41429280D01*
X45294683Y-41434250D01*
X45351716Y-41467179D01*
X45351719Y-41467180D01*
X45370823Y-41475686D01*
X45370801Y-41475733D01*
X45375971Y-41477875D01*
X45375990Y-41477826D01*
X45395509Y-41485319D01*
X45395511Y-41485319D01*
X45395512Y-41485320D01*
X45459128Y-41502365D01*
X45469103Y-41505320D01*
X45531744Y-41525674D01*
X45531745Y-41525674D01*
X45531748Y-41525675D01*
X45552196Y-41530021D01*
X45552185Y-41530072D01*
X45557689Y-41531092D01*
X45557698Y-41531041D01*
X45578351Y-41534312D01*
X45593237Y-41535091D01*
X45644119Y-41537758D01*
X45654496Y-41538575D01*
X45672808Y-41540500D01*
X45691204Y-41540500D01*
X45701648Y-41540774D01*
X45767387Y-41544219D01*
X45767387Y-41544218D01*
X45767388Y-41544219D01*
X45767388Y-41544218D01*
X45788268Y-41543125D01*
X45788270Y-41543175D01*
X45822272Y-41540500D01*
X46710306Y-41540500D01*
X46833604Y-41560028D01*
X46944832Y-41616702D01*
X47029717Y-41700382D01*
X47102454Y-41797546D01*
X47217669Y-41883796D01*
X47352517Y-41934091D01*
X47412127Y-41940500D01*
X49107872Y-41940499D01*
X49167483Y-41934091D01*
X49302331Y-41883796D01*
X49417546Y-41797546D01*
X49503796Y-41682331D01*
X49554091Y-41547483D01*
X49560500Y-41487873D01*
X49560499Y-39792128D01*
X49554091Y-39732517D01*
X49503796Y-39597669D01*
X49417546Y-39482454D01*
X49417542Y-39482451D01*
X49417538Y-39482447D01*
X49374044Y-39449887D01*
X49287043Y-39360363D01*
X49231965Y-39248336D01*
X49214201Y-39124772D01*
X49235490Y-39001766D01*
X49286314Y-38901624D01*
X49390568Y-38752734D01*
X49486739Y-38546496D01*
X49545635Y-38326692D01*
X49565468Y-38100000D01*
X49545635Y-37873308D01*
X49486739Y-37653504D01*
X49464984Y-37606851D01*
X49390569Y-37447268D01*
X49390566Y-37447263D01*
X49260050Y-37260865D01*
X49260049Y-37260864D01*
X49260047Y-37260861D01*
X49111318Y-37112132D01*
X49037945Y-37011142D01*
X48999369Y-36892417D01*
X48999369Y-36767583D01*
X49037945Y-36648858D01*
X49111318Y-36547867D01*
X49260047Y-36399139D01*
X49390568Y-36212734D01*
X49486739Y-36006496D01*
X49545635Y-35786692D01*
X49565468Y-35560000D01*
X49545635Y-35333308D01*
X49486739Y-35113504D01*
X49483834Y-35107275D01*
X49390569Y-34907268D01*
X49390566Y-34907263D01*
X49260050Y-34720865D01*
X49260049Y-34720864D01*
X49260047Y-34720861D01*
X49110964Y-34571778D01*
X49037591Y-34470788D01*
X48999015Y-34352063D01*
X48999015Y-34227229D01*
X49037591Y-34108504D01*
X49110967Y-34007510D01*
X49259662Y-33858814D01*
X49390130Y-33672488D01*
X49390133Y-33672482D01*
X49486264Y-33466330D01*
X49486265Y-33466329D01*
X49498680Y-33420000D01*
X49063986Y-33420000D01*
X48940688Y-33400472D01*
X48829460Y-33343798D01*
X48741188Y-33255526D01*
X48684514Y-33144298D01*
X48664986Y-33021000D01*
X48664986Y-33019000D01*
X48684514Y-32895702D01*
X48741188Y-32784474D01*
X48829460Y-32696202D01*
X48940688Y-32639528D01*
X49063986Y-32620000D01*
X49498679Y-32620000D01*
X49486265Y-32573670D01*
X49486264Y-32573669D01*
X49390133Y-32367517D01*
X49390130Y-32367511D01*
X49259660Y-32181182D01*
X49110613Y-32032136D01*
X49037237Y-31931143D01*
X48998661Y-31812419D01*
X48998660Y-31687584D01*
X49037236Y-31568859D01*
X49110612Y-31467865D01*
X49259660Y-31318817D01*
X49390130Y-31132488D01*
X49390133Y-31132482D01*
X49486264Y-30926330D01*
X49486265Y-30926329D01*
X49498680Y-30880000D01*
X49063986Y-30880000D01*
X48940688Y-30860472D01*
X48829460Y-30803798D01*
X48741188Y-30715526D01*
X48684514Y-30604298D01*
X48664986Y-30481000D01*
X48664986Y-30479000D01*
X48684514Y-30355702D01*
X48741188Y-30244474D01*
X48829460Y-30156202D01*
X48940688Y-30099528D01*
X49063986Y-30080000D01*
X49498679Y-30080000D01*
X49486265Y-30033670D01*
X49486264Y-30033669D01*
X49390133Y-29827517D01*
X49390130Y-29827511D01*
X49259662Y-29641185D01*
X49110967Y-29492490D01*
X49037591Y-29391496D01*
X48999015Y-29272771D01*
X48999015Y-29147937D01*
X49037591Y-29029212D01*
X49110964Y-28928221D01*
X49260047Y-28779139D01*
X49390568Y-28592734D01*
X49486739Y-28386496D01*
X49545635Y-28166692D01*
X49565468Y-27940000D01*
X49545635Y-27713308D01*
X49489417Y-27503497D01*
X49486739Y-27493503D01*
X49390569Y-27287268D01*
X49390566Y-27287263D01*
X49260050Y-27100865D01*
X49260049Y-27100864D01*
X49260047Y-27100861D01*
X49188316Y-27029130D01*
X49111321Y-26952134D01*
X49037945Y-26851140D01*
X48999369Y-26732415D01*
X48999370Y-26607580D01*
X49037946Y-26488856D01*
X49111319Y-26387866D01*
X49260047Y-26239139D01*
X49390568Y-26052734D01*
X49486739Y-25846496D01*
X49545635Y-25626692D01*
X49565468Y-25400000D01*
X49545635Y-25173308D01*
X49492512Y-24975048D01*
X49486739Y-24953503D01*
X49390569Y-24747268D01*
X49390566Y-24747263D01*
X49260050Y-24560865D01*
X49260049Y-24560864D01*
X49260047Y-24560861D01*
X49198686Y-24499500D01*
X49111321Y-24412134D01*
X49037945Y-24311140D01*
X48999369Y-24192415D01*
X48999370Y-24067580D01*
X49037946Y-23948856D01*
X49111319Y-23847866D01*
X49260047Y-23699139D01*
X49390568Y-23512734D01*
X49486739Y-23306496D01*
X49545635Y-23086692D01*
X49565468Y-22860000D01*
X49545635Y-22633308D01*
X49486739Y-22413504D01*
X49461711Y-22359832D01*
X49390569Y-22207268D01*
X49390566Y-22207263D01*
X49260050Y-22020865D01*
X49260049Y-22020864D01*
X49260047Y-22020861D01*
X49099139Y-21859953D01*
X49099135Y-21859950D01*
X49099134Y-21859949D01*
X48912736Y-21729433D01*
X48912731Y-21729430D01*
X48706496Y-21633260D01*
X48486696Y-21574366D01*
X48486694Y-21574365D01*
X48486692Y-21574365D01*
X48260000Y-21554532D01*
X48033308Y-21574365D01*
X48033303Y-21574366D01*
X47813503Y-21633260D01*
X47607268Y-21729430D01*
X47607263Y-21729433D01*
X47420864Y-21859950D01*
X47413474Y-21866152D01*
X47306469Y-21930447D01*
X47184834Y-21958528D01*
X47157002Y-21959500D01*
X43085354Y-21959500D01*
X43049165Y-21967191D01*
X43028538Y-21970458D01*
X42991747Y-21974325D01*
X42956561Y-21985757D01*
X42936387Y-21991162D01*
X42900202Y-21998854D01*
X42900186Y-21998860D01*
X42866402Y-22013901D01*
X42846905Y-22021385D01*
X42811726Y-22032816D01*
X42811711Y-22032823D01*
X42779675Y-22051318D01*
X42761068Y-22060800D01*
X42727274Y-22075846D01*
X42727267Y-22075850D01*
X42697343Y-22097590D01*
X42679832Y-22108962D01*
X42647785Y-22127465D01*
X42647782Y-22127467D01*
X42620285Y-22152225D01*
X42604057Y-22165366D01*
X42574134Y-22187106D01*
X42574126Y-22187114D01*
X42549371Y-22214606D01*
X42534606Y-22229371D01*
X42507114Y-22254126D01*
X42507106Y-22254134D01*
X42485366Y-22284057D01*
X42472225Y-22300285D01*
X42447467Y-22327782D01*
X42447465Y-22327785D01*
X42428962Y-22359832D01*
X42417590Y-22377343D01*
X42395850Y-22407267D01*
X42395846Y-22407274D01*
X42380800Y-22441068D01*
X42371318Y-22459675D01*
X42352823Y-22491711D01*
X42352816Y-22491726D01*
X42341385Y-22526905D01*
X42333901Y-22546402D01*
X42318860Y-22580186D01*
X42318854Y-22580202D01*
X42311162Y-22616387D01*
X42305757Y-22636561D01*
X42294325Y-22671747D01*
X42290458Y-22708538D01*
X42287191Y-22729165D01*
X42279500Y-22765354D01*
X42279500Y-22802347D01*
X42278406Y-22823215D01*
X42274540Y-22859998D01*
X42274540Y-22860000D01*
X42278406Y-22896783D01*
X42279500Y-22917651D01*
X42279500Y-22954647D01*
X42287189Y-22990826D01*
X42290456Y-23011453D01*
X42294325Y-23048252D01*
X42294325Y-23048254D01*
X42294326Y-23048256D01*
X42305757Y-23083438D01*
X42311164Y-23103615D01*
X42318855Y-23139800D01*
X42318857Y-23139806D01*
X42333904Y-23173601D01*
X42341388Y-23193097D01*
X42352821Y-23228284D01*
X42359615Y-23240051D01*
X42371316Y-23260319D01*
X42380802Y-23278936D01*
X42395847Y-23312727D01*
X42395848Y-23312729D01*
X42395849Y-23312730D01*
X42417592Y-23342658D01*
X42428963Y-23360168D01*
X42447467Y-23392216D01*
X42472216Y-23419702D01*
X42485369Y-23435945D01*
X42507112Y-23465872D01*
X42534601Y-23490623D01*
X42549374Y-23505396D01*
X42574128Y-23532887D01*
X42574129Y-23532888D01*
X42604060Y-23554633D01*
X42620288Y-23567775D01*
X42647784Y-23592533D01*
X42677068Y-23609441D01*
X42679821Y-23611030D01*
X42697341Y-23622407D01*
X42727270Y-23644151D01*
X42735084Y-23647630D01*
X42761065Y-23659198D01*
X42779684Y-23668685D01*
X42811716Y-23687179D01*
X42846894Y-23698608D01*
X42866405Y-23706098D01*
X42919303Y-23729651D01*
X42918833Y-23730706D01*
X43011066Y-23777699D01*
X43099338Y-23865969D01*
X43156014Y-23977197D01*
X43175544Y-24100494D01*
X43156017Y-24223792D01*
X43099345Y-24335022D01*
X43011075Y-24423294D01*
X42899847Y-24479970D01*
X42776550Y-24499500D01*
X38638271Y-24499500D01*
X38514973Y-24479972D01*
X38403745Y-24423298D01*
X38356135Y-24382636D01*
X36577364Y-22603865D01*
X36503988Y-22502871D01*
X36465412Y-22384146D01*
X36460500Y-22321729D01*
X36460500Y-21528918D01*
X36480028Y-21405620D01*
X36536702Y-21294392D01*
X36624974Y-21206120D01*
X36736202Y-21149446D01*
X36859500Y-21129918D01*
X36982798Y-21149446D01*
X37094026Y-21206120D01*
X37141629Y-21246776D01*
X37239891Y-21345038D01*
X37316647Y-21398783D01*
X37430952Y-21478821D01*
X37430953Y-21478821D01*
X37430954Y-21478822D01*
X37642346Y-21577395D01*
X37867643Y-21637763D01*
X38100000Y-21658092D01*
X38332357Y-21637763D01*
X38557654Y-21577395D01*
X38769046Y-21478822D01*
X38960109Y-21345038D01*
X39125038Y-21180109D01*
X39258822Y-20989046D01*
X39357395Y-20777654D01*
X39417763Y-20552357D01*
X39438092Y-20320000D01*
X39417763Y-20087643D01*
X39357395Y-19862346D01*
X39258822Y-19650954D01*
X39246337Y-19633124D01*
X39177398Y-19534669D01*
X39125038Y-19459891D01*
X38960109Y-19294962D01*
X38884392Y-19241944D01*
X38769047Y-19161178D01*
X38661614Y-19111082D01*
X38557654Y-19062605D01*
X38487107Y-19043702D01*
X38332358Y-19002237D01*
X38158212Y-18987001D01*
X38100000Y-18981908D01*
X38099999Y-18981908D01*
X37867642Y-19002237D01*
X37867641Y-19002237D01*
X37642349Y-19062604D01*
X37642348Y-19062604D01*
X37642346Y-19062605D01*
X37579016Y-19092135D01*
X37430952Y-19161178D01*
X37239891Y-19294962D01*
X37112134Y-19422719D01*
X37011140Y-19496094D01*
X36892415Y-19534670D01*
X36767580Y-19534669D01*
X36648856Y-19496093D01*
X36547869Y-19422722D01*
X36420109Y-19294962D01*
X36344392Y-19241944D01*
X36229047Y-19161178D01*
X36121614Y-19111082D01*
X36017654Y-19062605D01*
X35947107Y-19043702D01*
X35792358Y-19002237D01*
X35560000Y-18981908D01*
X35327642Y-19002237D01*
X35327641Y-19002237D01*
X35102349Y-19062604D01*
X35102348Y-19062604D01*
X35102346Y-19062605D01*
X35039016Y-19092135D01*
X34890952Y-19161178D01*
X34699892Y-19294961D01*
X34699891Y-19294962D01*
X34572132Y-19422720D01*
X34471142Y-19496094D01*
X34352417Y-19534670D01*
X34227583Y-19534670D01*
X34108858Y-19496094D01*
X34007867Y-19422720D01*
X33880109Y-19294962D01*
X33804392Y-19241944D01*
X33689047Y-19161178D01*
X33581614Y-19111082D01*
X33477654Y-19062605D01*
X33407107Y-19043702D01*
X33252358Y-19002237D01*
X33078212Y-18987001D01*
X33020000Y-18981908D01*
X33019999Y-18981908D01*
X32787642Y-19002237D01*
X32787641Y-19002237D01*
X32562349Y-19062604D01*
X32562348Y-19062604D01*
X32562346Y-19062605D01*
X32499016Y-19092135D01*
X32350952Y-19161178D01*
X32159888Y-19294964D01*
X32061633Y-19393219D01*
X31960640Y-19466594D01*
X31841915Y-19505170D01*
X31717080Y-19505169D01*
X31598355Y-19466593D01*
X31497362Y-19393216D01*
X31423987Y-19292223D01*
X31385411Y-19173498D01*
X31380499Y-19111082D01*
X31380499Y-18981908D01*
X31380499Y-18318264D01*
X31400027Y-18194972D01*
X31456701Y-18083744D01*
X31497358Y-18036141D01*
X31620071Y-17913427D01*
X31721067Y-17840052D01*
X31839792Y-17801477D01*
X31902206Y-17796565D01*
X51917794Y-17796565D01*
X52041092Y-17816093D01*
X52152320Y-17872767D01*
X52199930Y-17913429D01*
X54862636Y-20576134D01*
X54936012Y-20677128D01*
X54974588Y-20795853D01*
X54979500Y-20858270D01*
X54979500Y-21757001D01*
X54959972Y-21880299D01*
X54903298Y-21991527D01*
X54886151Y-22013474D01*
X54879952Y-22020861D01*
X54749432Y-22207265D01*
X54749430Y-22207268D01*
X54653260Y-22413503D01*
X54602254Y-22603865D01*
X54594365Y-22633308D01*
X54574532Y-22860000D01*
X54591001Y-23048247D01*
X54594365Y-23086691D01*
X54594366Y-23086696D01*
X54653260Y-23306496D01*
X54749430Y-23512731D01*
X54749433Y-23512736D01*
X54876992Y-23694911D01*
X54879953Y-23699139D01*
X55028681Y-23847867D01*
X55102055Y-23948858D01*
X55140631Y-24067583D01*
X55140631Y-24192417D01*
X55102055Y-24311142D01*
X55028681Y-24412132D01*
X54941314Y-24499500D01*
X54879952Y-24560862D01*
X54879949Y-24560865D01*
X54749433Y-24747263D01*
X54749430Y-24747268D01*
X54653260Y-24953503D01*
X54596732Y-25164474D01*
X54594365Y-25173308D01*
X54574532Y-25400000D01*
X54580821Y-25471889D01*
X54594365Y-25626691D01*
X54594366Y-25626696D01*
X54653260Y-25846496D01*
X54749430Y-26052731D01*
X54749433Y-26052736D01*
X54879068Y-26237876D01*
X54879953Y-26239139D01*
X55028681Y-26387867D01*
X55102055Y-26488858D01*
X55140631Y-26607583D01*
X55140631Y-26732417D01*
X55102055Y-26851142D01*
X55028681Y-26952132D01*
X54951684Y-27029130D01*
X54879952Y-27100862D01*
X54879949Y-27100865D01*
X54749433Y-27287263D01*
X54749430Y-27287268D01*
X54653260Y-27493503D01*
X54594366Y-27713303D01*
X54594365Y-27713308D01*
X54574532Y-27940000D01*
X54594365Y-28166691D01*
X54594366Y-28166696D01*
X54653260Y-28386496D01*
X54749430Y-28592731D01*
X54749433Y-28592736D01*
X54879581Y-28778609D01*
X54879953Y-28779139D01*
X55029035Y-28928221D01*
X55102409Y-29029212D01*
X55140985Y-29147937D01*
X55140985Y-29272771D01*
X55102409Y-29391496D01*
X55029033Y-29492490D01*
X54880337Y-29641185D01*
X54749869Y-29827511D01*
X54749866Y-29827517D01*
X54653735Y-30033669D01*
X54653734Y-30033670D01*
X54641320Y-30080000D01*
X55076014Y-30080000D01*
X55199312Y-30099528D01*
X55310540Y-30156202D01*
X55398812Y-30244474D01*
X55455486Y-30355702D01*
X55475014Y-30479000D01*
X55475014Y-30481000D01*
X55455486Y-30604298D01*
X55398812Y-30715526D01*
X55310540Y-30803798D01*
X55199312Y-30860472D01*
X55076014Y-30880000D01*
X54641320Y-30880000D01*
X54653734Y-30926329D01*
X54653735Y-30926330D01*
X54749866Y-31132482D01*
X54749869Y-31132488D01*
X54880337Y-31318814D01*
X55029387Y-31467864D01*
X55102763Y-31568858D01*
X55141339Y-31687583D01*
X55141339Y-31812417D01*
X55102763Y-31931142D01*
X55029387Y-32032136D01*
X54880337Y-32181185D01*
X54749869Y-32367511D01*
X54749866Y-32367517D01*
X54653735Y-32573669D01*
X54653734Y-32573670D01*
X54641320Y-32620000D01*
X55076014Y-32620000D01*
X55199312Y-32639528D01*
X55310540Y-32696202D01*
X55398812Y-32784474D01*
X55455486Y-32895702D01*
X55475014Y-33019000D01*
X55475014Y-33021000D01*
X55455486Y-33144298D01*
X55398812Y-33255526D01*
X55310540Y-33343798D01*
X55199312Y-33400472D01*
X55076014Y-33420000D01*
X54641320Y-33420000D01*
X54653734Y-33466329D01*
X54653735Y-33466330D01*
X54749866Y-33672482D01*
X54749869Y-33672488D01*
X54880337Y-33858814D01*
X55029033Y-34007510D01*
X55102409Y-34108504D01*
X55140985Y-34227229D01*
X55140985Y-34352063D01*
X55102409Y-34470788D01*
X55029035Y-34571778D01*
X54946226Y-34654588D01*
X54879952Y-34720862D01*
X54879949Y-34720865D01*
X54749433Y-34907263D01*
X54749430Y-34907268D01*
X54653260Y-35113503D01*
X54605091Y-35293276D01*
X54594365Y-35333308D01*
X54574532Y-35560000D01*
X54589213Y-35727810D01*
X54594365Y-35786691D01*
X54594366Y-35786696D01*
X54653260Y-36006496D01*
X54749430Y-36212731D01*
X54749433Y-36212736D01*
X54879581Y-36398609D01*
X54879953Y-36399139D01*
X55028681Y-36547867D01*
X55102055Y-36648858D01*
X55140631Y-36767583D01*
X55140631Y-36892417D01*
X55102055Y-37011142D01*
X55028681Y-37112132D01*
X54946226Y-37194588D01*
X54879952Y-37260862D01*
X54879949Y-37260865D01*
X54749433Y-37447263D01*
X54749430Y-37447268D01*
X54653260Y-37653503D01*
X54594366Y-37873303D01*
X54594365Y-37873308D01*
X54574532Y-38100000D01*
X54594365Y-38326691D01*
X54594366Y-38326696D01*
X54653260Y-38546496D01*
X54749430Y-38752731D01*
X54749433Y-38752736D01*
X54879068Y-38937876D01*
X54879953Y-38939139D01*
X54879958Y-38939144D01*
X55028678Y-39087865D01*
X55102054Y-39188859D01*
X55140630Y-39307584D01*
X55140629Y-39432419D01*
X55102053Y-39551143D01*
X55028678Y-39652135D01*
X54879958Y-39800855D01*
X54879949Y-39800865D01*
X54749433Y-39987263D01*
X54749430Y-39987268D01*
X54653260Y-40193503D01*
X54594366Y-40413303D01*
X54594365Y-40413308D01*
X54574532Y-40640000D01*
X54594365Y-40866691D01*
X54594366Y-40866696D01*
X54653260Y-41086496D01*
X54749430Y-41292731D01*
X54749433Y-41292736D01*
X54879950Y-41479135D01*
X54886152Y-41486526D01*
X54950447Y-41593531D01*
X54978528Y-41715166D01*
X54979500Y-41742998D01*
X54979500Y-42641728D01*
X54959972Y-42765026D01*
X54903298Y-42876254D01*
X54862636Y-42923864D01*
X52775561Y-45010938D01*
X52749634Y-45033082D01*
X52749669Y-45033120D01*
X52734126Y-45047115D01*
X52690068Y-45096046D01*
X52682883Y-45103617D01*
X52669889Y-45116611D01*
X52669868Y-45116634D01*
X52658300Y-45130918D01*
X52651529Y-45138845D01*
X52607465Y-45187785D01*
X52595182Y-45204693D01*
X52595141Y-45204663D01*
X52591963Y-45209287D01*
X52592005Y-45209314D01*
X52580619Y-45226847D01*
X52550718Y-45285528D01*
X52545737Y-45294702D01*
X52512821Y-45351714D01*
X52504317Y-45370816D01*
X52504271Y-45370795D01*
X52502124Y-45375979D01*
X52502171Y-45375998D01*
X52494679Y-45395513D01*
X52477639Y-45459107D01*
X52474673Y-45469118D01*
X52454328Y-45531736D01*
X52449980Y-45552194D01*
X52449930Y-45552183D01*
X52448908Y-45557698D01*
X52448957Y-45557706D01*
X52445686Y-45578353D01*
X52442240Y-45644107D01*
X52441421Y-45654513D01*
X52434540Y-45719994D01*
X52434540Y-45740910D01*
X52434491Y-45740910D01*
X52434637Y-45746516D01*
X52434687Y-45746514D01*
X52435780Y-45767384D01*
X52446078Y-45832402D01*
X52447441Y-45842755D01*
X52454326Y-45908260D01*
X52458673Y-45928708D01*
X52458625Y-45928718D01*
X52459933Y-45934167D01*
X52459982Y-45934155D01*
X52465394Y-45954353D01*
X52488982Y-46015802D01*
X52492468Y-46025646D01*
X52512822Y-46088287D01*
X52521327Y-46107390D01*
X52521280Y-46107410D01*
X52523692Y-46112466D01*
X52523738Y-46112443D01*
X52533227Y-46131068D01*
X52569085Y-46186284D01*
X52574543Y-46195191D01*
X52607469Y-46252219D01*
X52619759Y-46269134D01*
X52619718Y-46269163D01*
X52623124Y-46273602D01*
X52623164Y-46273571D01*
X52636327Y-46289826D01*
X52682887Y-46336387D01*
X52690076Y-46343963D01*
X52734127Y-46392886D01*
X52749669Y-46406880D01*
X52749634Y-46406918D01*
X52753888Y-46410551D01*
X52753920Y-46410512D01*
X52770170Y-46423670D01*
X52770172Y-46423671D01*
X52770175Y-46423674D01*
X52825401Y-46459538D01*
X52834009Y-46465455D01*
X52887270Y-46504151D01*
X52887273Y-46504152D01*
X52905383Y-46514608D01*
X52905356Y-46514653D01*
X52910274Y-46517323D01*
X52910298Y-46517277D01*
X52928926Y-46526768D01*
X52928930Y-46526771D01*
X52990429Y-46550377D01*
X52999998Y-46554341D01*
X53060197Y-46581144D01*
X53060209Y-46581146D01*
X53080087Y-46587606D01*
X53080071Y-46587653D01*
X53085434Y-46589242D01*
X53085448Y-46589194D01*
X53105644Y-46594604D01*
X53105650Y-46594607D01*
X53170690Y-46604907D01*
X53180927Y-46606805D01*
X53245354Y-46620500D01*
X53245357Y-46620500D01*
X53266152Y-46622686D01*
X53266146Y-46622736D01*
X53271730Y-46623175D01*
X53271733Y-46623125D01*
X53292610Y-46624219D01*
X53292611Y-46624218D01*
X53292612Y-46624219D01*
X53358385Y-46620772D01*
X53368800Y-46620500D01*
X53434648Y-46620500D01*
X53455446Y-46618314D01*
X53455451Y-46618367D01*
X53460996Y-46617637D01*
X53460988Y-46617585D01*
X53481641Y-46614313D01*
X53481646Y-46614313D01*
X53545260Y-46597267D01*
X53555365Y-46594840D01*
X53619803Y-46581144D01*
X53619811Y-46581140D01*
X53639692Y-46574681D01*
X53639708Y-46574732D01*
X53644979Y-46572865D01*
X53644961Y-46572816D01*
X53664482Y-46565322D01*
X53664483Y-46565321D01*
X53664488Y-46565320D01*
X53723167Y-46535420D01*
X53732585Y-46530929D01*
X53739784Y-46527723D01*
X53792730Y-46504151D01*
X53792743Y-46504141D01*
X53810838Y-46493695D01*
X53810865Y-46493741D01*
X53815642Y-46490814D01*
X53815613Y-46490770D01*
X53833139Y-46479387D01*
X53833149Y-46479383D01*
X53884344Y-46437924D01*
X53892592Y-46431596D01*
X53945871Y-46392888D01*
X53989931Y-46343952D01*
X53997115Y-46336383D01*
X55216887Y-45116611D01*
X56444435Y-43889062D01*
X56470363Y-43866920D01*
X56470329Y-43866882D01*
X56485866Y-43852892D01*
X56485866Y-43852890D01*
X56485871Y-43852888D01*
X56529940Y-43803942D01*
X56537132Y-43796366D01*
X56550119Y-43783380D01*
X56561717Y-43769056D01*
X56568433Y-43761193D01*
X56612533Y-43712216D01*
X56612540Y-43712202D01*
X56624825Y-43695296D01*
X56624869Y-43695328D01*
X56628030Y-43690729D01*
X56627985Y-43690700D01*
X56639377Y-43673155D01*
X56639383Y-43673149D01*
X56669290Y-43614450D01*
X56674260Y-43605299D01*
X56707179Y-43548284D01*
X56707181Y-43548276D01*
X56715684Y-43529180D01*
X56715733Y-43529202D01*
X56717874Y-43524033D01*
X56717824Y-43524014D01*
X56725315Y-43504495D01*
X56725320Y-43504488D01*
X56742364Y-43440873D01*
X56745327Y-43430873D01*
X56765674Y-43368256D01*
X56765674Y-43368248D01*
X56770023Y-43347796D01*
X56770074Y-43347807D01*
X56771094Y-43342307D01*
X56771041Y-43342299D01*
X56774312Y-43321647D01*
X56777757Y-43255903D01*
X56778577Y-43245486D01*
X56780500Y-43227192D01*
X56780500Y-43208796D01*
X56780774Y-43198352D01*
X56784219Y-43132612D01*
X56783125Y-43111732D01*
X56783175Y-43111729D01*
X56780499Y-43077739D01*
X56780499Y-41742998D01*
X56800027Y-41619701D01*
X56856701Y-41508473D01*
X56873854Y-41486519D01*
X56880043Y-41479142D01*
X56880047Y-41479139D01*
X57010568Y-41292734D01*
X57106739Y-41086496D01*
X57165635Y-40866692D01*
X57185468Y-40640000D01*
X57165635Y-40413308D01*
X57106739Y-40193504D01*
X57084984Y-40146851D01*
X57010569Y-39987268D01*
X57010566Y-39987263D01*
X56880050Y-39800865D01*
X56880049Y-39800864D01*
X56880047Y-39800861D01*
X56760818Y-39681632D01*
X56687445Y-39580642D01*
X56648869Y-39461917D01*
X56648869Y-39337083D01*
X56687445Y-39218358D01*
X56760821Y-39117364D01*
X56861815Y-39043988D01*
X56980540Y-39005412D01*
X57042957Y-39000500D01*
X60857728Y-39000500D01*
X60891730Y-39003175D01*
X60891733Y-39003125D01*
X60912610Y-39004219D01*
X60912611Y-39004218D01*
X60912612Y-39004219D01*
X60978385Y-39000772D01*
X60988800Y-39000500D01*
X61007187Y-39000500D01*
X61007192Y-39000500D01*
X61025516Y-38998573D01*
X61035864Y-38997759D01*
X61101646Y-38994313D01*
X61101652Y-38994311D01*
X61122300Y-38991041D01*
X61122308Y-38991094D01*
X61127803Y-38990076D01*
X61127792Y-38990024D01*
X61148245Y-38985676D01*
X61148248Y-38985674D01*
X61148256Y-38985674D01*
X61210925Y-38965311D01*
X61220856Y-38962369D01*
X61284488Y-38945320D01*
X61284492Y-38945317D01*
X61304008Y-38937826D01*
X61304027Y-38937876D01*
X61309201Y-38935733D01*
X61309180Y-38935684D01*
X61328276Y-38927181D01*
X61328284Y-38927179D01*
X61385308Y-38894254D01*
X61394450Y-38889290D01*
X61453149Y-38859383D01*
X61453155Y-38859377D01*
X61470700Y-38847985D01*
X61470729Y-38848030D01*
X61475328Y-38844869D01*
X61475296Y-38844825D01*
X61492202Y-38832540D01*
X61492216Y-38832533D01*
X61541193Y-38788433D01*
X61549056Y-38781717D01*
X61563380Y-38770119D01*
X61576370Y-38757127D01*
X61583942Y-38749940D01*
X61632888Y-38705871D01*
X61632892Y-38705866D01*
X61646882Y-38690329D01*
X61646920Y-38690363D01*
X61669062Y-38664435D01*
X64064435Y-36269062D01*
X64090363Y-36246920D01*
X64090329Y-36246882D01*
X64105866Y-36232892D01*
X64105866Y-36232890D01*
X64105871Y-36232888D01*
X64149940Y-36183942D01*
X64157132Y-36176366D01*
X64170119Y-36163380D01*
X64181717Y-36149056D01*
X64188433Y-36141193D01*
X64232533Y-36092216D01*
X64232540Y-36092202D01*
X64244825Y-36075296D01*
X64244869Y-36075328D01*
X64248030Y-36070729D01*
X64247985Y-36070700D01*
X64259377Y-36053155D01*
X64259383Y-36053149D01*
X64289290Y-35994450D01*
X64294260Y-35985299D01*
X64294617Y-35984681D01*
X64327179Y-35928284D01*
X64327181Y-35928276D01*
X64335684Y-35909180D01*
X64335733Y-35909202D01*
X64337874Y-35904033D01*
X64337824Y-35904014D01*
X64345315Y-35884495D01*
X64345320Y-35884488D01*
X64362364Y-35820873D01*
X64365327Y-35810873D01*
X64373183Y-35786696D01*
X64385674Y-35748256D01*
X64385674Y-35748248D01*
X64390023Y-35727796D01*
X64390074Y-35727807D01*
X64391094Y-35722307D01*
X64391041Y-35722299D01*
X64394312Y-35701647D01*
X64397757Y-35635903D01*
X64398577Y-35625486D01*
X64398577Y-35625484D01*
X64400500Y-35607192D01*
X64400500Y-35588796D01*
X64400774Y-35578352D01*
X64404219Y-35512612D01*
X64403125Y-35491732D01*
X64403176Y-35491729D01*
X64400500Y-35457727D01*
X64400500Y-20422272D01*
X64403176Y-20388272D01*
X64403125Y-20388270D01*
X64404219Y-20367390D01*
X64402971Y-20343582D01*
X64400772Y-20301615D01*
X64400500Y-20291198D01*
X64400500Y-20272816D01*
X64400500Y-20272808D01*
X64398572Y-20254468D01*
X64397760Y-20244146D01*
X64394313Y-20178355D01*
X64394311Y-20178348D01*
X64394311Y-20178343D01*
X64391042Y-20157697D01*
X64391092Y-20157689D01*
X64390073Y-20152191D01*
X64390023Y-20152202D01*
X64385675Y-20131747D01*
X64365324Y-20069113D01*
X64362363Y-20059120D01*
X64345320Y-19995513D01*
X64345319Y-19995511D01*
X64345318Y-19995507D01*
X64337826Y-19975989D01*
X64337874Y-19975970D01*
X64335731Y-19970796D01*
X64335684Y-19970818D01*
X64327181Y-19951721D01*
X64327180Y-19951719D01*
X64327179Y-19951716D01*
X64294249Y-19894679D01*
X64289272Y-19885512D01*
X64277470Y-19862349D01*
X64259383Y-19826851D01*
X64259379Y-19826846D01*
X64247994Y-19809313D01*
X64248036Y-19809285D01*
X64244867Y-19804673D01*
X64244826Y-19804704D01*
X64232535Y-19787788D01*
X64232533Y-19787784D01*
X64188461Y-19738837D01*
X64181698Y-19730918D01*
X64170121Y-19716620D01*
X64157104Y-19703603D01*
X64149913Y-19696025D01*
X64105878Y-19647118D01*
X64090335Y-19633124D01*
X64090369Y-19633085D01*
X64064437Y-19610937D01*
X59824689Y-15371190D01*
X61749500Y-15371190D01*
X61788603Y-15630608D01*
X61788604Y-15630615D01*
X61865937Y-15881322D01*
X61979771Y-16117704D01*
X62127571Y-16334485D01*
X62306016Y-16526802D01*
X62306019Y-16526805D01*
X62511143Y-16690386D01*
X62738357Y-16821568D01*
X62982584Y-16917420D01*
X62982587Y-16917421D01*
X63063227Y-16935826D01*
X63238370Y-16975802D01*
X63238374Y-16975802D01*
X63238377Y-16975803D01*
X63434506Y-16990500D01*
X63565494Y-16990500D01*
X63761622Y-16975803D01*
X63761624Y-16975802D01*
X63761630Y-16975802D01*
X64017416Y-16917420D01*
X64261643Y-16821568D01*
X64488857Y-16690386D01*
X64693981Y-16526805D01*
X64797500Y-16415237D01*
X64872428Y-16334485D01*
X64872429Y-16334482D01*
X64872433Y-16334479D01*
X65020228Y-16117704D01*
X65134063Y-15881323D01*
X65211396Y-15630615D01*
X65237493Y-15457478D01*
X65246457Y-15398008D01*
X65284144Y-15278998D01*
X65310563Y-15242056D01*
X65261528Y-15145819D01*
X65246457Y-15081991D01*
X65232487Y-14989318D01*
X65211396Y-14849385D01*
X65134063Y-14598677D01*
X65020228Y-14362296D01*
X65020228Y-14362295D01*
X64872428Y-14145514D01*
X64693983Y-13953197D01*
X64693982Y-13953196D01*
X64693981Y-13953195D01*
X64488857Y-13789614D01*
X64416835Y-13748032D01*
X64261644Y-13658432D01*
X64017412Y-13562578D01*
X63761626Y-13504197D01*
X63761622Y-13504196D01*
X63664037Y-13496884D01*
X63542543Y-13468197D01*
X63500158Y-13442441D01*
X63429445Y-13478472D01*
X63335963Y-13496884D01*
X63238377Y-13504196D01*
X63238373Y-13504197D01*
X62982587Y-13562578D01*
X62738355Y-13658432D01*
X62511139Y-13789616D01*
X62511138Y-13789617D01*
X62306016Y-13953197D01*
X62127571Y-14145514D01*
X61979771Y-14362295D01*
X61865937Y-14598677D01*
X61788604Y-14849384D01*
X61788603Y-14849391D01*
X61749500Y-15108809D01*
X61749500Y-15371190D01*
X59824689Y-15371190D01*
X58185130Y-13731631D01*
X58162983Y-13705699D01*
X58162945Y-13705734D01*
X58148952Y-13690193D01*
X58100028Y-13646142D01*
X58092451Y-13638951D01*
X58079447Y-13625947D01*
X58065152Y-13614370D01*
X58057220Y-13607595D01*
X58008287Y-13563537D01*
X58008284Y-13563535D01*
X58008281Y-13563532D01*
X58008276Y-13563529D01*
X57991367Y-13551244D01*
X57991397Y-13551202D01*
X57986776Y-13548027D01*
X57986749Y-13548070D01*
X57969213Y-13536681D01*
X57942483Y-13523062D01*
X57910534Y-13506783D01*
X57901376Y-13501810D01*
X57844354Y-13468889D01*
X57844349Y-13468886D01*
X57844347Y-13468885D01*
X57844345Y-13468884D01*
X57832259Y-13463503D01*
X57727564Y-13395513D01*
X57649004Y-13298497D01*
X57604268Y-13181953D01*
X57597736Y-13057290D01*
X57630047Y-12936709D01*
X57698037Y-12832014D01*
X57795053Y-12753454D01*
X57911597Y-12708718D01*
X57994550Y-12700000D01*
X63306147Y-12700000D01*
X63429445Y-12719528D01*
X63497249Y-12754076D01*
X63599257Y-12711376D01*
X63693853Y-12700000D01*
X65641000Y-12700000D01*
X65764298Y-12719528D01*
X65875526Y-12776202D01*
X65963798Y-12864474D01*
X66020472Y-12975702D01*
X66040000Y-13099000D01*
X66040000Y-15022521D01*
X66020472Y-15145819D01*
X65971587Y-15241759D01*
X65995148Y-15273683D01*
X66034610Y-15392117D01*
X66040000Y-15457478D01*
X66040000Y-48042521D01*
X66020472Y-48165819D01*
X65971587Y-48261759D01*
X65995148Y-48293683D01*
X66034610Y-48412117D01*
X66040000Y-48477478D01*
X66040000Y-50401000D01*
X66020472Y-50524298D01*
X65963798Y-50635526D01*
X65875526Y-50723798D01*
X65764298Y-50780472D01*
X65641000Y-50800000D01*
X63693853Y-50800000D01*
X63570555Y-50780472D01*
X63502750Y-50745923D01*
X63400743Y-50788624D01*
X63306147Y-50800000D01*
X15433853Y-50800000D01*
X15310555Y-50780472D01*
X15242750Y-50745923D01*
X15140743Y-50788624D01*
X15046147Y-50800000D01*
X13099000Y-50800000D01*
X12975702Y-50780472D01*
X12864474Y-50723798D01*
X12776202Y-50635526D01*
X12719528Y-50524298D01*
X12700000Y-50401000D01*
X12700000Y-48477478D01*
X12719528Y-48354180D01*
X12768412Y-48258239D01*
X12768193Y-48257942D01*
X13429435Y-48257942D01*
X13478472Y-48354180D01*
X13493543Y-48418008D01*
X13528603Y-48650608D01*
X13528604Y-48650615D01*
X13605937Y-48901322D01*
X13719771Y-49137704D01*
X13867571Y-49354485D01*
X14046016Y-49546802D01*
X14046019Y-49546805D01*
X14251143Y-49710386D01*
X14478357Y-49841568D01*
X14722584Y-49937420D01*
X14722587Y-49937421D01*
X14803226Y-49955826D01*
X14978370Y-49995802D01*
X14978374Y-49995802D01*
X14978377Y-49995803D01*
X15075963Y-50003116D01*
X15197457Y-50031803D01*
X15239841Y-50057558D01*
X15310555Y-50021528D01*
X15404037Y-50003116D01*
X15501622Y-49995803D01*
X15501624Y-49995802D01*
X15501630Y-49995802D01*
X15757416Y-49937420D01*
X16001643Y-49841568D01*
X16228857Y-49710386D01*
X16433981Y-49546805D01*
X16537500Y-49435237D01*
X16612428Y-49354485D01*
X16612429Y-49354482D01*
X16612433Y-49354479D01*
X16760228Y-49137704D01*
X16874063Y-48901323D01*
X16951396Y-48650615D01*
X16986457Y-48418008D01*
X16990499Y-48391190D01*
X61749500Y-48391190D01*
X61788603Y-48650608D01*
X61788604Y-48650615D01*
X61865937Y-48901322D01*
X61979771Y-49137704D01*
X62127571Y-49354485D01*
X62306016Y-49546802D01*
X62306019Y-49546805D01*
X62511143Y-49710386D01*
X62738357Y-49841568D01*
X62982584Y-49937420D01*
X62982587Y-49937421D01*
X63063227Y-49955826D01*
X63238370Y-49995802D01*
X63238374Y-49995802D01*
X63238377Y-49995803D01*
X63335963Y-50003116D01*
X63457457Y-50031803D01*
X63499841Y-50057558D01*
X63570555Y-50021528D01*
X63664037Y-50003116D01*
X63761622Y-49995803D01*
X63761624Y-49995802D01*
X63761630Y-49995802D01*
X64017416Y-49937420D01*
X64261643Y-49841568D01*
X64488857Y-49710386D01*
X64693981Y-49546805D01*
X64797500Y-49435237D01*
X64872428Y-49354485D01*
X64872429Y-49354482D01*
X64872433Y-49354479D01*
X65020228Y-49137704D01*
X65134063Y-48901323D01*
X65211396Y-48650615D01*
X65246457Y-48418008D01*
X65284144Y-48298998D01*
X65310563Y-48262056D01*
X65261528Y-48165819D01*
X65246457Y-48101991D01*
X65232487Y-48009318D01*
X65211396Y-47869385D01*
X65134063Y-47618677D01*
X65020228Y-47382296D01*
X65020228Y-47382295D01*
X64872428Y-47165514D01*
X64693983Y-46973197D01*
X64693982Y-46973196D01*
X64693981Y-46973195D01*
X64488857Y-46809614D01*
X64416835Y-46768032D01*
X64261644Y-46678432D01*
X64017412Y-46582578D01*
X63761626Y-46524197D01*
X63761622Y-46524196D01*
X63565494Y-46509500D01*
X63434506Y-46509500D01*
X63238377Y-46524196D01*
X63238373Y-46524197D01*
X62982587Y-46582578D01*
X62738355Y-46678432D01*
X62511139Y-46809616D01*
X62511138Y-46809617D01*
X62306016Y-46973197D01*
X62127571Y-47165514D01*
X61979771Y-47382295D01*
X61865937Y-47618677D01*
X61788604Y-47869384D01*
X61788603Y-47869391D01*
X61749500Y-48128809D01*
X61749500Y-48391190D01*
X16990499Y-48391190D01*
X16990500Y-48391181D01*
X16990500Y-48128818D01*
X16990499Y-48128809D01*
X16977493Y-48042521D01*
X16951396Y-47869385D01*
X16874063Y-47618677D01*
X16760228Y-47382296D01*
X16760228Y-47382295D01*
X16612428Y-47165514D01*
X16433983Y-46973197D01*
X16433982Y-46973196D01*
X16433981Y-46973195D01*
X16228857Y-46809614D01*
X16156835Y-46768032D01*
X16001644Y-46678432D01*
X15757412Y-46582578D01*
X15501626Y-46524197D01*
X15501622Y-46524196D01*
X15305494Y-46509500D01*
X15174506Y-46509500D01*
X14978377Y-46524196D01*
X14978373Y-46524197D01*
X14722587Y-46582578D01*
X14478355Y-46678432D01*
X14251139Y-46809616D01*
X14251138Y-46809617D01*
X14046016Y-46973197D01*
X13867571Y-47165514D01*
X13719771Y-47382295D01*
X13605937Y-47618677D01*
X13528604Y-47869384D01*
X13528603Y-47869391D01*
X13493543Y-48101991D01*
X13455856Y-48221001D01*
X13429435Y-48257942D01*
X12768193Y-48257942D01*
X12744852Y-48226315D01*
X12705390Y-48107882D01*
X12700000Y-48042521D01*
X12700000Y-44060363D01*
X18987000Y-44060363D01*
X18987001Y-44060370D01*
X18993408Y-44119980D01*
X18993409Y-44119982D01*
X19043702Y-44254827D01*
X19043706Y-44254834D01*
X19106579Y-44338822D01*
X19129954Y-44370046D01*
X19245169Y-44456296D01*
X19380017Y-44506591D01*
X19439627Y-44513000D01*
X21200372Y-44512999D01*
X21259983Y-44506591D01*
X21394831Y-44456296D01*
X21510046Y-44370046D01*
X21527909Y-44346183D01*
X21617428Y-44259185D01*
X21729454Y-44204104D01*
X21853018Y-44186338D01*
X21976025Y-44207624D01*
X22076178Y-44258455D01*
X22190954Y-44338822D01*
X22402346Y-44437395D01*
X22627643Y-44497763D01*
X22860000Y-44518092D01*
X23092357Y-44497763D01*
X23317654Y-44437395D01*
X23529046Y-44338822D01*
X23720109Y-44205038D01*
X23847867Y-44077279D01*
X23948858Y-44003906D01*
X24067583Y-43965330D01*
X24192417Y-43965330D01*
X24311142Y-44003906D01*
X24412132Y-44077279D01*
X24539891Y-44205038D01*
X24610997Y-44254827D01*
X24730952Y-44338821D01*
X24730953Y-44338821D01*
X24730954Y-44338822D01*
X24942346Y-44437395D01*
X25167643Y-44497763D01*
X25400000Y-44518092D01*
X25632357Y-44497763D01*
X25857654Y-44437395D01*
X26069046Y-44338822D01*
X26260109Y-44205038D01*
X26387867Y-44077279D01*
X26488858Y-44003906D01*
X26607583Y-43965330D01*
X26732417Y-43965330D01*
X26851142Y-44003906D01*
X26952132Y-44077279D01*
X27079891Y-44205038D01*
X27150997Y-44254827D01*
X27270952Y-44338821D01*
X27270953Y-44338821D01*
X27270954Y-44338822D01*
X27482346Y-44437395D01*
X27707643Y-44497763D01*
X27940000Y-44518092D01*
X28172357Y-44497763D01*
X28397654Y-44437395D01*
X28609046Y-44338822D01*
X28800109Y-44205038D01*
X28927867Y-44077279D01*
X29028858Y-44003906D01*
X29147583Y-43965330D01*
X29272417Y-43965330D01*
X29391142Y-44003906D01*
X29492132Y-44077279D01*
X29619891Y-44205038D01*
X29690997Y-44254827D01*
X29810952Y-44338821D01*
X29810953Y-44338821D01*
X29810954Y-44338822D01*
X30022346Y-44437395D01*
X30247643Y-44497763D01*
X30480000Y-44518092D01*
X30712357Y-44497763D01*
X30937654Y-44437395D01*
X31149046Y-44338822D01*
X31340109Y-44205038D01*
X31467867Y-44077279D01*
X31568858Y-44003906D01*
X31687583Y-43965330D01*
X31812417Y-43965330D01*
X31931142Y-44003906D01*
X32032132Y-44077279D01*
X32159891Y-44205038D01*
X32230997Y-44254827D01*
X32350952Y-44338821D01*
X32350953Y-44338821D01*
X32350954Y-44338822D01*
X32562346Y-44437395D01*
X32787643Y-44497763D01*
X33020000Y-44518092D01*
X33252357Y-44497763D01*
X33477654Y-44437395D01*
X33689046Y-44338822D01*
X33880109Y-44205038D01*
X34007867Y-44077279D01*
X34108858Y-44003906D01*
X34227583Y-43965330D01*
X34352417Y-43965330D01*
X34471142Y-44003906D01*
X34572132Y-44077279D01*
X34699891Y-44205038D01*
X34770997Y-44254827D01*
X34890952Y-44338821D01*
X34890953Y-44338821D01*
X34890954Y-44338822D01*
X35102346Y-44437395D01*
X35327643Y-44497763D01*
X35560000Y-44518092D01*
X35792357Y-44497763D01*
X36017654Y-44437395D01*
X36229046Y-44338822D01*
X36420109Y-44205038D01*
X36547869Y-44077277D01*
X36648856Y-44003907D01*
X36767580Y-43965331D01*
X36892415Y-43965330D01*
X37011140Y-44003906D01*
X37112133Y-44077281D01*
X37239891Y-44205038D01*
X37317221Y-44259185D01*
X37430952Y-44338821D01*
X37430953Y-44338821D01*
X37430954Y-44338822D01*
X37642346Y-44437395D01*
X37867643Y-44497763D01*
X38100000Y-44518092D01*
X38332357Y-44497763D01*
X38557654Y-44437395D01*
X38769046Y-44338822D01*
X38960109Y-44205038D01*
X39125038Y-44040109D01*
X39258822Y-43849046D01*
X39357395Y-43637654D01*
X39417763Y-43412357D01*
X39438092Y-43180000D01*
X39417763Y-42947643D01*
X39357395Y-42722346D01*
X39258822Y-42510954D01*
X39125038Y-42319891D01*
X39117357Y-42312210D01*
X39043984Y-42211214D01*
X39005411Y-42092488D01*
X39000500Y-42030081D01*
X39000500Y-40742272D01*
X39003176Y-40708272D01*
X39003125Y-40708270D01*
X39004219Y-40687390D01*
X39004219Y-40687388D01*
X39000772Y-40621615D01*
X39000500Y-40611198D01*
X39000500Y-40592816D01*
X39000500Y-40592808D01*
X38998572Y-40574468D01*
X38997760Y-40564146D01*
X38994313Y-40498355D01*
X38994311Y-40498348D01*
X38994311Y-40498343D01*
X38991042Y-40477697D01*
X38991092Y-40477689D01*
X38990073Y-40472193D01*
X38990023Y-40472204D01*
X38985674Y-40451745D01*
X38985674Y-40451744D01*
X38965318Y-40389096D01*
X38962367Y-40379135D01*
X38945320Y-40315512D01*
X38945317Y-40315507D01*
X38937825Y-40295987D01*
X38937874Y-40295967D01*
X38935734Y-40290801D01*
X38935686Y-40290823D01*
X38927179Y-40271717D01*
X38927179Y-40271716D01*
X38894250Y-40214683D01*
X38889280Y-40205529D01*
X38859383Y-40146851D01*
X38859381Y-40146848D01*
X38847996Y-40129316D01*
X38848038Y-40129288D01*
X38844867Y-40124674D01*
X38844826Y-40124704D01*
X38832535Y-40107788D01*
X38832533Y-40107784D01*
X38788461Y-40058837D01*
X38781698Y-40050918D01*
X38770121Y-40036620D01*
X38757104Y-40023603D01*
X38749913Y-40016025D01*
X38705878Y-39967118D01*
X38690335Y-39953124D01*
X38690369Y-39953085D01*
X38664437Y-39930937D01*
X34947112Y-36213613D01*
X34939922Y-36206036D01*
X34939349Y-36205400D01*
X34895871Y-36157112D01*
X34895870Y-36157111D01*
X34895869Y-36157110D01*
X34895866Y-36157107D01*
X34842608Y-36118413D01*
X34834322Y-36112055D01*
X34788971Y-36075332D01*
X34783149Y-36070617D01*
X34783138Y-36070611D01*
X34765609Y-36059227D01*
X34765636Y-36059185D01*
X34760863Y-36056260D01*
X34760838Y-36056304D01*
X34742728Y-36045848D01*
X34682578Y-36019067D01*
X34673162Y-36014576D01*
X34656503Y-36006087D01*
X34614492Y-35984681D01*
X34594973Y-35977189D01*
X34594991Y-35977141D01*
X34589707Y-35975270D01*
X34589692Y-35975319D01*
X34569805Y-35968857D01*
X34569803Y-35968856D01*
X34569800Y-35968855D01*
X34569796Y-35968854D01*
X34505396Y-35955165D01*
X34495247Y-35952728D01*
X34482662Y-35949356D01*
X34431641Y-35935685D01*
X34411002Y-35932417D01*
X34411009Y-35932369D01*
X34405441Y-35931636D01*
X34405436Y-35931685D01*
X34384647Y-35929500D01*
X34384646Y-35929500D01*
X34318800Y-35929500D01*
X34308385Y-35929227D01*
X34278295Y-35927650D01*
X34242610Y-35925780D01*
X34221733Y-35926875D01*
X34221730Y-35926824D01*
X34216140Y-35927264D01*
X34216146Y-35927315D01*
X34195345Y-35929500D01*
X34130939Y-35943191D01*
X34120670Y-35945094D01*
X34055657Y-35955391D01*
X34035456Y-35960804D01*
X34035443Y-35960757D01*
X34030066Y-35962349D01*
X34030081Y-35962395D01*
X34010196Y-35968856D01*
X33995791Y-35975270D01*
X33950014Y-35995650D01*
X33940394Y-35999635D01*
X33878927Y-36023230D01*
X33860296Y-36032723D01*
X33860274Y-36032680D01*
X33855346Y-36035355D01*
X33855371Y-36035399D01*
X33837264Y-36045852D01*
X33784000Y-36084550D01*
X33775397Y-36090462D01*
X33720175Y-36126325D01*
X33703924Y-36139485D01*
X33703893Y-36139446D01*
X33699635Y-36143083D01*
X33699669Y-36143120D01*
X33684130Y-36157110D01*
X33684129Y-36157112D01*
X33640650Y-36205400D01*
X33640069Y-36206045D01*
X33632881Y-36213619D01*
X33586326Y-36260174D01*
X33573166Y-36276426D01*
X33573127Y-36276394D01*
X33569716Y-36280840D01*
X33569756Y-36280870D01*
X33557466Y-36297784D01*
X33524542Y-36354809D01*
X33519087Y-36363712D01*
X33483227Y-36418931D01*
X33473735Y-36437562D01*
X33473690Y-36437539D01*
X33471278Y-36442597D01*
X33471324Y-36442618D01*
X33454315Y-36480820D01*
X33451856Y-36479725D01*
X33409286Y-36563267D01*
X33321011Y-36651535D01*
X33209780Y-36708204D01*
X33086481Y-36727727D01*
X32963184Y-36708193D01*
X32851958Y-36651515D01*
X32804362Y-36610863D01*
X32407112Y-36213613D01*
X32399922Y-36206036D01*
X32399349Y-36205400D01*
X32355871Y-36157112D01*
X32355870Y-36157111D01*
X32355869Y-36157110D01*
X32355866Y-36157107D01*
X32302608Y-36118413D01*
X32294322Y-36112055D01*
X32248971Y-36075332D01*
X32243149Y-36070617D01*
X32243138Y-36070611D01*
X32225609Y-36059227D01*
X32225636Y-36059185D01*
X32220863Y-36056260D01*
X32220838Y-36056304D01*
X32202728Y-36045848D01*
X32142578Y-36019067D01*
X32133162Y-36014576D01*
X32116503Y-36006087D01*
X32074492Y-35984681D01*
X32054973Y-35977189D01*
X32054991Y-35977141D01*
X32049707Y-35975270D01*
X32049692Y-35975319D01*
X32029805Y-35968857D01*
X32029803Y-35968856D01*
X32029800Y-35968855D01*
X32029796Y-35968854D01*
X31965396Y-35955165D01*
X31955247Y-35952728D01*
X31942662Y-35949356D01*
X31891641Y-35935685D01*
X31871002Y-35932417D01*
X31871009Y-35932369D01*
X31865441Y-35931636D01*
X31865436Y-35931685D01*
X31844647Y-35929500D01*
X31844646Y-35929500D01*
X31778800Y-35929500D01*
X31768385Y-35929227D01*
X31738295Y-35927650D01*
X31702610Y-35925780D01*
X31681733Y-35926875D01*
X31681730Y-35926824D01*
X31676140Y-35927264D01*
X31676146Y-35927315D01*
X31655345Y-35929500D01*
X31590939Y-35943191D01*
X31580670Y-35945094D01*
X31515657Y-35955391D01*
X31495456Y-35960804D01*
X31495443Y-35960757D01*
X31490066Y-35962349D01*
X31490081Y-35962395D01*
X31470196Y-35968856D01*
X31455791Y-35975270D01*
X31410014Y-35995650D01*
X31400394Y-35999635D01*
X31338927Y-36023230D01*
X31320296Y-36032723D01*
X31320274Y-36032680D01*
X31315346Y-36035355D01*
X31315371Y-36035399D01*
X31297264Y-36045852D01*
X31244000Y-36084550D01*
X31235397Y-36090462D01*
X31180175Y-36126325D01*
X31163924Y-36139485D01*
X31163893Y-36139446D01*
X31159635Y-36143083D01*
X31159669Y-36143120D01*
X31144130Y-36157110D01*
X31144129Y-36157112D01*
X31100650Y-36205400D01*
X31100069Y-36206045D01*
X31092881Y-36213619D01*
X31046326Y-36260174D01*
X31033166Y-36276426D01*
X31033127Y-36276394D01*
X31029716Y-36280840D01*
X31029756Y-36280870D01*
X31017466Y-36297784D01*
X30984542Y-36354809D01*
X30979087Y-36363712D01*
X30943227Y-36418931D01*
X30933735Y-36437562D01*
X30933690Y-36437539D01*
X30931278Y-36442597D01*
X30931324Y-36442618D01*
X30914315Y-36480820D01*
X30911856Y-36479725D01*
X30869286Y-36563267D01*
X30781011Y-36651535D01*
X30669780Y-36708204D01*
X30546481Y-36727727D01*
X30423184Y-36708193D01*
X30311958Y-36651515D01*
X30264362Y-36610863D01*
X29867112Y-36213613D01*
X29859922Y-36206036D01*
X29859349Y-36205400D01*
X29815871Y-36157112D01*
X29815870Y-36157111D01*
X29815869Y-36157110D01*
X29815866Y-36157107D01*
X29762608Y-36118413D01*
X29754322Y-36112055D01*
X29708971Y-36075332D01*
X29703149Y-36070617D01*
X29703138Y-36070611D01*
X29685609Y-36059227D01*
X29685636Y-36059185D01*
X29680863Y-36056260D01*
X29680838Y-36056304D01*
X29662728Y-36045848D01*
X29602578Y-36019067D01*
X29593162Y-36014576D01*
X29576503Y-36006087D01*
X29534492Y-35984681D01*
X29514973Y-35977189D01*
X29514991Y-35977141D01*
X29509707Y-35975270D01*
X29509692Y-35975319D01*
X29489805Y-35968857D01*
X29489803Y-35968856D01*
X29489800Y-35968855D01*
X29489796Y-35968854D01*
X29425396Y-35955165D01*
X29415247Y-35952728D01*
X29402662Y-35949356D01*
X29351641Y-35935685D01*
X29331002Y-35932417D01*
X29331009Y-35932369D01*
X29325441Y-35931636D01*
X29325436Y-35931685D01*
X29304647Y-35929500D01*
X29304646Y-35929500D01*
X29238800Y-35929500D01*
X29228385Y-35929227D01*
X29198295Y-35927650D01*
X29162610Y-35925780D01*
X29141733Y-35926875D01*
X29141730Y-35926824D01*
X29136140Y-35927264D01*
X29136146Y-35927315D01*
X29115345Y-35929500D01*
X29050939Y-35943191D01*
X29040670Y-35945094D01*
X28975657Y-35955391D01*
X28955456Y-35960804D01*
X28955443Y-35960757D01*
X28950066Y-35962349D01*
X28950081Y-35962395D01*
X28930196Y-35968856D01*
X28915791Y-35975270D01*
X28870014Y-35995650D01*
X28860394Y-35999635D01*
X28798927Y-36023230D01*
X28780296Y-36032723D01*
X28780274Y-36032680D01*
X28775346Y-36035355D01*
X28775371Y-36035399D01*
X28757264Y-36045852D01*
X28704000Y-36084550D01*
X28695397Y-36090462D01*
X28640175Y-36126325D01*
X28623924Y-36139485D01*
X28623893Y-36139446D01*
X28619635Y-36143083D01*
X28619669Y-36143120D01*
X28604130Y-36157110D01*
X28604129Y-36157112D01*
X28560650Y-36205400D01*
X28560069Y-36206045D01*
X28552881Y-36213619D01*
X28506326Y-36260174D01*
X28493166Y-36276426D01*
X28493127Y-36276394D01*
X28489716Y-36280840D01*
X28489756Y-36280870D01*
X28477466Y-36297784D01*
X28444542Y-36354809D01*
X28439087Y-36363712D01*
X28403227Y-36418931D01*
X28393735Y-36437562D01*
X28393690Y-36437539D01*
X28391278Y-36442597D01*
X28391324Y-36442618D01*
X28374315Y-36480820D01*
X28371856Y-36479725D01*
X28329286Y-36563267D01*
X28241011Y-36651535D01*
X28129780Y-36708204D01*
X28006481Y-36727727D01*
X27883184Y-36708193D01*
X27771958Y-36651515D01*
X27724362Y-36610863D01*
X26057112Y-34943613D01*
X26049922Y-34936036D01*
X26030626Y-34914606D01*
X26005871Y-34887112D01*
X26005870Y-34887111D01*
X26005869Y-34887110D01*
X26005866Y-34887107D01*
X25952608Y-34848413D01*
X25944322Y-34842055D01*
X25909234Y-34813642D01*
X25893149Y-34800617D01*
X25893138Y-34800611D01*
X25875609Y-34789227D01*
X25875636Y-34789185D01*
X25870863Y-34786260D01*
X25870838Y-34786304D01*
X25852728Y-34775848D01*
X25792578Y-34749067D01*
X25783162Y-34744576D01*
X25760082Y-34732816D01*
X25724492Y-34714681D01*
X25704973Y-34707189D01*
X25704991Y-34707141D01*
X25699707Y-34705270D01*
X25699692Y-34705319D01*
X25679805Y-34698857D01*
X25679803Y-34698856D01*
X25679800Y-34698855D01*
X25679796Y-34698854D01*
X25615396Y-34685165D01*
X25605247Y-34682728D01*
X25592662Y-34679356D01*
X25541641Y-34665685D01*
X25521002Y-34662417D01*
X25521009Y-34662369D01*
X25515441Y-34661636D01*
X25515436Y-34661685D01*
X25494647Y-34659500D01*
X25494646Y-34659500D01*
X25428800Y-34659500D01*
X25418385Y-34659227D01*
X25388295Y-34657650D01*
X25352610Y-34655780D01*
X25331733Y-34656875D01*
X25331730Y-34656824D01*
X25326140Y-34657264D01*
X25326146Y-34657315D01*
X25305345Y-34659500D01*
X25240939Y-34673191D01*
X25230670Y-34675094D01*
X25165657Y-34685391D01*
X25145456Y-34690804D01*
X25145443Y-34690757D01*
X25140066Y-34692349D01*
X25140081Y-34692395D01*
X25120196Y-34698856D01*
X25105791Y-34705270D01*
X25060014Y-34725650D01*
X25050394Y-34729635D01*
X24988927Y-34753230D01*
X24970296Y-34762723D01*
X24970274Y-34762680D01*
X24965346Y-34765355D01*
X24965371Y-34765399D01*
X24947264Y-34775852D01*
X24894000Y-34814550D01*
X24885397Y-34820462D01*
X24830175Y-34856325D01*
X24813924Y-34869485D01*
X24813893Y-34869446D01*
X24809635Y-34873083D01*
X24809669Y-34873120D01*
X24794130Y-34887110D01*
X24794129Y-34887112D01*
X24756076Y-34929374D01*
X24750069Y-34936045D01*
X24742881Y-34943619D01*
X24696326Y-34990174D01*
X24683166Y-35006426D01*
X24683127Y-35006394D01*
X24679716Y-35010840D01*
X24679756Y-35010870D01*
X24667466Y-35027784D01*
X24634542Y-35084809D01*
X24629087Y-35093712D01*
X24593227Y-35148931D01*
X24583735Y-35167562D01*
X24583690Y-35167539D01*
X24581278Y-35172597D01*
X24581324Y-35172618D01*
X24564315Y-35210820D01*
X24561856Y-35209725D01*
X24519286Y-35293267D01*
X24431011Y-35381535D01*
X24319780Y-35438204D01*
X24196481Y-35457727D01*
X24073184Y-35438193D01*
X23961958Y-35381515D01*
X23914362Y-35340863D01*
X23517112Y-34943613D01*
X23509922Y-34936036D01*
X23490626Y-34914606D01*
X23465871Y-34887112D01*
X23465870Y-34887111D01*
X23465869Y-34887110D01*
X23465866Y-34887107D01*
X23412608Y-34848413D01*
X23404322Y-34842055D01*
X23369234Y-34813642D01*
X23353149Y-34800617D01*
X23353138Y-34800611D01*
X23335609Y-34789227D01*
X23335636Y-34789185D01*
X23330863Y-34786260D01*
X23330838Y-34786304D01*
X23312728Y-34775848D01*
X23252578Y-34749067D01*
X23243162Y-34744576D01*
X23220082Y-34732816D01*
X23184492Y-34714681D01*
X23164973Y-34707189D01*
X23164991Y-34707141D01*
X23159707Y-34705270D01*
X23159692Y-34705319D01*
X23139805Y-34698857D01*
X23139803Y-34698856D01*
X23139800Y-34698855D01*
X23139796Y-34698854D01*
X23075396Y-34685165D01*
X23065247Y-34682728D01*
X23052662Y-34679356D01*
X23001641Y-34665685D01*
X22981002Y-34662417D01*
X22981009Y-34662369D01*
X22975441Y-34661636D01*
X22975436Y-34661685D01*
X22954647Y-34659500D01*
X22954646Y-34659500D01*
X22888800Y-34659500D01*
X22878385Y-34659227D01*
X22848295Y-34657650D01*
X22812610Y-34655780D01*
X22791733Y-34656875D01*
X22791730Y-34656824D01*
X22786140Y-34657264D01*
X22786146Y-34657315D01*
X22765345Y-34659500D01*
X22700939Y-34673191D01*
X22690670Y-34675094D01*
X22625657Y-34685391D01*
X22605456Y-34690804D01*
X22605443Y-34690757D01*
X22600066Y-34692349D01*
X22600081Y-34692395D01*
X22580196Y-34698856D01*
X22565791Y-34705270D01*
X22520014Y-34725650D01*
X22510394Y-34729635D01*
X22448927Y-34753230D01*
X22430296Y-34762723D01*
X22430274Y-34762680D01*
X22425346Y-34765355D01*
X22425371Y-34765399D01*
X22407264Y-34775852D01*
X22354000Y-34814550D01*
X22345397Y-34820462D01*
X22290175Y-34856325D01*
X22273924Y-34869485D01*
X22273893Y-34869446D01*
X22269635Y-34873083D01*
X22269669Y-34873120D01*
X22254130Y-34887110D01*
X22254129Y-34887112D01*
X22216076Y-34929374D01*
X22210069Y-34936045D01*
X22202881Y-34943619D01*
X22156326Y-34990174D01*
X22143166Y-35006426D01*
X22143127Y-35006394D01*
X22139716Y-35010840D01*
X22139756Y-35010870D01*
X22127466Y-35027784D01*
X22094542Y-35084809D01*
X22089087Y-35093712D01*
X22053227Y-35148931D01*
X22043735Y-35167562D01*
X22043690Y-35167539D01*
X22041278Y-35172597D01*
X22041324Y-35172618D01*
X22032821Y-35191714D01*
X22012473Y-35254338D01*
X22008988Y-35264178D01*
X21985391Y-35325653D01*
X21979980Y-35345849D01*
X21979932Y-35345836D01*
X21978624Y-35351282D01*
X21978673Y-35351293D01*
X21974325Y-35371747D01*
X21967440Y-35437249D01*
X21966077Y-35447598D01*
X21955781Y-35512612D01*
X21954687Y-35533487D01*
X21954637Y-35533484D01*
X21954491Y-35539092D01*
X21954540Y-35539092D01*
X21954540Y-35560003D01*
X21961421Y-35625484D01*
X21962240Y-35635891D01*
X21965686Y-35701644D01*
X21968957Y-35722291D01*
X21968906Y-35722298D01*
X21969928Y-35727810D01*
X21969978Y-35727800D01*
X21974327Y-35748262D01*
X21994670Y-35810873D01*
X21997635Y-35820883D01*
X22014676Y-35884477D01*
X22022172Y-35904003D01*
X22022123Y-35904021D01*
X22024268Y-35909199D01*
X22024315Y-35909179D01*
X22032820Y-35928282D01*
X22032821Y-35928284D01*
X22035207Y-35932417D01*
X22065745Y-35985311D01*
X22070720Y-35994473D01*
X22085372Y-36023229D01*
X22100616Y-36053148D01*
X22112005Y-36070684D01*
X22111962Y-36070711D01*
X22115137Y-36075332D01*
X22115179Y-36075302D01*
X22127464Y-36092211D01*
X22127467Y-36092216D01*
X22127470Y-36092219D01*
X22127472Y-36092222D01*
X22171530Y-36141155D01*
X22178305Y-36149087D01*
X22189882Y-36163382D01*
X22202886Y-36176386D01*
X22210068Y-36183953D01*
X22235982Y-36212734D01*
X22254128Y-36232887D01*
X22269669Y-36246880D01*
X22269634Y-36246918D01*
X22295566Y-36269065D01*
X24382636Y-38356135D01*
X24456012Y-38457129D01*
X24494588Y-38575854D01*
X24499500Y-38638271D01*
X24499500Y-41971081D01*
X24479972Y-42094379D01*
X24423298Y-42205607D01*
X24335026Y-42293879D01*
X24223798Y-42350553D01*
X24100500Y-42370081D01*
X23977202Y-42350553D01*
X23865974Y-42293879D01*
X23818366Y-42253218D01*
X23720111Y-42154964D01*
X23720109Y-42154962D01*
X23630887Y-42092488D01*
X23529047Y-42021178D01*
X23421614Y-41971082D01*
X23317654Y-41922605D01*
X23247107Y-41903702D01*
X23092358Y-41862237D01*
X22918212Y-41847001D01*
X22860000Y-41841908D01*
X22859999Y-41841908D01*
X22627642Y-41862237D01*
X22627641Y-41862237D01*
X22402349Y-41922604D01*
X22402348Y-41922604D01*
X22402346Y-41922605D01*
X22363974Y-41940498D01*
X22190952Y-42021178D01*
X22076181Y-42101543D01*
X21963980Y-42156267D01*
X21840360Y-42173641D01*
X21717422Y-42151964D01*
X21607199Y-42093358D01*
X21527908Y-42013815D01*
X21510046Y-41989954D01*
X21484836Y-41971082D01*
X21394834Y-41903706D01*
X21394829Y-41903703D01*
X21259982Y-41853408D01*
X21206780Y-41847688D01*
X21200373Y-41847000D01*
X21200372Y-41847000D01*
X19439636Y-41847000D01*
X19439629Y-41847000D01*
X19439628Y-41847001D01*
X19432449Y-41847772D01*
X19380019Y-41853408D01*
X19380017Y-41853409D01*
X19245172Y-41903702D01*
X19245165Y-41903706D01*
X19129958Y-41989950D01*
X19129950Y-41989958D01*
X19043706Y-42105165D01*
X19043703Y-42105170D01*
X18993408Y-42240017D01*
X18987000Y-42299627D01*
X18987000Y-44060363D01*
X12700000Y-44060363D01*
X12700000Y-30480000D01*
X18964341Y-30480000D01*
X18984937Y-30715409D01*
X19046096Y-30943660D01*
X19046097Y-30943663D01*
X19093106Y-31044474D01*
X19145966Y-31157833D01*
X19245348Y-31299763D01*
X19281505Y-31351401D01*
X19448599Y-31518495D01*
X19520525Y-31568858D01*
X19642166Y-31654033D01*
X19642169Y-31654034D01*
X19642170Y-31654035D01*
X19856337Y-31753903D01*
X20084592Y-31815063D01*
X20320000Y-31835659D01*
X20555408Y-31815063D01*
X20783663Y-31753903D01*
X20997830Y-31654035D01*
X21191401Y-31518495D01*
X21307869Y-31402026D01*
X21408855Y-31328656D01*
X21527580Y-31290080D01*
X21652415Y-31290079D01*
X21771140Y-31328655D01*
X21872133Y-31402029D01*
X21988599Y-31518495D01*
X22065479Y-31572327D01*
X22182166Y-31654033D01*
X22182169Y-31654034D01*
X22182170Y-31654035D01*
X22396337Y-31753903D01*
X22624592Y-31815063D01*
X22860000Y-31835659D01*
X23095408Y-31815063D01*
X23323663Y-31753903D01*
X23537830Y-31654035D01*
X23731401Y-31518495D01*
X23847869Y-31402026D01*
X23948855Y-31328656D01*
X24067580Y-31290080D01*
X24192415Y-31290079D01*
X24311140Y-31328655D01*
X24412133Y-31402029D01*
X24528599Y-31518495D01*
X24605479Y-31572327D01*
X24722166Y-31654033D01*
X24722169Y-31654034D01*
X24722170Y-31654035D01*
X24936337Y-31753903D01*
X25164592Y-31815063D01*
X25400000Y-31835659D01*
X25635408Y-31815063D01*
X25863663Y-31753903D01*
X26077830Y-31654035D01*
X26271401Y-31518495D01*
X26387867Y-31402028D01*
X26488858Y-31328655D01*
X26607583Y-31290079D01*
X26732417Y-31290079D01*
X26851142Y-31328655D01*
X26952132Y-31402028D01*
X27068599Y-31518495D01*
X27140525Y-31568858D01*
X27262166Y-31654033D01*
X27262169Y-31654034D01*
X27262170Y-31654035D01*
X27476337Y-31753903D01*
X27704592Y-31815063D01*
X27940000Y-31835659D01*
X28175408Y-31815063D01*
X28403663Y-31753903D01*
X28617830Y-31654035D01*
X28811401Y-31518495D01*
X28927867Y-31402028D01*
X29028858Y-31328655D01*
X29147583Y-31290079D01*
X29272417Y-31290079D01*
X29391142Y-31328655D01*
X29492132Y-31402028D01*
X29608599Y-31518495D01*
X29680525Y-31568858D01*
X29802166Y-31654033D01*
X29802169Y-31654034D01*
X29802170Y-31654035D01*
X30016337Y-31753903D01*
X30244592Y-31815063D01*
X30480000Y-31835659D01*
X30715408Y-31815063D01*
X30943663Y-31753903D01*
X31157830Y-31654035D01*
X31254239Y-31586528D01*
X31366432Y-31531807D01*
X31490052Y-31514433D01*
X31612990Y-31536109D01*
X31723213Y-31594714D01*
X31802504Y-31674255D01*
X31812454Y-31687546D01*
X31927669Y-31773796D01*
X32062517Y-31824091D01*
X32122127Y-31830500D01*
X33917872Y-31830499D01*
X33977483Y-31824091D01*
X34112331Y-31773796D01*
X34227546Y-31687546D01*
X34313796Y-31572331D01*
X34364091Y-31437483D01*
X34370500Y-31377873D01*
X34370499Y-29582128D01*
X34364091Y-29522517D01*
X34313796Y-29387669D01*
X34227546Y-29272454D01*
X34191497Y-29245468D01*
X34112334Y-29186206D01*
X34112329Y-29186203D01*
X33977482Y-29135908D01*
X33924281Y-29130188D01*
X33917873Y-29129500D01*
X33917872Y-29129500D01*
X32122136Y-29129500D01*
X32122129Y-29129500D01*
X32122128Y-29129501D01*
X32114949Y-29130272D01*
X32062519Y-29135908D01*
X32062517Y-29135909D01*
X31927672Y-29186202D01*
X31927665Y-29186206D01*
X31812458Y-29272450D01*
X31812448Y-29272460D01*
X31802501Y-29285748D01*
X31712975Y-29372748D01*
X31600947Y-29427824D01*
X31477383Y-29445586D01*
X31354377Y-29424295D01*
X31254234Y-29373468D01*
X31157833Y-29305966D01*
X31028094Y-29245468D01*
X30943663Y-29206097D01*
X30943660Y-29206096D01*
X30715409Y-29144937D01*
X30480000Y-29124341D01*
X30244590Y-29144937D01*
X30016338Y-29206096D01*
X30016331Y-29206099D01*
X29802172Y-29305964D01*
X29802170Y-29305965D01*
X29608602Y-29441502D01*
X29608599Y-29441504D01*
X29608599Y-29441505D01*
X29492132Y-29557971D01*
X29391142Y-29631345D01*
X29272417Y-29669921D01*
X29147583Y-29669921D01*
X29028858Y-29631345D01*
X28927867Y-29557971D01*
X28811401Y-29441505D01*
X28734517Y-29387670D01*
X28617833Y-29305966D01*
X28488094Y-29245468D01*
X28403663Y-29206097D01*
X28403660Y-29206096D01*
X28175409Y-29144937D01*
X28057703Y-29134639D01*
X27940000Y-29124341D01*
X27939999Y-29124341D01*
X27704590Y-29144937D01*
X27476338Y-29206096D01*
X27476331Y-29206099D01*
X27262172Y-29305964D01*
X27262170Y-29305965D01*
X27068602Y-29441502D01*
X27068599Y-29441504D01*
X27068599Y-29441505D01*
X26952132Y-29557971D01*
X26851142Y-29631345D01*
X26732417Y-29669921D01*
X26607583Y-29669921D01*
X26488858Y-29631345D01*
X26387867Y-29557971D01*
X26271401Y-29441505D01*
X26194517Y-29387670D01*
X26077833Y-29305966D01*
X25948094Y-29245468D01*
X25863663Y-29206097D01*
X25863660Y-29206096D01*
X25635409Y-29144937D01*
X25400000Y-29124341D01*
X25164590Y-29144937D01*
X24936338Y-29206096D01*
X24936331Y-29206099D01*
X24722172Y-29305964D01*
X24722170Y-29305965D01*
X24528601Y-29441503D01*
X24412134Y-29557970D01*
X24311140Y-29631345D01*
X24192415Y-29669921D01*
X24067580Y-29669920D01*
X23948855Y-29631344D01*
X23847869Y-29557973D01*
X23731401Y-29441505D01*
X23654517Y-29387670D01*
X23537833Y-29305966D01*
X23408094Y-29245468D01*
X23323663Y-29206097D01*
X23323660Y-29206096D01*
X23095409Y-29144937D01*
X22977703Y-29134639D01*
X22860000Y-29124341D01*
X22859999Y-29124341D01*
X22624590Y-29144937D01*
X22396338Y-29206096D01*
X22396331Y-29206099D01*
X22182172Y-29305964D01*
X22182170Y-29305965D01*
X21988602Y-29441502D01*
X21988599Y-29441504D01*
X21988599Y-29441505D01*
X21872132Y-29557971D01*
X21771142Y-29631345D01*
X21652417Y-29669921D01*
X21527583Y-29669921D01*
X21408858Y-29631345D01*
X21307867Y-29557971D01*
X21191401Y-29441505D01*
X21114517Y-29387670D01*
X20997833Y-29305966D01*
X20868094Y-29245468D01*
X20783663Y-29206097D01*
X20783660Y-29206096D01*
X20555409Y-29144937D01*
X20320000Y-29124341D01*
X20084590Y-29144937D01*
X19856338Y-29206096D01*
X19856331Y-29206099D01*
X19642172Y-29305964D01*
X19642170Y-29305965D01*
X19448602Y-29441502D01*
X19281502Y-29608602D01*
X19145965Y-29802170D01*
X19145964Y-29802172D01*
X19046099Y-30016331D01*
X19046096Y-30016338D01*
X18984937Y-30244590D01*
X18964341Y-30480000D01*
X12700000Y-30480000D01*
X12700000Y-15457478D01*
X12719528Y-15334180D01*
X12768412Y-15238239D01*
X12768193Y-15237942D01*
X13429435Y-15237942D01*
X13478472Y-15334180D01*
X13493543Y-15398008D01*
X13528603Y-15630608D01*
X13528604Y-15630615D01*
X13605937Y-15881322D01*
X13719771Y-16117704D01*
X13867571Y-16334485D01*
X14046016Y-16526802D01*
X14046019Y-16526805D01*
X14251143Y-16690386D01*
X14478357Y-16821568D01*
X14722584Y-16917420D01*
X14722587Y-16917421D01*
X14803227Y-16935826D01*
X14978370Y-16975802D01*
X14978374Y-16975802D01*
X14978377Y-16975803D01*
X15174506Y-16990500D01*
X15305494Y-16990500D01*
X15501622Y-16975803D01*
X15501624Y-16975802D01*
X15501630Y-16975802D01*
X15757416Y-16917420D01*
X16001643Y-16821568D01*
X16228857Y-16690386D01*
X16433981Y-16526805D01*
X16537500Y-16415237D01*
X16612428Y-16334485D01*
X16612429Y-16334482D01*
X16612433Y-16334479D01*
X16760228Y-16117704D01*
X16874063Y-15881323D01*
X16951396Y-15630615D01*
X16986457Y-15398008D01*
X16990499Y-15371190D01*
X16990500Y-15371181D01*
X16990500Y-15108818D01*
X16990499Y-15108809D01*
X16977493Y-15022521D01*
X16951396Y-14849385D01*
X16874063Y-14598677D01*
X16760228Y-14362296D01*
X16760228Y-14362295D01*
X16612428Y-14145514D01*
X16433983Y-13953197D01*
X16433982Y-13953196D01*
X16433981Y-13953195D01*
X16228857Y-13789614D01*
X16156835Y-13748032D01*
X16001644Y-13658432D01*
X15757412Y-13562578D01*
X15501626Y-13504197D01*
X15501622Y-13504196D01*
X15404037Y-13496884D01*
X15282543Y-13468197D01*
X15240158Y-13442441D01*
X15169445Y-13478472D01*
X15075963Y-13496884D01*
X14978377Y-13504196D01*
X14978373Y-13504197D01*
X14722587Y-13562578D01*
X14478355Y-13658432D01*
X14251139Y-13789616D01*
X14251138Y-13789617D01*
X14046016Y-13953197D01*
X13867571Y-14145514D01*
X13719771Y-14362295D01*
X13605937Y-14598677D01*
X13528604Y-14849384D01*
X13528603Y-14849391D01*
X13493543Y-15081991D01*
X13455856Y-15201001D01*
X13429435Y-15237942D01*
X12768193Y-15237942D01*
X12744852Y-15206315D01*
X12705390Y-15087882D01*
X12700000Y-15022521D01*
X12700000Y-13099000D01*
X12719528Y-12975702D01*
X12776202Y-12864474D01*
X12864474Y-12776202D01*
X12975702Y-12719528D01*
X13099000Y-12700000D01*
X15046147Y-12700000D01*
X15169445Y-12719528D01*
G37*
%TD.AperFunction*%
%TA.AperFunction,Conductor*%
G36*
X59542522Y-28396026D02*
G01*
X59653753Y-28452695D01*
X59742029Y-28540963D01*
X59780855Y-28606873D01*
X59785962Y-28617825D01*
X59785965Y-28617830D01*
X59853466Y-28714232D01*
X59853468Y-28714234D01*
X59908192Y-28826434D01*
X59925566Y-28950054D01*
X59903889Y-29072992D01*
X59845283Y-29183215D01*
X59765748Y-29262501D01*
X59752460Y-29272448D01*
X59752450Y-29272458D01*
X59666206Y-29387665D01*
X59666203Y-29387670D01*
X59615908Y-29522517D01*
X59609500Y-29582127D01*
X59609500Y-31377863D01*
X59609501Y-31377870D01*
X59615908Y-31437480D01*
X59615908Y-31437481D01*
X59615909Y-31437483D01*
X59627241Y-31467865D01*
X59666202Y-31572327D01*
X59666206Y-31572334D01*
X59727367Y-31654035D01*
X59752454Y-31687546D01*
X59867669Y-31773796D01*
X60002517Y-31824091D01*
X60062127Y-31830500D01*
X61857872Y-31830499D01*
X61917483Y-31824091D01*
X62052331Y-31773796D01*
X62052332Y-31773795D01*
X62061065Y-31770538D01*
X62183413Y-31745747D01*
X62307434Y-31759977D01*
X62420988Y-31811836D01*
X62512958Y-31896246D01*
X62574343Y-32004946D01*
X62599134Y-32127294D01*
X62599500Y-32144381D01*
X62599500Y-35021728D01*
X62579972Y-35145026D01*
X62523298Y-35256254D01*
X62482636Y-35303864D01*
X60703865Y-37082636D01*
X60602871Y-37156012D01*
X60484146Y-37194588D01*
X60421729Y-37199500D01*
X58823457Y-37199500D01*
X58700159Y-37179972D01*
X58588931Y-37123298D01*
X58500659Y-37035026D01*
X58443985Y-36923798D01*
X58424457Y-36800500D01*
X58443985Y-36677202D01*
X58500659Y-36565974D01*
X58588931Y-36477702D01*
X58681158Y-36430709D01*
X58680689Y-36429655D01*
X58699803Y-36421144D01*
X58733597Y-36406096D01*
X58753092Y-36398612D01*
X58788284Y-36387179D01*
X58820337Y-36368671D01*
X58838930Y-36359198D01*
X58872730Y-36344151D01*
X58902670Y-36322397D01*
X58920156Y-36311042D01*
X58952216Y-36292533D01*
X58979720Y-36267766D01*
X58995936Y-36254635D01*
X59025871Y-36232888D01*
X59050621Y-36205400D01*
X59065400Y-36190621D01*
X59077115Y-36180073D01*
X59092888Y-36165871D01*
X59114635Y-36135936D01*
X59127766Y-36119720D01*
X59152533Y-36092216D01*
X59171042Y-36060156D01*
X59182397Y-36042670D01*
X59204151Y-36012730D01*
X59219198Y-35978930D01*
X59228671Y-35960337D01*
X59247179Y-35928284D01*
X59258612Y-35893092D01*
X59266096Y-35873597D01*
X59281144Y-35839803D01*
X59288836Y-35803610D01*
X59294241Y-35783439D01*
X59305674Y-35748256D01*
X59309541Y-35711460D01*
X59312810Y-35690823D01*
X59320499Y-35654649D01*
X59320500Y-35654646D01*
X59320500Y-35617651D01*
X59321594Y-35596783D01*
X59325460Y-35560000D01*
X59325460Y-35559998D01*
X59321594Y-35523215D01*
X59320500Y-35502347D01*
X59320500Y-35465359D01*
X59320500Y-35465354D01*
X59312807Y-35429162D01*
X59309540Y-35408533D01*
X59305674Y-35371744D01*
X59294239Y-35336555D01*
X59288834Y-35316381D01*
X59281144Y-35280197D01*
X59266097Y-35246402D01*
X59258607Y-35226890D01*
X59253029Y-35209722D01*
X59247179Y-35191716D01*
X59228680Y-35159675D01*
X59219198Y-35141065D01*
X59207630Y-35115084D01*
X59204151Y-35107270D01*
X59182407Y-35077341D01*
X59171030Y-35059821D01*
X59169441Y-35057068D01*
X59152533Y-35027784D01*
X59127775Y-35000288D01*
X59114633Y-34984060D01*
X59092888Y-34954129D01*
X59081209Y-34943613D01*
X59065396Y-34929374D01*
X59050623Y-34914601D01*
X59025872Y-34887112D01*
X58995945Y-34865369D01*
X58979702Y-34852216D01*
X58952216Y-34827467D01*
X58940083Y-34820462D01*
X58920169Y-34808964D01*
X58902655Y-34797590D01*
X58872730Y-34775849D01*
X58872729Y-34775848D01*
X58872727Y-34775847D01*
X58838936Y-34760802D01*
X58820319Y-34751316D01*
X58788287Y-34732823D01*
X58788289Y-34732823D01*
X58788284Y-34732821D01*
X58788279Y-34732819D01*
X58788276Y-34732818D01*
X58772717Y-34727763D01*
X58753097Y-34721388D01*
X58733601Y-34713904D01*
X58699806Y-34698857D01*
X58699800Y-34698855D01*
X58663615Y-34691164D01*
X58643438Y-34685757D01*
X58608256Y-34674326D01*
X58608254Y-34674325D01*
X58608252Y-34674325D01*
X58571453Y-34670456D01*
X58550826Y-34667189D01*
X58514647Y-34659500D01*
X58514646Y-34659500D01*
X58467192Y-34659500D01*
X57042249Y-34659500D01*
X56918951Y-34639972D01*
X56807723Y-34583298D01*
X56719451Y-34495026D01*
X56662777Y-34383798D01*
X56643249Y-34260500D01*
X56662777Y-34137202D01*
X56719451Y-34025974D01*
X56760113Y-33978364D01*
X56879662Y-33858814D01*
X57010130Y-33672488D01*
X57010133Y-33672482D01*
X57106264Y-33466330D01*
X57106265Y-33466329D01*
X57118680Y-33420000D01*
X56683986Y-33420000D01*
X56560688Y-33400472D01*
X56449460Y-33343798D01*
X56361188Y-33255526D01*
X56304514Y-33144298D01*
X56284986Y-33021000D01*
X56284986Y-33019000D01*
X56304514Y-32895702D01*
X56361188Y-32784474D01*
X56449460Y-32696202D01*
X56560688Y-32639528D01*
X56683986Y-32620000D01*
X57118679Y-32620000D01*
X57106265Y-32573670D01*
X57106264Y-32573669D01*
X57010133Y-32367517D01*
X57010130Y-32367511D01*
X56879662Y-32181185D01*
X56730613Y-32032136D01*
X56657237Y-31931142D01*
X56618661Y-31812417D01*
X56618661Y-31687583D01*
X56657237Y-31568858D01*
X56730613Y-31467864D01*
X56879662Y-31318814D01*
X57010130Y-31132488D01*
X57010133Y-31132482D01*
X57106264Y-30926330D01*
X57106265Y-30926329D01*
X57118680Y-30880000D01*
X56683986Y-30880000D01*
X56560688Y-30860472D01*
X56449460Y-30803798D01*
X56361188Y-30715526D01*
X56304514Y-30604298D01*
X56284986Y-30481000D01*
X56284986Y-30479000D01*
X56304514Y-30355702D01*
X56361188Y-30244474D01*
X56449460Y-30156202D01*
X56560688Y-30099528D01*
X56683986Y-30080000D01*
X57118679Y-30080000D01*
X57106265Y-30033670D01*
X57106264Y-30033669D01*
X57010133Y-29827517D01*
X57010130Y-29827511D01*
X56879662Y-29641185D01*
X56760113Y-29521636D01*
X56686737Y-29420642D01*
X56648161Y-29301917D01*
X56648161Y-29177083D01*
X56686737Y-29058358D01*
X56760113Y-28957364D01*
X56861107Y-28883988D01*
X56979832Y-28845412D01*
X57042249Y-28840500D01*
X58514642Y-28840500D01*
X58514646Y-28840500D01*
X58550826Y-28832809D01*
X58571460Y-28829541D01*
X58608256Y-28825674D01*
X58643439Y-28814241D01*
X58663610Y-28808836D01*
X58699803Y-28801144D01*
X58733597Y-28786096D01*
X58753092Y-28778612D01*
X58788284Y-28767179D01*
X58820337Y-28748671D01*
X58838930Y-28739198D01*
X58872730Y-28724151D01*
X58902670Y-28702397D01*
X58920156Y-28691042D01*
X58952216Y-28672533D01*
X58979720Y-28647766D01*
X58995936Y-28634635D01*
X59025871Y-28612888D01*
X59050621Y-28585400D01*
X59065400Y-28570621D01*
X59073186Y-28563609D01*
X59092888Y-28545871D01*
X59096434Y-28540989D01*
X59104963Y-28532459D01*
X59106882Y-28530329D01*
X59106993Y-28530429D01*
X59184701Y-28452715D01*
X59295927Y-28396037D01*
X59419224Y-28376503D01*
X59542522Y-28396026D01*
G37*
%TD.AperFunction*%
%TA.AperFunction,Conductor*%
G36*
X44889377Y-28413883D02*
G01*
X44992871Y-28483688D01*
X45043555Y-28540976D01*
X45047111Y-28545871D01*
X45074601Y-28570623D01*
X45089374Y-28585396D01*
X45108713Y-28606873D01*
X45114129Y-28612888D01*
X45144060Y-28634633D01*
X45160288Y-28647775D01*
X45187784Y-28672533D01*
X45217068Y-28689441D01*
X45219821Y-28691030D01*
X45237341Y-28702407D01*
X45267270Y-28724151D01*
X45275084Y-28727630D01*
X45301065Y-28739198D01*
X45319684Y-28748685D01*
X45351716Y-28767179D01*
X45386894Y-28778608D01*
X45406402Y-28786097D01*
X45440197Y-28801144D01*
X45476381Y-28808834D01*
X45496555Y-28814239D01*
X45531744Y-28825674D01*
X45568533Y-28829540D01*
X45589162Y-28832807D01*
X45625354Y-28840500D01*
X45672808Y-28840500D01*
X47097751Y-28840500D01*
X47221049Y-28860028D01*
X47332277Y-28916702D01*
X47420549Y-29004974D01*
X47477223Y-29116202D01*
X47496751Y-29239500D01*
X47477223Y-29362798D01*
X47420549Y-29474026D01*
X47379887Y-29521636D01*
X47260337Y-29641185D01*
X47129869Y-29827511D01*
X47129866Y-29827517D01*
X47033735Y-30033669D01*
X47033734Y-30033670D01*
X47021320Y-30080000D01*
X47456014Y-30080000D01*
X47579312Y-30099528D01*
X47690540Y-30156202D01*
X47778812Y-30244474D01*
X47835486Y-30355702D01*
X47855014Y-30479000D01*
X47855014Y-30481000D01*
X47835486Y-30604298D01*
X47778812Y-30715526D01*
X47690540Y-30803798D01*
X47579312Y-30860472D01*
X47456014Y-30880000D01*
X47021320Y-30880000D01*
X47033734Y-30926329D01*
X47033735Y-30926330D01*
X47129866Y-31132482D01*
X47129869Y-31132488D01*
X47260337Y-31318814D01*
X47409386Y-31467863D01*
X47482762Y-31568857D01*
X47521338Y-31687582D01*
X47521338Y-31812416D01*
X47482762Y-31931141D01*
X47409387Y-32032133D01*
X47260340Y-32181181D01*
X47129869Y-32367511D01*
X47129866Y-32367517D01*
X47033735Y-32573669D01*
X47033734Y-32573670D01*
X47021320Y-32620000D01*
X47456014Y-32620000D01*
X47579312Y-32639528D01*
X47690540Y-32696202D01*
X47778812Y-32784474D01*
X47835486Y-32895702D01*
X47855014Y-33019000D01*
X47855014Y-33021000D01*
X47835486Y-33144298D01*
X47778812Y-33255526D01*
X47690540Y-33343798D01*
X47579312Y-33400472D01*
X47456014Y-33420000D01*
X47021320Y-33420000D01*
X47033734Y-33466329D01*
X47033735Y-33466330D01*
X47129866Y-33672482D01*
X47129869Y-33672488D01*
X47260337Y-33858814D01*
X47379887Y-33978364D01*
X47453263Y-34079358D01*
X47491839Y-34198083D01*
X47491839Y-34322917D01*
X47453263Y-34441642D01*
X47379887Y-34542636D01*
X47278893Y-34616012D01*
X47160168Y-34654588D01*
X47097751Y-34659500D01*
X45625354Y-34659500D01*
X45589165Y-34667191D01*
X45568538Y-34670458D01*
X45531747Y-34674325D01*
X45496561Y-34685757D01*
X45476387Y-34691162D01*
X45440202Y-34698854D01*
X45440186Y-34698860D01*
X45406402Y-34713901D01*
X45386905Y-34721385D01*
X45351726Y-34732816D01*
X45351711Y-34732823D01*
X45319675Y-34751318D01*
X45301068Y-34760800D01*
X45267274Y-34775846D01*
X45267267Y-34775850D01*
X45237343Y-34797590D01*
X45219832Y-34808962D01*
X45187785Y-34827465D01*
X45187782Y-34827467D01*
X45160285Y-34852225D01*
X45144057Y-34865366D01*
X45114134Y-34887106D01*
X45114126Y-34887114D01*
X45089371Y-34914606D01*
X45074606Y-34929371D01*
X45047114Y-34954126D01*
X45047106Y-34954134D01*
X45025366Y-34984057D01*
X45012225Y-35000285D01*
X44987467Y-35027782D01*
X44987465Y-35027785D01*
X44968962Y-35059832D01*
X44957590Y-35077343D01*
X44935850Y-35107267D01*
X44935846Y-35107274D01*
X44920800Y-35141068D01*
X44911318Y-35159675D01*
X44892823Y-35191711D01*
X44884317Y-35210817D01*
X44881859Y-35209722D01*
X44839279Y-35293276D01*
X44751002Y-35381541D01*
X44639769Y-35438207D01*
X44516470Y-35457727D01*
X44393173Y-35438190D01*
X44281949Y-35381508D01*
X44234362Y-35340863D01*
X43245562Y-34352063D01*
X41657364Y-32763864D01*
X41583988Y-32662870D01*
X41545412Y-32544145D01*
X41540500Y-32481728D01*
X41540500Y-32144382D01*
X41560028Y-32021084D01*
X41616702Y-31909856D01*
X41704974Y-31821584D01*
X41816202Y-31764910D01*
X41939500Y-31745382D01*
X42062798Y-31764910D01*
X42078935Y-31770538D01*
X42087667Y-31773795D01*
X42087669Y-31773796D01*
X42222517Y-31824091D01*
X42282127Y-31830500D01*
X44077872Y-31830499D01*
X44137483Y-31824091D01*
X44272331Y-31773796D01*
X44387546Y-31687546D01*
X44473796Y-31572331D01*
X44524091Y-31437483D01*
X44530500Y-31377873D01*
X44530499Y-29582128D01*
X44524091Y-29522517D01*
X44473796Y-29387669D01*
X44387546Y-29272454D01*
X44374255Y-29262504D01*
X44287254Y-29172980D01*
X44232177Y-29060952D01*
X44214413Y-28937388D01*
X44235702Y-28814382D01*
X44286527Y-28714239D01*
X44354035Y-28617830D01*
X44359141Y-28606878D01*
X44428943Y-28503390D01*
X44527313Y-28426533D01*
X44644619Y-28383835D01*
X44769377Y-28379476D01*
X44889377Y-28413883D01*
G37*
%TD.AperFunction*%
%TA.AperFunction,Conductor*%
G36*
X48384298Y-30899528D02*
G01*
X48495526Y-30956202D01*
X48583798Y-31044474D01*
X48640472Y-31155702D01*
X48660000Y-31279000D01*
X48660000Y-32221000D01*
X48640472Y-32344298D01*
X48583798Y-32455526D01*
X48495526Y-32543798D01*
X48384298Y-32600472D01*
X48261000Y-32620000D01*
X48259000Y-32620000D01*
X48135702Y-32600472D01*
X48024474Y-32543798D01*
X47936202Y-32455526D01*
X47879528Y-32344298D01*
X47860000Y-32221000D01*
X47860000Y-31279000D01*
X47879528Y-31155702D01*
X47936202Y-31044474D01*
X48024474Y-30956202D01*
X48135702Y-30899528D01*
X48259000Y-30880000D01*
X48261000Y-30880000D01*
X48384298Y-30899528D01*
G37*
%TD.AperFunction*%
%TA.AperFunction,Conductor*%
G36*
X56004298Y-30899528D02*
G01*
X56115526Y-30956202D01*
X56203798Y-31044474D01*
X56260472Y-31155702D01*
X56280000Y-31279000D01*
X56280000Y-32221000D01*
X56260472Y-32344298D01*
X56203798Y-32455526D01*
X56115526Y-32543798D01*
X56004298Y-32600472D01*
X55881000Y-32620000D01*
X55879000Y-32620000D01*
X55755702Y-32600472D01*
X55644474Y-32543798D01*
X55556202Y-32455526D01*
X55499528Y-32344298D01*
X55480000Y-32221000D01*
X55480000Y-31279000D01*
X55499528Y-31155702D01*
X55556202Y-31044474D01*
X55644474Y-30956202D01*
X55755702Y-30899528D01*
X55879000Y-30880000D01*
X55881000Y-30880000D01*
X56004298Y-30899528D01*
G37*
%TD.AperFunction*%
%TD*%
M02*
