M48
; DRILL file {KiCad 7.0.8} date Mon Oct 30 13:37:43 2023
; FORMAT={-:-/ absolute / metric / decimal}
; #@! TF.CreationDate,2023-10-30T13:37:43+01:00
; #@! TF.GenerationSoftware,Kicad,Pcbnew,7.0.8
; #@! TF.FileFunction,Plated,1,2,PTH
FMAT,2
METRIC
; #@! TA.AperFunction,Plated,PTH,ViaDrill
T1C0.600
; #@! TA.AperFunction,Plated,PTH,ComponentDrill
T2C0.800
; #@! TA.AperFunction,Plated,PTH,ComponentDrill
T3C1.000
%
G90
G05
T1
X20.32Y-53.34
X22.86Y-15.24
X25.4Y-22.86
X27.94Y-43.18
X27.94Y-55.88
X35.56Y-43.18
X35.56Y-55.88
X38.1Y-27.94
X38.1Y-30.48
X38.1Y-35.56
X38.1Y-38.1
X38.1Y-40.64
X40.64Y-43.18
T2
X22.86Y-45.72
X22.86Y-53.34
X25.4Y-45.72
X25.4Y-53.34
X27.94Y-45.72
X27.94Y-53.34
X30.48Y-45.72
X30.48Y-53.34
X33.02Y-45.72
X33.02Y-53.34
X35.56Y-45.72
X35.56Y-53.34
X38.1Y-45.72
X38.1Y-53.34
X40.64Y-45.72
X40.64Y-53.34
T3
X17.78Y-22.86
X17.78Y-25.4
X17.78Y-27.94
X17.78Y-30.48
X17.78Y-33.02
X17.78Y-35.56
X17.78Y-38.1
X17.78Y-40.64
X20.32Y-20.32
X22.86Y-20.32
X25.4Y-20.32
X27.94Y-20.32
X27.94Y-40.64
X27.94Y-58.42
X30.48Y-20.32
X30.48Y-40.64
X30.48Y-58.42
X33.02Y-20.32
X35.56Y-20.32
X38.1Y-20.32
X40.64Y-22.89
X40.64Y-25.43
X40.64Y-27.97
X40.64Y-30.51
X40.64Y-33.05
X40.64Y-35.59
X40.64Y-38.13
X40.64Y-40.67
T0
M30
