%TF.GenerationSoftware,KiCad,Pcbnew,7.0.8*%
%TF.CreationDate,2023-10-30T13:37:48+01:00*%
%TF.ProjectId,chessbot,63686573-7362-46f7-942e-6b696361645f,rev?*%
%TF.SameCoordinates,Original*%
%TF.FileFunction,Soldermask,Bot*%
%TF.FilePolarity,Negative*%
%FSLAX46Y46*%
G04 Gerber Fmt 4.6, Leading zero omitted, Abs format (unit mm)*
G04 Created by KiCad (PCBNEW 7.0.8) date 2023-10-30 13:37:48*
%MOMM*%
%LPD*%
G01*
G04 APERTURE LIST*
%ADD10C,2.000000*%
%ADD11C,3.200000*%
G04 APERTURE END LIST*
D10*
%TO.C,M2*%
X27940000Y-40640000D03*
X30480000Y-40640000D03*
%TD*%
D11*
%TO.C,H1*%
X15240000Y-60960000D03*
%TD*%
D10*
%TO.C,M1*%
X30480000Y-58420000D03*
X27940000Y-58420000D03*
%TD*%
%TO.C,VCC_Flash1*%
X20320000Y-20320000D03*
X22860000Y-20320000D03*
X25400000Y-20320000D03*
X27940000Y-20320000D03*
X30480000Y-20320000D03*
X33020000Y-20320000D03*
X35560000Y-20320000D03*
X38100000Y-20320000D03*
%TD*%
D11*
%TO.C,H4*%
X15240000Y-15240000D03*
%TD*%
%TO.C,H2*%
X40640000Y-60960000D03*
%TD*%
%TO.C,H3*%
X40640000Y-15240000D03*
%TD*%
D10*
%TO.C,L293D1*%
X40640000Y-53340000D03*
X38100000Y-53340000D03*
X35560000Y-53340000D03*
X33020000Y-53340000D03*
X30480000Y-53340000D03*
X27940000Y-53340000D03*
X25400000Y-53340000D03*
X22860000Y-53340000D03*
X22860000Y-45720000D03*
X25400000Y-45720000D03*
X27940000Y-45720000D03*
X30480000Y-45720000D03*
X33020000Y-45720000D03*
X35560000Y-45720000D03*
X38100000Y-45720000D03*
X40640000Y-45720000D03*
%TD*%
%TO.C,Conn_ESP2*%
X17780000Y-40640000D03*
X17780000Y-38100000D03*
X17780000Y-35560000D03*
X17780000Y-33020000D03*
X17780000Y-30480000D03*
X17780000Y-27940000D03*
X17780000Y-25400000D03*
X17780000Y-22860000D03*
%TD*%
%TO.C,Conn_ESP1*%
X40640000Y-22890000D03*
X40640000Y-25430000D03*
X40640000Y-27970000D03*
X40640000Y-30510000D03*
X40640000Y-33050000D03*
X40640000Y-35590000D03*
X40640000Y-38130000D03*
X40640000Y-40670000D03*
%TD*%
M02*
